$MeshFormat
2.200000 0 8
$EndMeshFormat
$Nodes
414
1 0.000000 0.000000 0.000000
2 0.400000 0.000000 0.000000
3 0.000000 0.400000 0.000000
4 1.000000 0.000000 0.000000
5 1.000000 1.000000 0.000000
6 0.000000 1.000000 0.000000
7 0.400000 0.400000 0.000000
8 0.027501 0.000000 0.000000
9 0.053681 0.000000 0.000000
10 0.080109 0.000000 0.000000
11 0.107610 0.000000 0.000000
12 0.133313 0.000000 0.000000
13 0.160108 0.000000 0.000000
14 0.187123 0.000000 0.000000
15 0.212614 0.000000 0.000000
16 0.240107 0.000000 0.000000
17 0.265996 0.000000 0.000000
18 0.292605 0.000000 0.000000
19 0.319738 0.000000 0.000000
20 0.345204 0.000000 0.000000
21 0.371140 0.000000 0.000000
22 0.000000 0.373743 0.000000
23 0.000000 0.347814 0.000000
24 0.000000 0.320599 0.000000
25 0.000000 0.295300 0.000000
26 0.000000 0.268284 0.000000
27 0.000000 0.242570 0.000000
28 0.000000 0.216082 0.000000
29 0.000000 0.189458 0.000000
30 0.000000 0.161558 0.000000
31 0.000000 0.135672 0.000000
32 0.000000 0.108076 0.000000
33 0.000000 0.081028 0.000000
34 0.000000 0.054868 0.000000
35 0.000000 0.026283 0.000000
36 0.427922 0.000000 0.000000
37 0.461279 0.000000 0.000000
38 0.502612 0.000000 0.000000
39 0.556454 0.000000 0.000000
40 0.628406 0.000000 0.000000
41 0.724637 0.000000 0.000000
42 0.843376 0.000000 0.000000
43 1.000000 0.200000 0.000000
44 1.000000 0.400000 0.000000
45 1.000000 0.600000 0.000000
46 1.000000 0.800000 0.000000
47 0.800000 1.000000 0.000000
48 0.600000 1.000000 0.000000
49 0.400000 1.000000 0.000000
50 0.200000 1.000000 0.000000
51 0.000000 0.820299 0.000000
52 0.000000 0.688524 0.000000
53 0.000000 0.591287 0.000000
54 0.000000 0.520234 0.000000
55 0.000000 0.467993 0.000000
56 0.000000 0.429734 0.000000
57 0.400000 0.026258 0.000000
58 0.400000 0.053069 0.000000
59 0.400000 0.080826 0.000000
60 0.400000 0.106622 0.000000
61 0.400000 0.134386 0.000000
62 0.400000 0.161189 0.000000
63 0.400000 0.187454 0.000000
64 0.400000 0.215474 0.000000
65 0.400000 0.241478 0.000000
66 0.400000 0.267845 0.000000
67 0.400000 0.294806 0.000000
68 0.400000 0.320081 0.000000
69 0.400000 0.345825 0.000000
70 0.400000 0.373848 0.000000
71 0.373825 0.400000 0.000000
72 0.346717 0.400000 0.000000
73 0.321450 0.400000 0.000000
74 0.294382 0.400000 0.000000
75 0.268698 0.400000 0.000000
76 0.242440 0.400000 0.000000
77 0.215644 0.400000 0.000000
78 0.187889 0.400000 0.000000
79 0.162102 0.400000 0.000000
80 0.134349 0.400000 0.000000
81 0.107552 0.400000 0.000000
82 0.081295 0.400000 0.000000
83 0.053283 0.400000 0.000000
84 0.027288 0.400000 0.000000
85 0.439679 0.039286 0.000000
86 0.485389 0.041550 0.000000
87 0.531372 0.039959 0.000000
88 0.687100 0.099810 0.000000
89 0.830105 0.129387 0.000000
90 0.859352 0.300902 0.000000
91 0.852431 0.478126 0.000000
92 0.855486 0.660480 0.000000
93 0.841822 0.840716 0.000000
94 0.663710 0.854845 0.000000
95 0.487264 0.854317 0.000000
96 0.303535 0.847311 0.000000
97 0.129518 0.808385 0.000000
98 0.100321 0.649590 0.000000
99 0.040139 0.491102 0.000000
100 0.031478 0.444602 0.000000
101 0.432639 0.072213 0.000000
102 0.425219 0.145804 0.000000
103 0.428852 0.173775 0.000000
104 0.423942 0.200954 0.000000
105 0.424763 0.226933 0.000000
106 0.431016 0.254248 0.000000
107 0.427908 0.281064 0.000000
108 0.421773 0.308270 0.000000
109 0.426030 0.332160 0.000000
110 0.426347 0.359846 0.000000
111 0.428126 0.389926 0.000000
112 0.393067 0.431045 0.000000
113 0.358420 0.430123 0.000000
114 0.320481 0.428692 0.000000
115 0.283746 0.432435 0.000000
116 0.254411 0.424725 0.000000
117 0.226599 0.428364 0.000000
118 0.199802 0.422273 0.000000
119 0.173446 0.425929 0.000000
120 0.147650 0.420495 0.000000
121 0.121538 0.426357 0.000000
122 0.091097 0.427044 0.000000
123 0.057956 0.423922 0.000000
124 0.586538 0.073995 0.000000
125 0.074773 0.555080 0.000000
126 0.430425 0.428042 0.000000
127 0.518139 0.083454 0.000000
128 0.467873 0.076853 0.000000
129 0.731299 0.229193 0.000000
130 0.735996 0.379388 0.000000
131 0.719697 0.716205 0.000000
132 0.394252 0.725758 0.000000
133 0.557931 0.688870 0.000000
134 0.377701 0.463117 0.000000
135 0.240230 0.680073 0.000000
136 0.618271 0.189462 0.000000
137 0.089502 0.495240 0.000000
138 0.432479 0.108862 0.000000
139 0.455896 0.154171 0.000000
140 0.459448 0.265685 0.000000
141 0.454697 0.306989 0.000000
142 0.456241 0.342542 0.000000
143 0.455319 0.373084 0.000000
144 0.340511 0.462799 0.000000
145 0.299990 0.475726 0.000000
146 0.248569 0.465086 0.000000
147 0.193005 0.457867 0.000000
148 0.148384 0.451232 0.000000
149 0.110620 0.459006 0.000000
150 0.070289 0.456165 0.000000
151 0.691943 0.544522 0.000000
152 0.474351 0.407934 0.000000
153 0.176907 0.572608 0.000000
154 0.472050 0.466941 0.000000
155 0.546794 0.139563 0.000000
156 0.525667 0.446358 0.000000
157 0.417954 0.474248 0.000000
158 0.337236 0.611610 0.000000
159 0.486777 0.120838 0.000000
160 0.501085 0.168151 0.000000
161 0.463141 0.211336 0.000000
162 0.494773 0.244312 0.000000
163 0.491604 0.324514 0.000000
164 0.491813 0.365587 0.000000
165 0.362272 0.523132 0.000000
166 0.269652 0.543882 0.000000
167 0.209450 0.507526 0.000000
168 0.146620 0.502775 0.000000
169 0.445395 0.609643 0.000000
170 0.647180 0.301906 0.000000
171 0.575596 0.260091 0.000000
172 0.446256 0.529318 0.000000
173 0.545242 0.535723 0.000000
174 0.530169 0.394067 0.000000
175 0.512588 0.281655 0.000000
176 0.551847 0.336582 0.000000
177 0.609457 0.419745 0.000000
178 0.537085 0.214110 0.000000
179 0.044304 0.024627 0.000000
180 0.069576 0.021247 0.000000
181 0.094791 0.022652 0.000000
182 0.120684 0.023071 0.000000
183 0.146278 0.023539 0.000000
184 0.173004 0.023445 0.000000
185 0.199847 0.022419 0.000000
186 0.225769 0.022121 0.000000
187 0.252488 0.021675 0.000000
188 0.278668 0.021612 0.000000
189 0.304732 0.021181 0.000000
190 0.330382 0.021472 0.000000
191 0.355411 0.023277 0.000000
192 0.379919 0.019887 0.000000
193 0.023794 0.363215 0.000000
194 0.023283 0.334589 0.000000
195 0.021944 0.307393 0.000000
196 0.021647 0.281486 0.000000
197 0.022420 0.254859 0.000000
198 0.022434 0.228316 0.000000
199 0.022804 0.201574 0.000000
200 0.023317 0.174338 0.000000
201 0.023639 0.148081 0.000000
202 0.023690 0.120822 0.000000
203 0.022786 0.093610 0.000000
204 0.021059 0.067144 0.000000
205 0.021489 0.037451 0.000000
206 0.375318 0.046825 0.000000
207 0.378080 0.073982 0.000000
208 0.378755 0.100740 0.000000
209 0.379087 0.127023 0.000000
210 0.378991 0.153993 0.000000
211 0.378895 0.180347 0.000000
212 0.379143 0.206903 0.000000
213 0.379022 0.233595 0.000000
214 0.378951 0.259888 0.000000
215 0.378914 0.286123 0.000000
216 0.379381 0.311669 0.000000
217 0.382387 0.334636 0.000000
218 0.375087 0.360292 0.000000
219 0.355830 0.378067 0.000000
220 0.332151 0.377698 0.000000
221 0.307432 0.377554 0.000000
222 0.281080 0.377828 0.000000
223 0.254643 0.378606 0.000000
224 0.228052 0.378452 0.000000
225 0.201229 0.378704 0.000000
226 0.175218 0.378930 0.000000
227 0.148192 0.378402 0.000000
228 0.120902 0.378446 0.000000
229 0.094764 0.378878 0.000000
230 0.070463 0.381249 0.000000
231 0.048053 0.373912 0.000000
232 0.082352 0.045130 0.000000
233 0.060436 0.041832 0.000000
234 0.132900 0.047988 0.000000
235 0.159301 0.047810 0.000000
236 0.185884 0.046628 0.000000
237 0.212987 0.045464 0.000000
238 0.239117 0.044429 0.000000
239 0.265731 0.043816 0.000000
240 0.290953 0.043216 0.000000
241 0.315983 0.042993 0.000000
242 0.343577 0.044362 0.000000
243 0.043604 0.293627 0.000000
244 0.354522 0.067532 0.000000
245 0.044445 0.319903 0.000000
246 0.047159 0.346616 0.000000
247 0.043715 0.267428 0.000000
248 0.044349 0.241062 0.000000
249 0.045203 0.214286 0.000000
250 0.046033 0.187162 0.000000
251 0.046679 0.160471 0.000000
252 0.046889 0.133364 0.000000
253 0.046365 0.106037 0.000000
254 0.044492 0.079584 0.000000
255 0.041874 0.053366 0.000000
256 0.357810 0.094175 0.000000
257 0.358419 0.119948 0.000000
258 0.358237 0.146304 0.000000
259 0.358386 0.172205 0.000000
260 0.358864 0.198753 0.000000
261 0.358995 0.224898 0.000000
262 0.358822 0.251674 0.000000
263 0.358518 0.278074 0.000000
264 0.357613 0.305634 0.000000
265 0.360647 0.332409 0.000000
266 0.293806 0.355103 0.000000
267 0.319837 0.353480 0.000000
268 0.346153 0.354110 0.000000
269 0.266951 0.356390 0.000000
270 0.240308 0.356719 0.000000
271 0.214245 0.356740 0.000000
272 0.188185 0.356729 0.000000
273 0.161836 0.356715 0.000000
274 0.134960 0.356438 0.000000
275 0.107365 0.356545 0.000000
276 0.076014 0.356731 0.000000
277 0.106436 0.047240 0.000000
278 0.172609 0.071229 0.000000
279 0.145169 0.072132 0.000000
280 0.226484 0.067512 0.000000
281 0.253078 0.066389 0.000000
282 0.278960 0.065250 0.000000
283 0.302951 0.063086 0.000000
284 0.328753 0.063787 0.000000
285 0.066369 0.253888 0.000000
286 0.065110 0.279739 0.000000
287 0.335703 0.112176 0.000000
288 0.065404 0.305094 0.000000
289 0.069279 0.200457 0.000000
290 0.071563 0.173294 0.000000
291 0.071782 0.145902 0.000000
292 0.071951 0.117423 0.000000
293 0.070085 0.089707 0.000000
294 0.090381 0.070268 0.000000
295 0.335954 0.136788 0.000000
296 0.065066 0.064637 0.000000
297 0.334976 0.087116 0.000000
298 0.337112 0.162657 0.000000
299 0.337787 0.188163 0.000000
300 0.337764 0.214827 0.000000
301 0.337715 0.240901 0.000000
302 0.337638 0.267560 0.000000
303 0.336669 0.294740 0.000000
304 0.334002 0.325980 0.000000
305 0.252674 0.335172 0.000000
306 0.226495 0.335768 0.000000
307 0.305576 0.331704 0.000000
308 0.278702 0.334095 0.000000
309 0.201254 0.335585 0.000000
310 0.175181 0.335565 0.000000
311 0.149179 0.335385 0.000000
312 0.122383 0.335232 0.000000
313 0.094829 0.335892 0.000000
314 0.117000 0.072493 0.000000
315 0.067406 0.227415 0.000000
316 0.199647 0.070085 0.000000
317 0.068369 0.330427 0.000000
318 0.088724 0.241400 0.000000
319 0.267629 0.088785 0.000000
320 0.240720 0.088519 0.000000
321 0.314810 0.081061 0.000000
322 0.087405 0.266685 0.000000
323 0.098910 0.098652 0.000000
324 0.315577 0.152458 0.000000
325 0.314032 0.307632 0.000000
326 0.095239 0.186818 0.000000
327 0.096104 0.130868 0.000000
328 0.316304 0.178376 0.000000
329 0.313094 0.126801 0.000000
330 0.087148 0.292146 0.000000
331 0.316482 0.256138 0.000000
332 0.316433 0.229946 0.000000
333 0.316686 0.203938 0.000000
334 0.316697 0.281569 0.000000
335 0.187988 0.313575 0.000000
336 0.084616 0.314139 0.000000
337 0.238717 0.314469 0.000000
338 0.264121 0.312953 0.000000
339 0.213684 0.314234 0.000000
340 0.162818 0.313149 0.000000
341 0.292752 0.086247 0.000000
342 0.090938 0.214411 0.000000
343 0.137714 0.313067 0.000000
344 0.109570 0.307990 0.000000
345 0.130813 0.095825 0.000000
346 0.158456 0.096838 0.000000
347 0.097395 0.159365 0.000000
348 0.288412 0.311709 0.000000
349 0.214093 0.091321 0.000000
350 0.187241 0.095809 0.000000
351 0.313147 0.102998 0.000000
352 0.294439 0.192214 0.000000
353 0.226777 0.292121 0.000000
354 0.294331 0.166611 0.000000
355 0.175909 0.291733 0.000000
356 0.118257 0.117882 0.000000
357 0.291648 0.140795 0.000000
358 0.109289 0.279753 0.000000
359 0.151210 0.290962 0.000000
360 0.294612 0.243909 0.000000
361 0.285452 0.113475 0.000000
362 0.249897 0.294458 0.000000
363 0.201424 0.292060 0.000000
364 0.109974 0.254732 0.000000
365 0.254302 0.111143 0.000000
366 0.143644 0.121458 0.000000
367 0.294762 0.217390 0.000000
368 0.111307 0.229054 0.000000
369 0.123031 0.143214 0.000000
370 0.273007 0.286384 0.000000
371 0.294616 0.269092 0.000000
372 0.229659 0.109559 0.000000
373 0.128559 0.291774 0.000000
374 0.126187 0.173059 0.000000
375 0.116014 0.202384 0.000000
376 0.172148 0.122778 0.000000
377 0.204190 0.122923 0.000000
378 0.163332 0.268241 0.000000
379 0.245126 0.269918 0.000000
380 0.274311 0.156659 0.000000
381 0.271651 0.179479 0.000000
382 0.264696 0.134233 0.000000
383 0.135925 0.267028 0.000000
384 0.297371 0.291436 0.000000
385 0.188962 0.270318 0.000000
386 0.215060 0.270341 0.000000
387 0.130148 0.242823 0.000000
388 0.273568 0.204839 0.000000
389 0.235206 0.133055 0.000000
390 0.151970 0.148493 0.000000
391 0.271766 0.258006 0.000000
392 0.140707 0.195925 0.000000
393 0.273511 0.231130 0.000000
394 0.162412 0.177820 0.000000
395 0.246150 0.162450 0.000000
396 0.136200 0.220023 0.000000
397 0.183726 0.149470 0.000000
398 0.178126 0.249904 0.000000
399 0.155478 0.239758 0.000000
400 0.249691 0.190782 0.000000
401 0.251569 0.243333 0.000000
402 0.160027 0.210189 0.000000
403 0.226433 0.248867 0.000000
404 0.201271 0.248112 0.000000
405 0.214960 0.153824 0.000000
406 0.181539 0.198037 0.000000
407 0.234524 0.228302 0.000000
408 0.252924 0.216861 0.000000
409 0.195103 0.175783 0.000000
410 0.223575 0.180844 0.000000
411 0.184688 0.224255 0.000000
412 0.204826 0.201647 0.000000
413 0.212298 0.226134 0.000000
414 0.229161 0.206064 0.000000
$EndNodes
$Elements
771
1 2 2 1 1  2 36 57
2 2 2 1 1  36 37 85
3 2 2 1 1  37 38 86
4 2 2 1 1  37 86 85
5 2 2 1 1  38 39 87
6 2 2 1 1  38 87 86
7 2 2 1 1  40 41 88
8 2 2 1 1  41 42 89
9 2 2 1 1  41 89 88
10 2 2 1 1  4 89 42
11 2 2 2 2  410 414 412
12 2 2 1 1  4 43 89
13 2 2 1 1  43 44 90
14 2 2 1 1  43 90 89
15 2 2 1 1  44 45 91
16 2 2 1 1  44 91 90
17 2 2 1 1  45 46 92
18 2 2 1 1  45 92 91
19 2 2 1 1  5 93 46
20 2 2 1 1  46 93 92
21 2 2 1 1  5 47 93
22 2 2 1 1  47 48 94
23 2 2 1 1  47 94 93
24 2 2 1 1  48 49 95
25 2 2 1 1  48 95 94
26 2 2 1 1  49 50 96
27 2 2 1 1  49 96 95
28 2 2 1 1  6 97 50
29 2 2 1 1  50 97 96
30 2 2 1 1  6 51 97
31 2 2 1 1  51 52 97
32 2 2 2 2  411 412 413
33 2 2 1 1  52 53 98
34 2 2 1 1  52 98 97
35 2 2 1 1  54 55 99
36 2 2 1 1  55 56 100
37 2 2 1 1  55 100 99
38 2 2 2 2  392 394 402
39 2 2 1 1  57 85 58
40 2 2 1 1  58 101 59
41 2 2 1 1  58 85 101
42 2 2 1 1  59 138 60
43 2 2 1 1  59 101 138
44 2 2 1 1  60 138 61
45 2 2 2 2  359 383 378
46 2 2 1 1  61 102 62
47 2 2 1 1  61 138 102
48 2 2 1 1  62 103 63
49 2 2 1 1  62 102 103
50 2 2 1 1  63 104 64
51 2 2 1 1  63 103 104
52 2 2 1 1  64 105 65
53 2 2 1 1  64 104 105
54 2 2 1 1  65 106 66
55 2 2 1 1  65 105 106
56 2 2 1 1  66 107 67
57 2 2 1 1  66 106 107
58 2 2 1 1  67 108 68
59 2 2 1 1  67 107 108
60 2 2 1 1  68 109 69
61 2 2 1 1  68 108 109
62 2 2 1 1  69 110 70
63 2 2 1 1  69 109 110
64 2 2 1 1  7 70 111
65 2 2 1 1  70 110 111
66 2 2 1 1  7 112 71
67 2 2 1 1  71 113 72
68 2 2 1 1  71 112 113
69 2 2 1 1  72 114 73
70 2 2 1 1  72 113 114
71 2 2 1 1  73 114 74
72 2 2 2 2  392 402 396
73 2 2 1 1  74 115 75
74 2 2 1 1  74 114 115
75 2 2 1 1  75 116 76
76 2 2 1 1  75 115 116
77 2 2 1 1  76 117 77
78 2 2 1 1  76 116 117
79 2 2 1 1  77 118 78
80 2 2 1 1  77 117 118
81 2 2 1 1  78 119 79
82 2 2 1 1  78 118 119
83 2 2 1 1  79 120 80
84 2 2 1 1  79 119 120
85 2 2 1 1  80 121 81
86 2 2 1 1  80 120 121
87 2 2 1 1  81 122 82
88 2 2 1 1  81 121 122
89 2 2 1 1  82 123 83
90 2 2 1 1  82 122 123
91 2 2 1 1  39 40 124
92 2 2 1 1  3 84 56
93 2 2 1 1  53 54 125
94 2 2 1 1  7 111 126
95 2 2 1 1  7 126 112
96 2 2 1 1  40 88 124
97 2 2 2 2  391 401 393
98 2 2 1 1  83 123 84
99 2 2 2 2  376 377 397
100 2 2 1 1  54 99 125
101 2 2 1 1  86 87 127
102 2 2 1 1  85 86 128
103 2 2 1 1  86 127 128
104 2 2 1 1  39 124 87
105 2 2 2 2  412 414 413
106 2 2 1 1  88 89 129
107 2 2 1 1  89 90 129
108 2 2 1 1  90 91 130
109 2 2 1 1  92 93 131
110 2 2 1 1  93 94 131
111 2 2 1 1  95 96 132
112 2 2 1 1  94 95 133
113 2 2 1 1  94 133 131
114 2 2 1 1  95 132 133
115 2 2 1 1  112 134 113
116 2 2 1 1  96 97 135
117 2 2 1 1  96 135 132
118 2 2 2 2  409 410 412
119 2 2 1 1  87 124 127
120 2 2 1 1  97 98 135
121 2 2 1 1  53 125 98
122 2 2 1 1  88 136 124
123 2 2 1 1  99 137 125
124 2 2 1 1  112 126 157
125 2 2 2 2  374 392 375
126 2 2 2 2  381 388 400
127 2 2 2 2  404 411 413
128 2 2 2 2  381 400 395
129 2 2 2 2  406 409 412
130 2 2 1 1  102 139 103
131 2 2 1 1  102 138 139
132 2 2 1 1  103 161 104
133 2 2 1 1  103 139 161
134 2 2 1 1  104 161 105
135 2 2 2 2  369 390 374
136 2 2 1 1  105 161 106
137 2 2 2 2  379 386 403
138 2 2 1 1  106 140 107
139 2 2 1 1  106 161 140
140 2 2 1 1  107 141 108
141 2 2 1 1  107 140 141
142 2 2 1 1  108 141 109
143 2 2 2 2  383 387 399
144 2 2 1 1  109 142 110
145 2 2 1 1  109 141 142
146 2 2 1 1  110 143 111
147 2 2 1 1  110 142 143
148 2 2 1 1  113 144 114
149 2 2 1 1  113 134 144
150 2 2 2 2  378 399 398
151 2 2 2 2  407 413 414
152 2 2 1 1  114 145 115
153 2 2 1 1  114 144 145
154 2 2 1 1  115 146 116
155 2 2 1 1  115 145 146
156 2 2 1 1  116 146 117
157 2 2 2 2  378 383 399
158 2 2 1 1  117 147 118
159 2 2 1 1  117 146 147
160 2 2 1 1  118 147 119
161 2 2 2 2  378 398 385
162 2 2 1 1  119 148 120
163 2 2 1 1  119 147 148
164 2 2 1 1  120 148 121
165 2 2 2 2  390 397 394
166 2 2 1 1  121 149 122
167 2 2 1 1  121 148 149
168 2 2 1 1  122 150 123
169 2 2 1 1  122 149 150
170 2 2 1 1  91 92 151
171 2 2 1 1  91 151 130
172 2 2 1 1  92 131 151
173 2 2 1 1  111 152 126
174 2 2 1 1  111 143 152
175 2 2 1 1  98 125 153
176 2 2 1 1  125 137 168
177 2 2 1 1  90 130 129
178 2 2 1 1  112 157 134
179 2 2 1 1  56 84 100
180 2 2 1 1  126 152 154
181 2 2 1 1  84 123 100
182 2 2 1 1  126 154 157
183 2 2 1 1  124 155 127
184 2 2 1 1  124 136 155
185 2 2 1 1  99 100 150
186 2 2 1 1  100 123 150
187 2 2 1 1  99 150 137
188 2 2 1 1  152 156 154
189 2 2 2 2  407 414 408
190 2 2 1 1  85 128 101
191 2 2 1 1  132 135 158
192 2 2 1 1  88 129 136
193 2 2 1 1  154 173 172
194 2 2 2 2  400 414 410
195 2 2 1 1  138 159 139
196 2 2 1 1  139 160 161
197 2 2 1 1  139 159 160
198 2 2 2 2  376 397 390
199 2 2 2 2  360 371 391
200 2 2 2 2  375 392 396
201 2 2 2 2  400 408 414
202 2 2 1 1  140 161 162
203 2 2 2 2  366 390 369
204 2 2 1 1  140 175 141
205 2 2 1 1  140 162 175
206 2 2 2 2  368 396 387
207 2 2 1 1  141 175 163
208 2 2 1 1  141 163 142
209 2 2 2 2  403 413 407
210 2 2 1 1  142 164 143
211 2 2 1 1  142 163 164
212 2 2 1 1  134 165 144
213 2 2 1 1  134 157 165
214 2 2 2 2  398 399 411
215 2 2 2 2  403 404 413
216 2 2 1 1  144 165 145
217 2 2 2 2  368 375 396
218 2 2 1 1  145 166 146
219 2 2 1 1  145 165 166
220 2 2 2 2  370 391 371
221 2 2 2 2  405 410 409
222 2 2 1 1  146 167 147
223 2 2 1 1  146 166 167
224 2 2 2 2  372 389 377
225 2 2 2 2  398 411 404
226 2 2 1 1  147 168 148
227 2 2 1 1  147 167 168
228 2 2 2 2  382 395 389
229 2 2 2 2  406 412 411
230 2 2 1 1  148 168 149
231 2 2 2 2  395 410 405
232 2 2 1 1  137 150 149
233 2 2 1 1  127 159 128
234 2 2 1 1  98 153 135
235 2 2 1 1  137 149 168
236 2 2 1 1  101 128 138
237 2 2 1 1  132 169 133
238 2 2 2 2  399 402 411
239 2 2 1 1  132 158 169
240 2 2 1 1  128 159 138
241 2 2 2 2  402 406 411
242 2 2 1 1  131 133 151
243 2 2 1 1  129 170 136
244 2 2 1 1  158 165 169
245 2 2 1 1  136 171 178
246 2 2 1 1  136 170 171
247 2 2 2 2  380 395 382
248 2 2 1 1  127 155 159
249 2 2 1 1  143 164 152
250 2 2 1 1  154 156 173
251 2 2 1 1  129 130 170
252 2 2 2 2  380 381 395
253 2 2 1 1  36 85 57
254 2 2 2 2  374 394 392
255 2 2 1 1  133 173 151
256 2 2 1 1  151 173 177
257 2 2 1 1  133 169 173
258 2 2 2 2  395 400 410
259 2 2 1 1  152 174 156
260 2 2 2 2  396 402 399
261 2 2 1 1  161 178 162
262 2 2 2 2  374 390 394
263 2 2 1 1  162 178 175
264 2 2 2 2  366 376 390
265 2 2 2 2  401 407 408
266 2 2 2 2  397 405 409
267 2 2 1 1  163 175 176
268 2 2 1 1  163 176 164
269 2 2 2 2  394 409 406
270 2 2 1 1  152 164 174
271 2 2 1 1  130 177 170
272 2 2 1 1  135 166 158
273 2 2 1 1  125 168 153
274 2 2 1 1  130 151 177
275 2 2 1 1  170 177 176
276 2 2 1 1  155 160 159
277 2 2 1 1  156 177 173
278 2 2 1 1  154 172 157
279 2 2 2 2  394 397 409
280 2 2 1 1  170 176 171
281 2 2 1 1  155 178 160
282 2 2 2 2  393 401 408
283 2 2 2 2  388 408 400
284 2 2 1 1  158 166 165
285 2 2 1 1  156 174 177
286 2 2 1 1  164 176 174
287 2 2 2 2  388 393 408
288 2 2 2 2  401 403 407
289 2 2 2 2  387 396 399
290 2 2 1 1  153 168 167
291 2 2 2 2  360 391 393
292 2 2 1 1  165 172 169
293 2 2 1 1  160 178 161
294 2 2 2 2  367 393 388
295 2 2 2 2  394 406 402
296 2 2 1 1  136 178 155
297 2 2 1 1  169 172 173
298 2 2 2 2  389 395 405
299 2 2 2 2  377 405 397
300 2 2 1 1  171 176 175
301 2 2 1 1  153 167 166
302 2 2 1 1  171 175 178
303 2 2 1 1  174 176 177
304 2 2 2 2  377 389 405
305 2 2 2 2  360 393 367
306 2 2 1 1  157 172 165
307 2 2 1 1  135 153 166
308 2 2 2 2  1 8 35
309 2 2 2 2  8 9 179
310 2 2 2 2  9 10 180
311 2 2 2 2  9 180 179
312 2 2 2 2  10 11 181
313 2 2 2 2  10 181 180
314 2 2 2 2  11 12 182
315 2 2 2 2  11 182 181
316 2 2 2 2  12 13 183
317 2 2 2 2  12 183 182
318 2 2 2 2  13 14 184
319 2 2 2 2  13 184 183
320 2 2 2 2  14 15 185
321 2 2 2 2  14 185 184
322 2 2 2 2  15 16 186
323 2 2 2 2  15 186 185
324 2 2 2 2  16 17 187
325 2 2 2 2  16 187 186
326 2 2 2 2  17 18 188
327 2 2 2 2  17 188 187
328 2 2 2 2  18 19 189
329 2 2 2 2  18 189 188
330 2 2 2 2  19 20 190
331 2 2 2 2  19 190 189
332 2 2 2 2  20 21 191
333 2 2 2 2  20 191 190
334 2 2 2 2  2 192 21
335 2 2 2 2  21 192 191
336 2 2 2 2  2 57 192
337 2 2 2 2  3 22 84
338 2 2 2 2  22 23 193
339 2 2 2 2  23 24 194
340 2 2 2 2  23 194 193
341 2 2 2 2  24 25 195
342 2 2 2 2  24 195 194
343 2 2 2 2  25 26 196
344 2 2 2 2  25 196 195
345 2 2 2 2  26 27 197
346 2 2 2 2  26 197 196
347 2 2 2 2  27 28 198
348 2 2 2 2  27 198 197
349 2 2 2 2  28 29 199
350 2 2 2 2  28 199 198
351 2 2 2 2  29 30 200
352 2 2 2 2  29 200 199
353 2 2 2 2  30 31 201
354 2 2 2 2  30 201 200
355 2 2 2 2  31 32 202
356 2 2 2 2  31 202 201
357 2 2 2 2  32 33 203
358 2 2 2 2  32 203 202
359 2 2 2 2  33 34 204
360 2 2 2 2  33 204 203
361 2 2 2 2  34 35 205
362 2 2 2 2  34 205 204
363 2 2 2 2  22 193 84
364 2 2 2 2  57 58 206
365 2 2 2 2  57 206 192
366 2 2 2 2  58 59 207
367 2 2 2 2  58 207 206
368 2 2 2 2  59 60 208
369 2 2 2 2  59 208 207
370 2 2 2 2  60 61 209
371 2 2 2 2  60 209 208
372 2 2 2 2  61 62 210
373 2 2 2 2  61 210 209
374 2 2 2 2  62 63 211
375 2 2 2 2  62 211 210
376 2 2 2 2  63 64 212
377 2 2 2 2  63 212 211
378 2 2 2 2  64 65 213
379 2 2 2 2  64 213 212
380 2 2 2 2  65 66 214
381 2 2 2 2  65 214 213
382 2 2 2 2  66 67 215
383 2 2 2 2  66 215 214
384 2 2 2 2  67 68 216
385 2 2 2 2  67 216 215
386 2 2 2 2  68 69 217
387 2 2 2 2  68 217 216
388 2 2 2 2  69 70 218
389 2 2 2 2  69 218 217
390 2 2 2 2  7 71 70
391 2 2 2 2  71 72 219
392 2 2 2 2  72 73 220
393 2 2 2 2  72 220 219
394 2 2 2 2  73 74 221
395 2 2 2 2  73 221 220
396 2 2 2 2  74 75 222
397 2 2 2 2  74 222 221
398 2 2 2 2  75 76 223
399 2 2 2 2  75 223 222
400 2 2 2 2  76 77 224
401 2 2 2 2  76 224 223
402 2 2 2 2  77 78 225
403 2 2 2 2  77 225 224
404 2 2 2 2  78 79 226
405 2 2 2 2  78 226 225
406 2 2 2 2  79 80 227
407 2 2 2 2  79 227 226
408 2 2 2 2  80 81 228
409 2 2 2 2  80 228 227
410 2 2 2 2  81 82 229
411 2 2 2 2  81 229 228
412 2 2 2 2  82 83 230
413 2 2 2 2  82 230 229
414 2 2 2 2  83 84 231
415 2 2 2 2  83 231 230
416 2 2 2 2  84 193 231
417 2 2 2 2  8 205 35
418 2 2 2 2  70 71 218
419 2 2 2 2  71 219 218
420 2 2 2 2  180 181 232
421 2 2 2 2  179 180 233
422 2 2 2 2  180 232 233
423 2 2 2 2  182 183 234
424 2 2 2 2  183 184 235
425 2 2 2 2  183 235 234
426 2 2 2 2  184 185 236
427 2 2 2 2  184 236 235
428 2 2 2 2  185 186 237
429 2 2 2 2  185 237 236
430 2 2 2 2  186 187 238
431 2 2 2 2  186 238 237
432 2 2 2 2  187 188 239
433 2 2 2 2  187 239 238
434 2 2 2 2  188 189 240
435 2 2 2 2  188 240 239
436 2 2 2 2  189 190 241
437 2 2 2 2  189 241 240
438 2 2 2 2  190 191 242
439 2 2 2 2  190 242 241
440 2 2 2 2  191 192 206
441 2 2 2 2  191 206 242
442 2 2 2 2  370 371 384
443 2 2 2 2  195 196 243
444 2 2 2 2  206 207 244
445 2 2 2 2  365 382 389
446 2 2 2 2  194 195 245
447 2 2 2 2  195 243 245
448 2 2 2 2  193 194 246
449 2 2 2 2  193 246 231
450 2 2 2 2  194 245 246
451 2 2 2 2  196 197 247
452 2 2 2 2  196 247 243
453 2 2 2 2  197 198 248
454 2 2 2 2  197 248 247
455 2 2 2 2  198 199 249
456 2 2 2 2  198 249 248
457 2 2 2 2  199 200 250
458 2 2 2 2  199 250 249
459 2 2 2 2  200 201 251
460 2 2 2 2  200 251 250
461 2 2 2 2  201 202 252
462 2 2 2 2  201 252 251
463 2 2 2 2  202 203 253
464 2 2 2 2  202 253 252
465 2 2 2 2  203 204 254
466 2 2 2 2  203 254 253
467 2 2 2 2  204 205 255
468 2 2 2 2  8 179 205
469 2 2 2 2  207 208 256
470 2 2 2 2  207 256 244
471 2 2 2 2  208 209 257
472 2 2 2 2  208 257 256
473 2 2 2 2  209 210 258
474 2 2 2 2  209 258 257
475 2 2 2 2  210 211 259
476 2 2 2 2  210 259 258
477 2 2 2 2  211 212 260
478 2 2 2 2  211 260 259
479 2 2 2 2  212 213 261
480 2 2 2 2  212 261 260
481 2 2 2 2  213 214 262
482 2 2 2 2  213 262 261
483 2 2 2 2  214 215 263
484 2 2 2 2  214 263 262
485 2 2 2 2  215 216 264
486 2 2 2 2  215 264 263
487 2 2 2 2  216 217 265
488 2 2 2 2  216 265 264
489 2 2 2 2  379 401 391
490 2 2 2 2  217 218 265
491 2 2 2 2  379 403 401
492 2 2 2 2  221 222 266
493 2 2 2 2  220 221 267
494 2 2 2 2  221 266 267
495 2 2 2 2  219 220 268
496 2 2 2 2  218 219 268
497 2 2 2 2  220 267 268
498 2 2 2 2  222 223 269
499 2 2 2 2  222 269 266
500 2 2 2 2  223 224 270
501 2 2 2 2  223 270 269
502 2 2 2 2  224 225 271
503 2 2 2 2  224 271 270
504 2 2 2 2  225 226 272
505 2 2 2 2  225 272 271
506 2 2 2 2  226 227 273
507 2 2 2 2  226 273 272
508 2 2 2 2  227 228 274
509 2 2 2 2  227 274 273
510 2 2 2 2  228 229 275
511 2 2 2 2  228 275 274
512 2 2 2 2  229 230 276
513 2 2 2 2  229 276 275
514 2 2 2 2  181 182 277
515 2 2 2 2  182 234 277
516 2 2 2 2  204 255 254
517 2 2 2 2  179 255 205
518 2 2 2 2  181 277 232
519 2 2 2 2  230 231 276
520 2 2 2 2  179 233 255
521 2 2 2 2  235 236 278
522 2 2 2 2  234 235 279
523 2 2 2 2  235 278 279
524 2 2 2 2  237 238 280
525 2 2 2 2  238 239 281
526 2 2 2 2  238 281 280
527 2 2 2 2  239 240 282
528 2 2 2 2  239 282 281
529 2 2 2 2  240 241 283
530 2 2 2 2  240 283 282
531 2 2 2 2  241 242 284
532 2 2 2 2  241 284 283
533 2 2 2 2  206 244 242
534 2 2 2 2  242 244 284
535 2 2 2 2  358 383 373
536 2 2 2 2  247 248 285
537 2 2 2 2  243 247 286
538 2 2 2 2  247 285 286
539 2 2 2 2  256 257 287
540 2 2 2 2  243 288 245
541 2 2 2 2  243 286 288
542 2 2 2 2  249 250 289
543 2 2 2 2  250 251 290
544 2 2 2 2  250 290 289
545 2 2 2 2  251 252 291
546 2 2 2 2  252 253 292
547 2 2 2 2  252 292 291
548 2 2 2 2  253 254 293
549 2 2 2 2  253 293 292
550 2 2 2 2  232 277 294
551 2 2 2 2  257 258 295
552 2 2 2 2  257 295 287
553 2 2 2 2  254 255 296
554 2 2 2 2  254 296 293
555 2 2 2 2  233 296 255
556 2 2 2 2  244 256 297
557 2 2 2 2  359 373 383
558 2 2 2 2  256 287 297
559 2 2 2 2  258 259 298
560 2 2 2 2  258 298 295
561 2 2 2 2  259 260 299
562 2 2 2 2  260 261 300
563 2 2 2 2  260 300 299
564 2 2 2 2  261 262 301
565 2 2 2 2  261 301 300
566 2 2 2 2  262 263 302
567 2 2 2 2  262 302 301
568 2 2 2 2  263 264 303
569 2 2 2 2  263 303 302
570 2 2 2 2  264 265 304
571 2 2 2 2  264 304 303
572 2 2 2 2  218 268 265
573 2 2 2 2  269 270 305
574 2 2 2 2  270 271 306
575 2 2 2 2  270 306 305
576 2 2 2 2  266 307 267
577 2 2 2 2  232 296 233
578 2 2 2 2  266 269 308
579 2 2 2 2  269 305 308
580 2 2 2 2  271 272 309
581 2 2 2 2  271 309 306
582 2 2 2 2  272 273 310
583 2 2 2 2  272 310 309
584 2 2 2 2  273 274 311
585 2 2 2 2  273 311 310
586 2 2 2 2  274 275 312
587 2 2 2 2  274 312 311
588 2 2 2 2  275 276 313
589 2 2 2 2  275 313 312
590 2 2 2 2  231 246 276
591 2 2 2 2  234 314 277
592 2 2 2 2  234 279 314
593 2 2 2 2  248 249 315
594 2 2 2 2  248 315 285
595 2 2 2 2  236 237 316
596 2 2 2 2  236 316 278
597 2 2 2 2  237 280 316
598 2 2 2 2  259 299 298
599 2 2 2 2  249 289 315
600 2 2 2 2  251 291 290
601 2 2 2 2  277 314 294
602 2 2 2 2  266 308 307
603 2 2 2 2  265 268 304
604 2 2 2 2  232 294 296
605 2 2 2 2  267 304 268
606 2 2 2 2  246 317 276
607 2 2 2 2  276 317 313
608 2 2 2 2  245 317 246
609 2 2 2 2  267 307 304
610 2 2 2 2  245 288 317
611 2 2 2 2  285 315 318
612 2 2 2 2  281 282 319
613 2 2 2 2  280 281 320
614 2 2 2 2  281 319 320
615 2 2 2 2  283 284 321
616 2 2 2 2  285 322 286
617 2 2 2 2  285 318 322
618 2 2 2 2  293 296 294
619 2 2 2 2  293 294 323
620 2 2 2 2  295 298 324
621 2 2 2 2  304 307 325
622 2 2 2 2  303 304 325
623 2 2 2 2  289 290 326
624 2 2 2 2  292 293 323
625 2 2 2 2  291 292 327
626 2 2 2 2  294 314 323
627 2 2 2 2  298 299 328
628 2 2 2 2  298 328 324
629 2 2 2 2  287 295 329
630 2 2 2 2  295 324 329
631 2 2 2 2  286 330 288
632 2 2 2 2  286 322 330
633 2 2 2 2  301 302 331
634 2 2 2 2  300 301 332
635 2 2 2 2  301 331 332
636 2 2 2 2  299 300 333
637 2 2 2 2  299 333 328
638 2 2 2 2  302 303 334
639 2 2 2 2  302 334 331
640 2 2 2 2  303 325 334
641 2 2 2 2  309 310 335
642 2 2 2 2  288 336 317
643 2 2 2 2  288 330 336
644 2 2 2 2  305 306 337
645 2 2 2 2  313 317 336
646 2 2 2 2  305 338 308
647 2 2 2 2  305 337 338
648 2 2 2 2  306 309 339
649 2 2 2 2  309 335 339
650 2 2 2 2  310 311 340
651 2 2 2 2  310 340 335
652 2 2 2 2  282 283 341
653 2 2 2 2  283 321 341
654 2 2 2 2  289 342 315
655 2 2 2 2  315 342 318
656 2 2 2 2  289 326 342
657 2 2 2 2  311 312 343
658 2 2 2 2  311 343 340
659 2 2 2 2  312 313 344
660 2 2 2 2  312 344 343
661 2 2 2 2  313 336 344
662 2 2 2 2  279 345 314
663 2 2 2 2  278 346 279
664 2 2 2 2  279 346 345
665 2 2 2 2  290 291 347
666 2 2 2 2  290 347 326
667 2 2 2 2  291 327 347
668 2 2 2 2  307 308 348
669 2 2 2 2  307 348 325
670 2 2 2 2  308 338 348
671 2 2 2 2  280 320 349
672 2 2 2 2  280 349 316
673 2 2 2 2  244 297 284
674 2 2 2 2  284 297 321
675 2 2 2 2  370 379 391
676 2 2 2 2  278 316 350
677 2 2 2 2  278 350 346
678 2 2 2 2  316 349 350
679 2 2 2 2  287 329 351
680 2 2 2 2  306 339 337
681 2 2 2 2  292 323 327
682 2 2 2 2  314 345 323
683 2 2 2 2  287 351 297
684 2 2 2 2  282 341 319
685 2 2 2 2  300 332 333
686 2 2 2 2  328 333 352
687 2 2 2 2  337 339 353
688 2 2 2 2  324 328 354
689 2 2 2 2  328 352 354
690 2 2 2 2  335 340 355
691 2 2 2 2  323 345 356
692 2 2 2 2  323 356 327
693 2 2 2 2  324 357 329
694 2 2 2 2  324 354 357
695 2 2 2 2  322 358 330
696 2 2 2 2  330 344 336
697 2 2 2 2  385 398 404
698 2 2 2 2  330 358 344
699 2 2 2 2  340 343 359
700 2 2 2 2  340 359 355
701 2 2 2 2  331 360 332
702 2 2 2 2  319 341 361
703 2 2 2 2  337 362 338
704 2 2 2 2  337 353 362
705 2 2 2 2  335 363 339
706 2 2 2 2  335 355 363
707 2 2 2 2  318 364 322
708 2 2 2 2  322 364 358
709 2 2 2 2  319 365 320
710 2 2 2 2  319 361 365
711 2 2 2 2  345 346 366
712 2 2 2 2  345 366 356
713 2 2 2 2  332 367 333
714 2 2 2 2  333 367 352
715 2 2 2 2  332 360 367
716 2 2 2 2  318 342 368
717 2 2 2 2  318 368 364
718 2 2 2 2  339 363 353
719 2 2 2 2  327 356 369
720 2 2 2 2  327 369 347
721 2 2 2 2  338 370 348
722 2 2 2 2  338 362 370
723 2 2 2 2  331 334 371
724 2 2 2 2  331 371 360
725 2 2 2 2  320 365 372
726 2 2 2 2  320 372 349
727 2 2 2 2  329 357 361
728 2 2 2 2  329 361 351
729 2 2 2 2  343 344 373
730 2 2 2 2  343 373 359
731 2 2 2 2  386 404 403
732 2 2 2 2  321 351 341
733 2 2 2 2  326 347 374
734 2 2 2 2  347 369 374
735 2 2 2 2  326 375 342
736 2 2 2 2  342 375 368
737 2 2 2 2  326 374 375
738 2 2 2 2  341 351 361
739 2 2 2 2  297 351 321
740 2 2 2 2  346 376 366
741 2 2 2 2  346 350 376
742 2 2 2 2  349 377 350
743 2 2 2 2  350 377 376
744 2 2 2 2  349 372 377
745 2 2 2 2  355 359 378
746 2 2 2 2  353 379 362
747 2 2 2 2  354 380 357
748 2 2 2 2  352 381 354
749 2 2 2 2  354 381 380
750 2 2 2 2  357 382 361
751 2 2 2 2  361 382 365
752 2 2 2 2  357 380 382
753 2 2 2 2  358 364 383
754 2 2 2 2  325 384 334
755 2 2 2 2  356 366 369
756 2 2 2 2  325 348 384
757 2 2 2 2  355 385 363
758 2 2 2 2  355 378 385
759 2 2 2 2  353 363 386
760 2 2 2 2  353 386 379
761 2 2 2 2  363 385 386
762 2 2 2 2  348 370 384
763 2 2 2 2  334 384 371
764 2 2 2 2  385 404 386
765 2 2 2 2  362 379 370
766 2 2 2 2  364 368 387
767 2 2 2 2  364 387 383
768 2 2 2 2  344 358 373
769 2 2 2 2  352 367 388
770 2 2 2 2  352 388 381
771 2 2 2 2  365 389 372
$EndElements
