$MeshFormat
2.200000 0 8
$EndMeshFormat
$Nodes
140
1 0.000000 0.000000 0.000000
2 0.400000 0.000000 0.000000
3 0.000000 0.400000 0.000000
4 1.000000 0.000000 0.000000
5 1.000000 1.000000 0.000000
6 0.000000 1.000000 0.000000
7 0.400000 0.400000 0.000000
8 0.060622 0.000000 0.000000
9 0.116475 0.000000 0.000000
10 0.172677 0.000000 0.000000
11 0.232441 0.000000 0.000000
12 0.288294 0.000000 0.000000
13 0.344147 0.000000 0.000000
14 0.000000 0.340059 0.000000
15 0.000000 0.284887 0.000000
16 0.000000 0.229101 0.000000
17 0.000000 0.170186 0.000000
18 0.000000 0.112698 0.000000
19 0.000000 0.055279 0.000000
20 0.470939 0.000000 0.000000
21 0.557602 0.000000 0.000000
22 0.670601 0.000000 0.000000
23 0.817109 0.000000 0.000000
24 1.000000 0.200000 0.000000
25 1.000000 0.400000 0.000000
26 1.000000 0.600000 0.000000
27 1.000000 0.800000 0.000000
28 0.800000 1.000000 0.000000
29 0.600000 1.000000 0.000000
30 0.400000 1.000000 0.000000
31 0.200000 1.000000 0.000000
32 0.000000 0.796463 0.000000
33 0.000000 0.645560 0.000000
34 0.000000 0.536546 0.000000
35 0.000000 0.457915 0.000000
36 0.400000 0.060622 0.000000
37 0.400000 0.116475 0.000000
38 0.400000 0.172677 0.000000
39 0.400000 0.231027 0.000000
40 0.400000 0.286117 0.000000
41 0.400000 0.341206 0.000000
42 0.344828 0.400000 0.000000
43 0.289657 0.400000 0.000000
44 0.229814 0.400000 0.000000
45 0.174544 0.400000 0.000000
46 0.116846 0.400000 0.000000
47 0.060148 0.400000 0.000000
48 0.514267 0.076195 0.000000
49 0.610772 0.104320 0.000000
50 0.730406 0.113796 0.000000
51 0.836494 0.259963 0.000000
52 0.817413 0.492276 0.000000
53 0.869859 0.675670 0.000000
54 0.832637 0.832552 0.000000
55 0.647351 0.830640 0.000000
56 0.456925 0.838041 0.000000
57 0.257229 0.856577 0.000000
58 0.145235 0.709746 0.000000
59 0.099237 0.578650 0.000000
60 0.449341 0.076307 0.000000
61 0.457588 0.136606 0.000000
62 0.455548 0.197819 0.000000
63 0.452213 0.258560 0.000000
64 0.451782 0.317288 0.000000
65 0.453972 0.381490 0.000000
66 0.379228 0.453117 0.000000
67 0.316112 0.451070 0.000000
68 0.261074 0.443253 0.000000
69 0.205972 0.452976 0.000000
70 0.147571 0.448361 0.000000
71 0.082631 0.473354 0.000000
72 0.445378 0.447957 0.000000
73 0.705586 0.662765 0.000000
74 0.677909 0.374208 0.000000
75 0.326672 0.717933 0.000000
76 0.500294 0.647437 0.000000
77 0.345349 0.508520 0.000000
78 0.527440 0.426245 0.000000
79 0.418381 0.523241 0.000000
80 0.521010 0.159039 0.000000
81 0.516947 0.229273 0.000000
82 0.502564 0.288886 0.000000
83 0.525013 0.354111 0.000000
84 0.263544 0.512765 0.000000
85 0.169390 0.515010 0.000000
86 0.684559 0.226959 0.000000
87 0.503906 0.512352 0.000000
88 0.587852 0.203220 0.000000
89 0.223915 0.607223 0.000000
90 0.345156 0.591801 0.000000
91 0.585307 0.283349 0.000000
92 0.628456 0.516631 0.000000
93 0.095407 0.047836 0.000000
94 0.145609 0.049428 0.000000
95 0.198895 0.045491 0.000000
96 0.254500 0.043276 0.000000
97 0.305379 0.041769 0.000000
98 0.355482 0.046457 0.000000
99 0.051608 0.319602 0.000000
100 0.051185 0.258634 0.000000
101 0.052078 0.198922 0.000000
102 0.054609 0.140085 0.000000
103 0.050816 0.077831 0.000000
104 0.360593 0.097976 0.000000
105 0.357349 0.152422 0.000000
106 0.357356 0.205878 0.000000
107 0.358106 0.258121 0.000000
108 0.358394 0.306535 0.000000
109 0.318593 0.345894 0.000000
110 0.254967 0.356492 0.000000
111 0.197466 0.357575 0.000000
112 0.150036 0.362685 0.000000
113 0.103150 0.345728 0.000000
114 0.171749 0.094416 0.000000
115 0.320710 0.079529 0.000000
116 0.102915 0.230508 0.000000
117 0.100445 0.289306 0.000000
118 0.313868 0.186739 0.000000
119 0.315951 0.234493 0.000000
120 0.216292 0.316176 0.000000
121 0.157519 0.313853 0.000000
122 0.271445 0.309409 0.000000
123 0.111021 0.106385 0.000000
124 0.225632 0.087094 0.000000
125 0.276006 0.085025 0.000000
126 0.106843 0.171780 0.000000
127 0.305790 0.130015 0.000000
128 0.315140 0.286894 0.000000
129 0.160607 0.150614 0.000000
130 0.163954 0.212478 0.000000
131 0.269960 0.210907 0.000000
132 0.234925 0.276894 0.000000
133 0.274218 0.258489 0.000000
134 0.189924 0.268705 0.000000
135 0.142569 0.261745 0.000000
136 0.204158 0.129241 0.000000
137 0.251242 0.129849 0.000000
138 0.272447 0.167828 0.000000
139 0.219376 0.178328 0.000000
140 0.224158 0.232361 0.000000
$EndNodes
$Elements
244
1 2 2 1 1  2 20 36
2 2 2 1 1  20 21 48
3 2 2 1 1  21 22 49
4 2 2 1 1  21 49 48
5 2 2 1 1  22 23 50
6 2 2 1 1  22 50 49
7 2 2 1 1  4 24 23
8 2 2 1 1  24 25 51
9 2 2 1 1  25 26 52
10 2 2 1 1  25 52 51
11 2 2 1 1  26 27 53
12 2 2 1 1  26 53 52
13 2 2 1 1  5 54 27
14 2 2 1 1  27 54 53
15 2 2 1 1  5 28 54
16 2 2 1 1  28 29 55
17 2 2 1 1  28 55 54
18 2 2 1 1  29 30 56
19 2 2 1 1  29 56 55
20 2 2 1 1  30 31 57
21 2 2 1 1  30 57 56
22 2 2 1 1  6 32 31
23 2 2 1 1  32 33 58
24 2 2 1 1  33 34 59
25 2 2 1 1  33 59 58
26 2 2 1 1  3 47 35
27 2 2 1 1  36 60 37
28 2 2 1 1  37 61 38
29 2 2 1 1  37 60 61
30 2 2 1 1  38 62 39
31 2 2 1 1  38 61 62
32 2 2 1 1  39 63 40
33 2 2 1 1  39 62 63
34 2 2 1 1  40 64 41
35 2 2 1 1  40 63 64
36 2 2 1 1  7 41 65
37 2 2 1 1  41 64 65
38 2 2 1 1  7 66 42
39 2 2 1 1  42 67 43
40 2 2 1 1  42 66 67
41 2 2 1 1  43 68 44
42 2 2 1 1  43 67 68
43 2 2 1 1  44 69 45
44 2 2 1 1  44 68 69
45 2 2 1 1  45 70 46
46 2 2 1 1  45 69 70
47 2 2 1 1  46 71 47
48 2 2 1 1  46 70 71
49 2 2 1 1  35 47 71
50 2 2 1 1  31 32 57
51 2 2 1 1  32 58 57
52 2 2 1 1  34 35 71
53 2 2 1 1  7 65 72
54 2 2 1 1  7 72 66
55 2 2 1 1  23 24 51
56 2 2 2 2  132 140 133
57 2 2 1 1  53 54 73
58 2 2 1 1  54 55 73
59 2 2 1 1  52 53 73
60 2 2 1 1  51 52 74
61 2 2 1 1  56 57 75
62 2 2 1 1  57 58 75
63 2 2 1 1  55 56 76
64 2 2 1 1  55 76 73
65 2 2 1 1  56 75 76
66 2 2 1 1  66 77 67
67 2 2 1 1  34 71 59
68 2 2 1 1  65 78 72
69 2 2 1 1  20 60 36
70 2 2 1 1  20 48 60
71 2 2 1 1  66 72 79
72 2 2 1 1  66 79 77
73 2 2 1 1  61 80 62
74 2 2 1 1  62 81 63
75 2 2 1 1  62 80 81
76 2 2 1 1  63 82 64
77 2 2 1 1  63 81 82
78 2 2 1 1  64 83 65
79 2 2 1 1  65 83 78
80 2 2 1 1  64 82 83
81 2 2 1 1  67 84 68
82 2 2 1 1  67 77 84
83 2 2 1 1  68 84 69
84 2 2 2 2  137 138 139
85 2 2 1 1  69 85 70
86 2 2 1 1  69 84 85
87 2 2 1 1  48 61 60
88 2 2 1 1  48 80 61
89 2 2 1 1  49 50 86
90 2 2 1 1  52 73 92
91 2 2 1 1  48 49 80
92 2 2 1 1  58 59 89
93 2 2 1 1  72 87 79
94 2 2 2 2  127 138 137
95 2 2 1 1  72 78 87
96 2 2 1 1  51 74 86
97 2 2 1 1  76 79 87
98 2 2 1 1  59 71 85
99 2 2 1 1  49 88 80
100 2 2 1 1  80 88 81
101 2 2 1 1  77 90 84
102 2 2 1 1  59 85 89
103 2 2 1 1  77 79 90
104 2 2 2 2  131 140 139
105 2 2 1 1  76 90 79
106 2 2 1 1  81 91 82
107 2 2 1 1  81 88 91
108 2 2 1 1  70 85 71
109 2 2 1 1  78 92 87
110 2 2 2 2  131 139 138
111 2 2 1 1  82 91 83
112 2 2 2 2  131 133 140
113 2 2 1 1  50 51 86
114 2 2 1 1  75 90 76
115 2 2 1 1  58 89 75
116 2 2 1 1  76 87 92
117 2 2 1 1  74 78 83
118 2 2 1 1  74 92 78
119 2 2 1 1  74 91 86
120 2 2 2 2  136 137 139
121 2 2 1 1  84 90 89
122 2 2 1 1  23 51 50
123 2 2 1 1  73 76 92
124 2 2 1 1  49 86 88
125 2 2 1 1  84 89 85
126 2 2 1 1  52 92 74
127 2 2 2 2  122 132 133
128 2 2 2 2  114 136 129
129 2 2 1 1  74 83 91
130 2 2 2 2  118 131 138
131 2 2 2 2  130 139 140
132 2 2 1 1  75 89 90
133 2 2 1 1  86 91 88
134 2 2 2 2  130 134 135
135 2 2 2 2  129 139 130
136 2 2 2 2  132 134 140
137 2 2 2 2  1 8 19
138 2 2 2 2  8 9 93
139 2 2 2 2  9 10 94
140 2 2 2 2  10 11 95
141 2 2 2 2  11 12 96
142 2 2 2 2  12 13 97
143 2 2 2 2  2 98 13
144 2 2 2 2  13 98 97
145 2 2 2 2  2 36 98
146 2 2 2 2  3 14 47
147 2 2 2 2  14 15 99
148 2 2 2 2  15 16 100
149 2 2 2 2  16 17 101
150 2 2 2 2  17 18 102
151 2 2 2 2  18 19 103
152 2 2 2 2  14 99 47
153 2 2 2 2  36 37 104
154 2 2 2 2  36 104 98
155 2 2 2 2  37 38 105
156 2 2 2 2  37 105 104
157 2 2 2 2  38 39 106
158 2 2 2 2  38 106 105
159 2 2 2 2  39 40 107
160 2 2 2 2  39 107 106
161 2 2 2 2  40 41 108
162 2 2 2 2  40 108 107
163 2 2 2 2  7 42 41
164 2 2 2 2  42 43 109
165 2 2 2 2  43 44 110
166 2 2 2 2  44 45 111
167 2 2 2 2  45 46 112
168 2 2 2 2  46 47 113
169 2 2 2 2  46 113 112
170 2 2 2 2  47 99 113
171 2 2 2 2  8 103 19
172 2 2 2 2  9 94 93
173 2 2 2 2  10 95 94
174 2 2 2 2  11 96 95
175 2 2 2 2  12 97 96
176 2 2 2 2  17 102 101
177 2 2 2 2  15 100 99
178 2 2 2 2  16 101 100
179 2 2 2 2  18 103 102
180 2 2 2 2  41 42 109
181 2 2 2 2  44 111 110
182 2 2 2 2  43 110 109
183 2 2 2 2  45 112 111
184 2 2 2 2  94 95 114
185 2 2 2 2  97 98 115
186 2 2 2 2  98 104 115
187 2 2 2 2  100 101 116
188 2 2 2 2  99 100 117
189 2 2 2 2  99 117 113
190 2 2 2 2  100 116 117
191 2 2 2 2  8 93 103
192 2 2 2 2  105 106 118
193 2 2 2 2  106 107 119
194 2 2 2 2  110 111 120
195 2 2 2 2  111 112 121
196 2 2 2 2  109 110 122
197 2 2 2 2  93 123 103
198 2 2 2 2  95 96 124
199 2 2 2 2  96 97 125
200 2 2 2 2  96 125 124
201 2 2 2 2  97 115 125
202 2 2 2 2  101 102 126
203 2 2 2 2  102 103 123
204 2 2 2 2  104 105 127
205 2 2 2 2  104 127 115
206 2 2 2 2  105 118 127
207 2 2 2 2  93 94 123
208 2 2 2 2  101 126 116
209 2 2 2 2  102 123 126
210 2 2 2 2  111 121 120
211 2 2 2 2  110 120 122
212 2 2 2 2  106 119 118
213 2 2 2 2  94 114 123
214 2 2 2 2  107 108 128
215 2 2 2 2  112 113 121
216 2 2 2 2  109 122 128
217 2 2 2 2  95 124 114
218 2 2 2 2  107 128 119
219 2 2 2 2  123 129 126
220 2 2 2 2  114 129 123
221 2 2 2 2  116 126 130
222 2 2 2 2  126 129 130
223 2 2 2 2  118 119 131
224 2 2 2 2  113 117 121
225 2 2 2 2  120 132 122
226 2 2 2 2  119 128 133
227 2 2 2 2  119 133 131
228 2 2 2 2  122 133 128
229 2 2 2 2  120 121 134
230 2 2 2 2  115 127 125
231 2 2 2 2  130 140 134
232 2 2 2 2  108 109 128
233 2 2 2 2  117 135 121
234 2 2 2 2  120 134 132
235 2 2 2 2  41 109 108
236 2 2 2 2  116 135 117
237 2 2 2 2  114 124 136
238 2 2 2 2  116 130 135
239 2 2 2 2  121 135 134
240 2 2 2 2  124 125 137
241 2 2 2 2  124 137 136
242 2 2 2 2  125 127 137
243 2 2 2 2  118 138 127
244 2 2 2 2  129 136 139
$EndElements
