$MeshFormat
2.2 0 8
$EndMeshFormat
$Nodes
1002
1 0 0 0
2 0 0.125 0
3 0.125 0 0
4 0.125 0.125 0
5 0.25 0 0
6 0 0.25 0
7 0.25 0.125 0
8 0.125 0.25 0
9 0.375 0 0
10 0 0.375 0
11 0.375 0.125 0
12 0.25 0.25 0
13 0.125 0.375 0
14 0.5 0 0
15 0 0.5 0
16 0.5 0.125 0
17 0.375 0.25 0
18 0.25 0.375 0
19 0.125 0.5 0
20 0.625 0 0
21 0 0.625 0
22 0.625 0.125 0
23 0.5 0.25 0
24 0.375 0.375 0
25 0.25 0.5 0
26 0.125 0.625 0
27 0.75 0 0
28 0 0.75 0
29 0.75 0.125 0
30 0.625 0.25 0
31 0.5 0.375 0
32 0.375 0.5 0
33 0.25 0.625 0
34 0.125 0.75 0
35 0.875 0 0
36 0 0.875 0
37 0.875 0.125 0
38 0.75 0.25 0
39 0.625 0.375 0
40 0.5 0.5 0
41 0.375 0.625 0
42 0.25 0.75 0
43 0.125 0.875 0
44 1 0 0
45 0 1 0
46 1 0.125 0
47 0.875 0.25 0
48 0.75 0.375 0
49 0.625 0.5 0
50 0.5 0.625 0
51 0.375 0.75 0
52 0.25 0.875 0
53 0.125 1 0
54 1 0.25 0
55 0.875 0.375 0
56 0.75 0.5 0
57 0.625 0.625 0
58 0.5 0.75 0
59 0.375 0.875 0
60 0.25 1 0
61 1 0.375 0
62 0.875 0.5 0
63 0.75 0.625 0
64 0.625 0.75 0
65 0.5 0.875 0
66 0.375 1 0
67 1 0.5 0
68 0.875 0.625 0
69 0.75 0.75 0
70 0.625 0.875 0
71 0.5 1 0
72 1 0.625 0
73 0.875 0.75 0
74 0.75 0.875 0
75 0.625 1 0
76 1 0.75 0
77 0.875 0.875 0
78 0.75 1 0
79 1 0.875 0
80 0.875 1 0
81 1 1 0
82 0.3125 0.3125 0
83 0.4375 0.3125 0
84 0.5625 0.3125 0
85 0.5625 0.4375 0
86 0.4375 0.5625 0
87 0.6875 0.4375 0
88 0.5625 0.5625 0
89 0.4375 0.6875 0
90 0.6875 0.5625 0
91 0.3125 0.4375 0
92 0.4375 0.4375 0
93 0.3125 0.5625 0
94 0.375 0.3125 0
95 0.3125 0.375 0
96 0.5 0.3125 0
97 0.5625 0.5 0
98 0.5 0.5625 0
99 0.375 0.5625 0
100 0.6875 0.3125 0
101 0.6875 0.375 0
102 0.5625 0.6875 0
103 0.5625 0.625 0
104 0.4375 0.625 0
105 0.3125 0.6875 0
106 0.375 0.6875 0
107 0.5 0.6875 0
108 0.6875 0.5 0
109 0.625 0.5625 0
110 0.4375 0.375 0
111 0.375 0.4375 0
112 0.4375 0.5 0
113 0.40625 0.34375 0
114 0.34375 0.34375 0
115 0.46875 0.34375 0
116 0.5625 0.375 0
117 0.53125 0.34375 0
118 0.53125 0.53125 0
119 0.46875 0.59375 0
120 0.46875 0.53125 0
121 0.53125 0.59375 0
122 0.40625 0.59375 0
123 0.3125 0.5 0
124 0.34375 0.53125 0
125 0.6875 0.6875 0
126 0.625 0.6875 0
127 0.59375 0.65625 0
128 0.40625 0.65625 0
129 0.46875 0.65625 0
130 0.65625 0.53125 0
131 0.6875 0.625 0
132 0.65625 0.59375 0
133 0.625 0.4375 0
134 0.3125 0.625 0
135 0.40625 0.53125 0
136 0.625 0.3125 0
137 0.65625 0.34375 0
138 0.59375 0.59375 0
139 0.34375 0.46875 0
140 0.4375 0.1875 0
141 0.4375 0.25 0
142 0.40625 0.28125 0
143 0.40625 0.3125 0
144 0.40625 0.40625 0
145 0.40625 0.375 0
146 0.34375 0.40625 0
147 0.34375 0.375 0
148 0.1875 0.3125 0
149 0.25 0.3125 0
150 0.28125 0.34375 0
151 0.3125 0.34375 0
152 0.5 0.4375 0
153 0.53125 0.40625 0
154 0.53125 0.375 0
155 0.53125 0.46875 0
156 0.53125 0.5 0
157 0.5 0.53125 0
158 0.46875 0.5625 0
159 0.46875 0.46875 0
160 0.46875 0.5 0
161 0.5 0.59375 0
162 0.40625 0.5625 0
163 0.34375 0.59375 0
164 0.34375 0.5625 0
165 0.65625 0.65625 0
166 0.5625 0.8125 0
167 0.5625 0.75 0
168 0.59375 0.71875 0
169 0.59375 0.6875 0
170 0.40625 0.625 0
171 0.65625 0.46875 0
172 0.65625 0.5 0
173 0.65625 0.5625 0
174 0.625 0.59375 0
175 0.59375 0.53125 0
176 0.65625 0.40625 0
177 0.53125 0.65625 0
178 0.34375 0.65625 0
179 0.40625 0.46875 0
180 0.375 0.34375 0
181 0.59375 0.34375 0
182 0.59375 0.40625 0
183 0.5 0.34375 0
184 0.53125 0.5625 0
185 0.4375 0.59375 0
186 0.625 0.65625 0
187 0.46875 0.625 0
188 0.5 0.65625 0
189 0.4375 0.8125 0
190 0.4375 0.75 0
191 0.46875 0.71875 0
192 0.46875 0.6875 0
193 0.375 0.53125 0
194 0.65625 0.375 0
195 0.34375 0.4375 0
196 0.390625 0.328125 0
197 0.46875 0.28125 0
198 0.4375 0.28125 0
199 0.421875 0.296875 0
200 0.3125 0.1875 0
201 0.3125 0.25 0
202 0.34375 0.28125 0
203 0.375 0.28125 0
204 0.390625 0.296875 0
205 0.40625 0.4375 0
206 0.390625 0.359375 0
207 0.4375 0.34375 0
208 0.421875 0.359375 0
209 0.1875 0.4375 0
210 0.25 0.4375 0
211 0.28125 0.40625 0
212 0.3125 0.40625 0
213 0.375 0.40625 0
214 0.359375 0.390625 0
215 0.34375 0.3125 0
216 0.328125 0.328125 0
217 0.328125 0.359375 0
218 0.28125 0.28125 0
219 0.28125 0.3125 0
220 0.296875 0.328125 0
221 0.53125 0.4375 0
222 0.515625 0.359375 0
223 0.5625 0.34375 0
224 0.546875 0.359375 0
225 0.59375 0.46875 0
226 0.5625 0.46875 0
227 0.546875 0.484375 0
228 0.515625 0.515625 0
229 0.484375 0.515625 0
230 0.4375 0.53125 0
231 0.453125 0.546875 0
232 0.484375 0.578125 0
233 0.46875 0.40625 0
234 0.46875 0.4375 0
235 0.4375 0.46875 0
236 0.453125 0.484375 0
237 0.53125 0.625 0
238 0.515625 0.609375 0
239 0.515625 0.578125 0
240 0.484375 0.609375 0
241 0.1875 0.5625 0
242 0.25 0.5625 0
243 0.28125 0.53125 0
244 0.3125 0.53125 0
245 0.328125 0.546875 0
246 0.359375 0.546875 0
247 0.6875 0.8125 0
248 0.6875 0.75 0
249 0.65625 0.71875 0
250 0.65625 0.6875 0
251 0.65625 0.625 0
252 0.5625 0.65625 0
253 0.578125 0.671875 0
254 0.4375 0.65625 0
255 0.421875 0.640625 0
256 0.421875 0.609375 0
257 0.8125 0.4375 0
258 0.75 0.4375 0
259 0.71875 0.46875 0
260 0.6875 0.46875 0
261 0.65625 0.4375 0
262 0.671875 0.484375 0
263 0.8125 0.5625 0
264 0.75 0.5625 0
265 0.71875 0.59375 0
266 0.6875 0.59375 0
267 0.671875 0.578125 0
268 0.640625 0.578125 0
269 0.59375 0.625 0
270 0.609375 0.609375 0
271 0.46875 0.3125 0
272 0.5625 0.1875 0
273 0.5625 0.25 0
274 0.53125 0.28125 0
275 0.53125 0.3125 0
276 0.5625 0.53125 0
277 0.375 0.65625 0
278 0.40625 0.71875 0
279 0.40625 0.6875 0
280 0.71875 0.53125 0
281 0.6875 0.53125 0
282 0.40625 0.5 0
283 0.8125 0.3125 0
284 0.75 0.3125 0
285 0.71875 0.34375 0
286 0.6875 0.34375 0
287 0.6875 0.1875 0
288 0.6875 0.25 0
289 0.65625 0.28125 0
290 0.65625 0.3125 0
291 0.34375 0.5 0
292 0.28125 0.46875 0
293 0.3125 0.46875 0
294 0.421875 0.328125 0
295 0.5 0.40625 0
296 0.484375 0.546875 0
297 0.5 0.46875 0
298 0.484375 0.484375 0
299 0.421875 0.578125 0
300 0.421875 0.546875 0
301 0.375 0.59375 0
302 0.34375 0.625 0
303 0.28125 0.59375 0
304 0.3125 0.59375 0
305 0.8125 0.6875 0
306 0.75 0.6875 0
307 0.71875 0.65625 0
308 0.6875 0.65625 0
309 0.53125 0.71875 0
310 0.5625 0.71875 0
311 0.578125 0.703125 0
312 0.625 0.46875 0
313 0.640625 0.484375 0
314 0.671875 0.546875 0
315 0.640625 0.609375 0
316 0.59375 0.5625 0
317 0.609375 0.578125 0
318 0.59375 0.5 0
319 0.625 0.40625 0
320 0.375 0.46875 0
321 0.359375 0.359375 0
322 0.59375 0.375 0
323 0.59375 0.4375 0
324 0.515625 0.328125 0
325 0.546875 0.546875 0
326 0.609375 0.671875 0
327 0.640625 0.671875 0
328 0.484375 0.640625 0
329 0.453125 0.609375 0
330 0.484375 0.671875 0
331 0.515625 0.640625 0
332 0.453125 0.671875 0
333 0.5 0.71875 0
334 0.484375 0.703125 0
335 0.390625 0.546875 0
336 0.390625 0.515625 0
337 0.625 0.34375 0
338 0.640625 0.359375 0
339 0.640625 0.390625 0
340 0.359375 0.453125 0
341 0.328125 0.421875 0
342 0.390625 0.3125 0
343 0.359375 0.328125 0
344 0.375 0.328125 0
345 0.390625 0.34375 0
346 0.421875 0.3125 0
347 0.4375 0.40625 0
348 0.421875 0.421875 0
349 0.46875 0.375 0
350 0.453125 0.359375 0
351 0.28125 0.375 0
352 0.296875 0.390625 0
353 0.359375 0.375 0
354 0.3125 0.28125 0
355 0.328125 0.296875 0
356 0.359375 0.296875 0
357 0.328125 0.3125 0
358 0.328125 0.390625 0
359 0.328125 0.375 0
360 0.3125 0.328125 0
361 0.546875 0.453125 0
362 0.484375 0.359375 0
363 0.5 0.359375 0
364 0.578125 0.453125 0
365 0.578125 0.484375 0
366 0.515625 0.484375 0
367 0.53125 0.484375 0
368 0.515625 0.546875 0
369 0.515625 0.53125 0
370 0.484375 0.53125 0
371 0.453125 0.515625 0
372 0.421875 0.515625 0
373 0.46875 0.546875 0
374 0.453125 0.578125 0
375 0.453125 0.5625 0
376 0.5 0.578125 0
377 0.453125 0.453125 0
378 0.421875 0.484375 0
379 0.46875 0.484375 0
380 0.4375 0.484375 0
381 0.546875 0.640625 0
382 0.5 0.609375 0
383 0.515625 0.5625 0
384 0.484375 0.625 0
385 0.46875 0.609375 0
386 0.671875 0.640625 0
387 0.671875 0.609375 0
388 0.578125 0.640625 0
389 0.53125 0.6875 0
390 0.546875 0.671875 0
391 0.5625 0.671875 0
392 0.390625 0.640625 0
393 0.40625 0.640625 0
394 0.421875 0.671875 0
395 0.421875 0.65625 0
396 0.453125 0.640625 0
397 0.4375 0.640625 0
398 0.71875 0.40625 0
399 0.71875 0.4375 0
400 0.703125 0.453125 0
401 0.71875 0.5 0
402 0.703125 0.484375 0
403 0.640625 0.59375 0
404 0.5625 0.59375 0
405 0.390625 0.390625 0
406 0.421875 0.390625 0
407 0.5625 0.40625 0
408 0.546875 0.390625 0
409 0.359375 0.578125 0
410 0.328125 0.578125 0
411 0.625 0.53125 0
412 0.640625 0.515625 0
413 0.671875 0.515625 0
414 0.6875 0.40625 0
415 0.3125 0.8125 0
416 0.3125 0.75 0
417 0.34375 0.71875 0
418 0.34375 0.6875 0
419 0.640625 0.640625 0
420 0.515625 0.671875 0
421 0.671875 0.359375 0
422 0.359375 0.421875 0
423 0.390625 0.453125 0
424 0.375 0.359375 0
425 0.453125 0.328125 0
426 0.40625 0.359375 0
427 0.34375 0.390625 0
428 0.375 0.390625 0
429 0.546875 0.328125 0
430 0.546875 0.375 0
431 0.546875 0.46875 0
432 0.5 0.515625 0
433 0.484375 0.5 0
434 0.46875 0.515625 0
435 0.484375 0.5625 0
436 0.484375 0.59375 0
437 0.453125 0.421875 0
438 0.453125 0.5 0
439 0.546875 0.609375 0
440 0.515625 0.59375 0
441 0.34375 0.546875 0
442 0.28125 0.5625 0
443 0.296875 0.546875 0
444 0.3125 0.546875 0
445 0.671875 0.671875 0
446 0.421875 0.59375 0
447 0.671875 0.453125 0
448 0.671875 0.421875 0
449 0.671875 0.5 0
450 0.65625 0.484375 0
451 0.65625 0.578125 0
452 0.625 0.578125 0
453 0.609375 0.640625 0
454 0.5 0.28125 0
455 0.515625 0.296875 0
456 0.546875 0.515625 0
457 0.578125 0.546875 0
458 0.578125 0.515625 0
459 0.375 0.71875 0
460 0.390625 0.703125 0
461 0.703125 0.515625 0
462 0.71875 0.28125 0
463 0.6875 0.28125 0
464 0.671875 0.296875 0
465 0.59375 0.28125 0
466 0.625 0.28125 0
467 0.640625 0.296875 0
468 0.328125 0.453125 0
469 0.328125 0.484375 0
470 0.28125 0.5 0
471 0.296875 0.484375 0
472 0.4375 0.328125 0
473 0.515625 0.390625 0
474 0.484375 0.421875 0
475 0.484375 0.390625 0
476 0.484375 0.453125 0
477 0.515625 0.453125 0
478 0.484375 0.46875 0
479 0.421875 0.5625 0
480 0.40625 0.546875 0
481 0.421875 0.53125 0
482 0.359375 0.609375 0
483 0.390625 0.578125 0
484 0.328125 0.609375 0
485 0.1875 0.6875 0
486 0.25 0.6875 0
487 0.28125 0.65625 0
488 0.28125 0.625 0
489 0.296875 0.609375 0
490 0.296875 0.578125 0
491 0.640625 0.453125 0
492 0.609375 0.453125 0
493 0.640625 0.46875 0
494 0.625 0.609375 0
495 0.578125 0.578125 0
496 0.59375 0.578125 0
497 0.640625 0.421875 0
498 0.359375 0.484375 0
499 0.578125 0.359375 0
500 0.578125 0.421875 0
501 0.484375 0.328125 0
502 0.5 0.328125 0
503 0.515625 0.3125 0
504 0.53125 0.546875 0
505 0.5625 0.546875 0
506 0.546875 0.53125 0
507 0.625 0.71875 0
508 0.609375 0.703125 0
509 0.609375 0.6875 0
510 0.59375 0.671875 0
511 0.484375 0.65625 0
512 0.453125 0.59375 0
513 0.484375 0.6875 0
514 0.46875 0.671875 0
515 0.5 0.640625 0
516 0.4375 0.71875 0
517 0.453125 0.703125 0
518 0.453125 0.6875 0
519 0.390625 0.53125 0
520 0.390625 0.484375 0
521 0.390625 0.5 0
522 0.59375 0.3125 0
523 0.609375 0.328125 0
524 0.640625 0.328125 0
525 0.640625 0.34375 0
526 0.640625 0.40625 0
527 0.375 0.453125 0
528 0.359375 0.46875 0
529 0.328125 0.4375 0
530 0.3828125 0.3203125 0
531 0.359375 0.34375 0
532 0.34375 0.328125 0
533 0.3828125 0.3359375 0
534 0.3671875 0.3359375 0
535 0.3984375 0.3515625 0
536 0.4296875 0.3203125 0
537 0.421875 0.453125 0
538 0.421875 0.4375 0
539 0.4375 0.421875 0
540 0.421875 0.40625 0
541 0.453125 0.34375 0
542 0.453125 0.390625 0
543 0.453125 0.375 0
544 0.3515625 0.3828125 0
545 0.34375 0.359375 0
546 0.3515625 0.3671875 0
547 0.3671875 0.3671875 0
548 0.3203125 0.3203125 0
549 0.296875 0.296875 0
550 0.3125 0.296875 0
551 0.3203125 0.3046875 0
552 0.3125 0.390625 0
553 0.296875 0.359375 0
554 0.3125 0.359375 0
555 0.3203125 0.3671875 0
556 0.3203125 0.3828125 0
557 0.3359375 0.3828125 0
558 0.296875 0.34375 0
559 0.3046875 0.3359375 0
560 0.296875 0.3125 0
561 0.3046875 0.3203125 0
562 0.328125 0.34375 0
563 0.3203125 0.3359375 0
564 0.546875 0.421875 0
565 0.546875 0.4375 0
566 0.53125 0.453125 0
567 0.484375 0.34375 0
568 0.484375 0.375 0
569 0.46875 0.359375 0
570 0.515625 0.375 0
571 0.5078125 0.3671875 0
572 0.515625 0.34375 0
573 0.5078125 0.3515625 0
574 0.59375 0.453125 0
575 0.5390625 0.4765625 0
576 0.515625 0.5 0
577 0.5234375 0.4921875 0
578 0.5078125 0.5234375 0
579 0.5 0.546875 0
580 0.4921875 0.5390625 0
581 0.4765625 0.5390625 0
582 0.453125 0.53125 0
583 0.40625 0.515625 0
584 0.4375 0.546875 0
585 0.4453125 0.5546875 0
586 0.4921875 0.5703125 0
587 0.453125 0.46875 0
588 0.421875 0.46875 0
589 0.4609375 0.4921875 0
590 0.4765625 0.4765625 0
591 0.4453125 0.4921875 0
592 0.546875 0.625 0
593 0.546875 0.65625 0
594 0.515625 0.625 0
595 0.5078125 0.6171875 0
596 0.4921875 0.6015625 0
597 0.5078125 0.5703125 0
598 0.4765625 0.6171875 0
599 0.4921875 0.6171875 0
600 0.4609375 0.6015625 0
601 0.671875 0.625 0
602 0.71875 0.625 0
603 0.703125 0.640625 0
604 0.6875 0.640625 0
605 0.703125 0.609375 0
606 0.6875 0.609375 0
607 0.578125 0.65625 0
608 0.578125 0.609375 0
609 0.578125 0.625 0
610 0.546875 0.703125 0
611 0.53125 0.671875 0
612 0.5546875 0.6640625 0
613 0.546875 0.6875 0
614 0.5546875 0.6796875 0
615 0.390625 0.671875 0
616 0.390625 0.65625 0
617 0.4140625 0.6484375 0
618 0.390625 0.609375 0
619 0.390625 0.625 0
620 0.3984375 0.6328125 0
621 0.4375 0.671875 0
622 0.40625 0.671875 0
623 0.453125 0.625 0
624 0.4453125 0.6328125 0
625 0.6328125 0.5859375 0
626 0.359375 0.515625 0
627 0.671875 0.390625 0
628 0.40625 0.328125 0
629 0.390625 0.375 0
630 0.4375 0.359375 0
631 0.390625 0.421875 0
632 0.53125 0.359375 0
633 0.546875 0.34375 0
634 0.546875 0.5 0
635 0.53125 0.515625 0
636 0.46875 0.578125 0
637 0.546875 0.578125 0
638 0.53125 0.578125 0
639 0.328125 0.515625 0
640 0.328125 0.53125 0
641 0.71875 0.71875 0
642 0.6875 0.71875 0
643 0.671875 0.703125 0
644 0.671875 0.46875 0
645 0.71875 0.5625 0
646 0.703125 0.578125 0
647 0.6875 0.578125 0
648 0.453125 0.296875 0
649 0.484375 0.296875 0
650 0.421875 0.703125 0
651 0.671875 0.328125 0
652 0.28125 0.4375 0
653 0.296875 0.453125 0
654 0.421875 0.34375 0
655 0.515625 0.421875 0
656 0.40625 0.578125 0
657 0.4375 0.578125 0
658 0.609375 0.484375 0
659 0.625 0.484375 0
660 0.640625 0.546875 0
661 0.65625 0.546875 0
662 0.65625 0.609375 0
663 0.640625 0.625 0
664 0.609375 0.546875 0
665 0.609375 0.421875 0
666 0.609375 0.359375 0
667 0.578125 0.390625 0
668 0.640625 0.703125 0
669 0.640625 0.6875 0
670 0.65625 0.671875 0
671 0.5 0.671875 0
672 0.375 0.546875 0
673 0.375 0.515625 0
674 0.65625 0.359375 0
675 0.625 0.359375 0
676 0.65625 0.390625 0
677 0.328125 0.40625 0
678 0.296875 0.421875 0
679 0.3125 0.421875 0
680 0.40625 0.296875 0
681 0.3984375 0.3046875 0
682 0.4140625 0.3203125 0
683 0.40625 0.421875 0
684 0.34375 0.296875 0
685 0.3359375 0.3046875 0
686 0.4921875 0.3515625 0
687 0.578125 0.46875 0
688 0.5625 0.453125 0
689 0.578125 0.4375 0
690 0.5390625 0.4921875 0
691 0.5234375 0.5234375 0
692 0.4375 0.515625 0
693 0.46875 0.453125 0
694 0.4375 0.453125 0
695 0.4765625 0.4921875 0
696 0.53125 0.640625 0
697 0.59375 0.640625 0
698 0.578125 0.6875 0
699 0.5703125 0.6796875 0
700 0.359375 0.640625 0
701 0.375 0.640625 0
702 0.3984375 0.6484375 0
703 0.421875 0.625 0
704 0.4296875 0.6328125 0
705 0.453125 0.65625 0
706 0.4453125 0.6484375 0
707 0.6484375 0.5859375 0
708 0.6484375 0.6015625 0
709 0.53125 0.390625 0
710 0.34375 0.578125 0
711 0.359375 0.59375 0
712 0.328125 0.5625 0
713 0.328125 0.59375 0
714 0.3125 0.578125 0
715 0.609375 0.515625 0
716 0.625 0.515625 0
717 0.65625 0.515625 0
718 0.703125 0.421875 0
719 0.71875 0.375 0
720 0.703125 0.390625 0
721 0.65625 0.640625 0
722 0.515625 0.65625 0
723 0.703125 0.359375 0
724 0.6875 0.359375 0
725 0.359375 0.40625 0
726 0.3828125 0.3671875 0
727 0.3828125 0.3515625 0
728 0.3671875 0.3515625 0
729 0.453125 0.3125 0
730 0.421875 0.375 0
731 0.4140625 0.3671875 0
732 0.3828125 0.3828125 0
733 0.5546875 0.4609375 0
734 0.4921875 0.5234375 0
735 0.4921875 0.5078125 0
736 0.4765625 0.5078125 0
737 0.5 0.484375 0
738 0.4921875 0.4921875 0
739 0.4765625 0.5234375 0
740 0.4609375 0.5234375 0
741 0.4765625 0.5703125 0
742 0.4921875 0.5546875 0
743 0.46875 0.421875 0
744 0.453125 0.40625 0
745 0.5625 0.609375 0
746 0.5078125 0.6015625 0
747 0.296875 0.515625 0
748 0.296875 0.53125 0
749 0.3046875 0.5390625 0
750 0.296875 0.5625 0
751 0.3046875 0.5546875 0
752 0.671875 0.6875 0
753 0.71875 0.6875 0
754 0.703125 0.671875 0
755 0.6875 0.671875 0
756 0.6875 0.453125 0
757 0.6875 0.484375 0
758 0.6796875 0.4921875 0
759 0.6640625 0.5078125 0
760 0.6640625 0.4765625 0
761 0.671875 0.59375 0
762 0.6640625 0.5859375 0
763 0.640625 0.5625 0
764 0.6328125 0.5703125 0
765 0.609375 0.59375 0
766 0.6171875 0.5859375 0
767 0.609375 0.5625 0
768 0.6171875 0.5703125 0
769 0.609375 0.625 0
770 0.609375 0.65625 0
771 0.5625 0.515625 0
772 0.578125 0.53125 0
773 0.59375 0.546875 0
774 0.578125 0.5 0
775 0.640625 0.3125 0
776 0.34375 0.484375 0
777 0.3125 0.484375 0
778 0.4453125 0.3203125 0
779 0.5 0.390625 0
780 0.515625 0.40625 0
781 0.484375 0.40625 0
782 0.46875 0.390625 0
783 0.484375 0.4375 0
784 0.5 0.453125 0
785 0.515625 0.46875 0
786 0.515625 0.4375 0
787 0.4140625 0.5703125 0
788 0.4296875 0.5546875 0
789 0.4140625 0.5546875 0
790 0.4140625 0.5390625 0
791 0.390625 0.5625 0
792 0.3984375 0.5546875 0
793 0.4296875 0.5234375 0
794 0.34375 0.609375 0
795 0.3125 0.609375 0
796 0.3125 0.65625 0
797 0.65625 0.453125 0
798 0.640625 0.4375 0
799 0.609375 0.46875 0
800 0.6484375 0.4609375 0
801 0.6328125 0.6015625 0
802 0.6171875 0.6171875 0
803 0.6171875 0.6015625 0
804 0.6015625 0.5859375 0
805 0.578125 0.59375 0
806 0.5859375 0.5859375 0
807 0.578125 0.5625 0
808 0.5859375 0.5703125 0
809 0.359375 0.5 0
810 0.59375 0.359375 0
811 0.59375 0.421875 0
812 0.5625 0.28125 0
813 0.546875 0.296875 0
814 0.53125 0.296875 0
815 0.5234375 0.3046875 0
816 0.546875 0.5625 0
817 0.5390625 0.5546875 0
818 0.5703125 0.5546875 0
819 0.5703125 0.5390625 0
820 0.5390625 0.5390625 0
821 0.5390625 0.5234375 0
822 0.625 0.671875 0
823 0.6171875 0.6796875 0
824 0.5859375 0.6640625 0
825 0.4921875 0.6640625 0
826 0.4765625 0.6640625 0
827 0.4375 0.609375 0
828 0.4453125 0.6015625 0
829 0.4921875 0.6796875 0
830 0.515625 0.703125 0
831 0.5 0.703125 0
832 0.4921875 0.6953125 0
833 0.4921875 0.6328125 0
834 0.3984375 0.5234375 0
835 0.3828125 0.5390625 0
836 0.40625 0.484375 0
837 0.390625 0.46875 0
838 0.3984375 0.4921875 0
839 0.578125 0.296875 0
840 0.609375 0.296875 0
841 0.625 0.328125 0
842 0.609375 0.34375 0
843 0.578125 0.328125 0
844 0.59375 0.328125 0
845 0.65625 0.328125 0
846 0.6328125 0.3515625 0
847 0.609375 0.390625 0
848 0.625 0.390625 0
849 0.6328125 0.3984375 0
850 0.625 0.421875 0
851 0.6328125 0.4140625 0
852 0.3828125 0.4609375 0
853 0.3671875 0.4609375 0
854 0.375 0.484375 0
855 0.3671875 0.4765625 0
856 0.3203125 0.4296875 0
857 0.359375 0.3125 0
858 0.3671875 0.3203125 0
859 0.375 0.3203125 0
860 0.3828125 0.328125 0
861 0.3515625 0.3515625 0
862 0.3515625 0.3203125 0
863 0.3515625 0.3359375 0
864 0.3359375 0.3359375 0
865 0.3359375 0.3203125 0
866 0.375 0.3359375 0
867 0.3671875 0.328125 0
868 0.3984375 0.3359375 0
869 0.3984375 0.34375 0
870 0.390625 0.3515625 0
871 0.4140625 0.3515625 0
872 0.40625 0.3515625 0
873 0.40625 0.453125 0
874 0.4140625 0.4453125 0
875 0.4296875 0.4296875 0
876 0.4453125 0.4140625 0
877 0.4140625 0.4140625 0
878 0.4296875 0.4140625 0
879 0.4609375 0.3515625 0
880 0.4453125 0.3515625 0
881 0.4453125 0.3359375 0
882 0.46875 0.328125 0
883 0.4609375 0.3359375 0
884 0.4375 0.390625 0
885 0.4453125 0.3828125 0
886 0.4609375 0.3828125 0
887 0.359375 0.3671875 0
888 0.3515625 0.375 0
889 0.3359375 0.3671875 0
890 0.34375 0.3671875 0
891 0.3515625 0.359375 0
892 0.3203125 0.3125 0
893 0.3125 0.3203125 0
894 0.3203125 0.3984375 0
895 0.296875 0.375 0
896 0.3046875 0.3671875 0
897 0.3046875 0.3515625 0
898 0.328125 0.3671875 0
899 0.3125 0.3671875 0
900 0.328125 0.3828125 0
901 0.3359375 0.375 0
902 0.34375 0.3828125 0
903 0.3046875 0.34375 0
904 0.3046875 0.3046875 0
905 0.3046875 0.3125 0
906 0.3359375 0.3515625 0
907 0.3125 0.3359375 0
908 0.3203125 0.328125 0
909 0.328125 0.3359375 0
910 0.5625 0.421875 0
911 0.5234375 0.4609375 0
912 0.4765625 0.3359375 0
913 0.4921875 0.3359375 0
914 0.4765625 0.3671875 0
915 0.4921875 0.3671875 0
916 0.53125 0.328125 0
917 0.5234375 0.3359375 0
918 0.5 0.3515625 0
919 0.5078125 0.359375 0
920 0.5859375 0.4609375 0
921 0.5859375 0.4453125 0
922 0.609375 0.4375 0
923 0.6015625 0.4453125 0
924 0.5390625 0.484375 0
925 0.5078125 0.5078125 0
926 0.5234375 0.5078125 0
927 0.53125 0.4921875 0
928 0.5234375 0.5 0
929 0.5078125 0.4921875 0
930 0.515625 0.4921875 0
931 0.5078125 0.5390625 0
932 0.5078125 0.53125 0
933 0.5 0.5390625 0
934 0.4765625 0.53125 0
935 0.484375 0.5390625 0
936 0.4765625 0.5546875 0
937 0.4765625 0.546875 0
938 0.4609375 0.5390625 0
939 0.421875 0.5 0
940 0.4140625 0.5078125 0
941 0.4453125 0.5390625 0
942 0.5 0.5703125 0
943 0.4921875 0.5859375 0
944 0.4921875 0.578125 0
945 0.484375 0.5703125 0
946 0.4921875 0.5625 0
947 0.4140625 0.4609375 0
948 0.4296875 0.4609375 0
949 0.4609375 0.5078125 0
950 0.4609375 0.5 0
951 0.453125 0.4921875 0
952 0.4765625 0.4609375 0
953 0.4765625 0.46875 0
954 0.4453125 0.4765625 0
955 0.4453125 0.484375 0
956 0.4453125 0.5078125 0
957 0.4453125 0.5 0
958 0.53125 0.609375 0
959 0.5390625 0.6171875 0
960 0.5390625 0.6640625 0
961 0.5078125 0.609375 0
962 0.4921875 0.609375 0
963 0.4765625 0.6015625 0
964 0.484375 0.6015625 0
965 0.5078125 0.5546875 0
966 0.5078125 0.5625 0
967 0.484375 0.6171875 0
968 0.46875 0.640625 0
969 0.4765625 0.6328125 0
970 0.4765625 0.625 0
971 0.4921875 0.625 0
972 0.4609375 0.5859375 0
973 0.4609375 0.59375 0
974 0.6796875 0.6328125 0
975 0.6796875 0.6171875 0
976 0.671875 0.65625 0
977 0.6796875 0.6484375 0
978 0.703125 0.59375 0
979 0.6953125 0.6015625 0
980 0.5859375 0.6328125 0
981 0.5703125 0.6171875 0
982 0.59375 0.609375 0
983 0.5859375 0.6171875 0
984 0.5390625 0.6796875 0
985 0.515625 0.6875 0
986 0.5234375 0.6796875 0
987 0.5625 0.640625 0
988 0.5546875 0.6484375 0
989 0.5546875 0.65625 0
990 0.5625 0.703125 0
991 0.5546875 0.6953125 0
992 0.5625 0.6796875 0
993 0.390625 0.6875 0
994 0.3984375 0.6640625 0
995 0.4140625 0.6328125 0
996 0.4140625 0.640625 0
997 0.40625 0.609375 0
998 0.390625 0.59375 0
999 0.4375 0.6328125 0
1000 0.4453125 0.6171875 0
1001 0.4453125 0.625 0
1002 0.6328125 0.578125 0
$EndNodes
$Elements
1970
1 2 2 0 0 1 2 3
2 2 2 0 0 2 3 4
3 2 2 0 0 3 4 5
4 2 2 0 0 2 4 6
5 2 2 0 0 4 5 7
6 2 2 0 0 4 6 8
7 2 2 0 0 5 7 9
8 2 2 0 0 4 7 8
9 2 2 0 0 6 8 10
10 2 2 0 0 7 9 11
11 2 2 0 0 7 8 12
12 2 2 0 0 8 10 13
13 2 2 0 0 9 11 14
14 2 2 0 0 10 13 15
15 2 2 0 0 11 14 16
16 2 2 0 0 13 15 19
17 2 2 0 0 14 16 20
18 2 2 0 0 15 19 21
19 2 2 0 0 16 20 22
20 2 2 0 0 19 21 26
21 2 2 0 0 20 22 27
22 2 2 0 0 21 26 28
23 2 2 0 0 22 27 29
24 2 2 0 0 26 28 34
25 2 2 0 0 27 29 35
26 2 2 0 0 28 34 36
27 2 2 0 0 29 35 37
28 2 2 0 0 34 36 43
29 2 2 0 0 35 37 44
30 2 2 0 0 29 37 38
31 2 2 0 0 34 42 43
32 2 2 0 0 36 43 45
33 2 2 0 0 37 44 46
34 2 2 0 0 37 38 47
35 2 2 0 0 42 43 52
36 2 2 0 0 43 45 53
37 2 2 0 0 37 46 47
38 2 2 0 0 43 52 53
39 2 2 0 0 46 47 54
40 2 2 0 0 52 53 60
41 2 2 0 0 47 54 55
42 2 2 0 0 52 59 60
43 2 2 0 0 54 55 61
44 2 2 0 0 59 60 66
45 2 2 0 0 55 61 62
46 2 2 0 0 59 65 66
47 2 2 0 0 61 62 67
48 2 2 0 0 65 66 71
49 2 2 0 0 62 67 68
50 2 2 0 0 65 70 71
51 2 2 0 0 67 68 72
52 2 2 0 0 70 71 75
53 2 2 0 0 68 72 73
54 2 2 0 0 69 73 74
55 2 2 0 0 70 74 75
56 2 2 0 0 72 73 76
57 2 2 0 0 73 74 77
58 2 2 0 0 74 75 78
59 2 2 0 0 73 76 77
60 2 2 0 0 74 77 78
61 2 2 0 0 76 77 79
62 2 2 0 0 77 78 80
63 2 2 0 0 77 79 80
64 2 2 0 0 79 80 81
65 2 2 0 0 16 140 23
66 2 2 0 0 16 140 11
67 2 2 0 0 140 17 11
68 2 2 0 0 17 141 140
69 2 2 0 0 141 23 140
70 2 2 0 0 142 17 141
71 2 2 0 0 148 13 18
72 2 2 0 0 12 148 8
73 2 2 0 0 148 13 8
74 2 2 0 0 18 149 148
75 2 2 0 0 149 12 148
76 2 2 0 0 150 18 149
77 2 2 0 0 166 65 58
78 2 2 0 0 64 166 70
79 2 2 0 0 166 65 70
80 2 2 0 0 58 167 166
81 2 2 0 0 167 64 166
82 2 2 0 0 64 168 167
83 2 2 0 0 189 59 51
84 2 2 0 0 58 189 65
85 2 2 0 0 189 59 65
86 2 2 0 0 51 190 189
87 2 2 0 0 190 58 189
88 2 2 0 0 58 191 190
89 2 2 0 0 23 197 141
90 2 2 0 0 141 198 142
91 2 2 0 0 198 141 197
92 2 2 0 0 83 199 198
93 2 2 0 0 199 142 198
94 2 2 0 0 11 200 17
95 2 2 0 0 11 200 7
96 2 2 0 0 200 12 7
97 2 2 0 0 12 201 200
98 2 2 0 0 201 17 200
99 2 2 0 0 17 202 201
100 2 2 0 0 203 17 142
101 2 2 0 0 203 17 202
102 2 2 0 0 142 204 203
103 2 2 0 0 204 94 203
104 2 2 0 0 209 19 25
105 2 2 0 0 18 209 13
106 2 2 0 0 209 19 13
107 2 2 0 0 25 210 209
108 2 2 0 0 210 18 209
109 2 2 0 0 18 211 210
110 2 2 0 0 12 218 149
111 2 2 0 0 218 12 201
112 2 2 0 0 149 219 150
113 2 2 0 0 219 149 218
114 2 2 0 0 220 150 219
115 2 2 0 0 224 116 223
116 2 2 0 0 227 97 226
117 2 2 0 0 241 26 33
118 2 2 0 0 25 241 19
119 2 2 0 0 241 26 19
120 2 2 0 0 33 242 241
121 2 2 0 0 242 25 241
122 2 2 0 0 25 243 242
123 2 2 0 0 99 246 164
124 2 2 0 0 124 246 193
125 2 2 0 0 247 70 64
126 2 2 0 0 69 247 74
127 2 2 0 0 247 70 74
128 2 2 0 0 64 248 247
129 2 2 0 0 248 69 247
130 2 2 0 0 249 64 248
131 2 2 0 0 55 257 48
132 2 2 0 0 55 257 62
133 2 2 0 0 257 56 62
134 2 2 0 0 56 258 257
135 2 2 0 0 258 48 257
136 2 2 0 0 259 56 258
137 2 2 0 0 62 263 56
138 2 2 0 0 62 263 68
139 2 2 0 0 263 63 68
140 2 2 0 0 63 264 263
141 2 2 0 0 264 56 263
142 2 2 0 0 265 63 264
143 2 2 0 0 90 267 173
144 2 2 0 0 22 272 30
145 2 2 0 0 22 272 16
146 2 2 0 0 272 23 16
147 2 2 0 0 23 273 272
148 2 2 0 0 273 30 272
149 2 2 0 0 274 23 273
150 2 2 0 0 106 277 178
151 2 2 0 0 278 51 190
152 2 2 0 0 56 280 264
153 2 2 0 0 90 281 280
154 2 2 0 0 47 283 38
155 2 2 0 0 47 283 55
156 2 2 0 0 283 48 55
157 2 2 0 0 48 284 283
158 2 2 0 0 284 38 283
159 2 2 0 0 100 285 284
160 2 2 0 0 285 48 284
161 2 2 0 0 100 286 285
162 2 2 0 0 29 287 38
163 2 2 0 0 29 287 22
164 2 2 0 0 287 30 22
165 2 2 0 0 30 288 287
166 2 2 0 0 288 38 287
167 2 2 0 0 289 30 288
168 2 2 0 0 292 25 210
169 2 2 0 0 134 302 178
170 2 2 0 0 303 33 242
171 2 2 0 0 68 305 63
172 2 2 0 0 68 305 73
173 2 2 0 0 305 69 73
174 2 2 0 0 69 306 305
175 2 2 0 0 306 63 305
176 2 2 0 0 63 307 306
177 2 2 0 0 309 58 167
178 2 2 0 0 310 167 168
179 2 2 0 0 167 310 309
180 2 2 0 0 311 168 169
181 2 2 0 0 168 311 310
182 2 2 0 0 313 49 172
183 2 2 0 0 314 90 173
184 2 2 0 0 90 314 281
185 2 2 0 0 314 130 281
186 2 2 0 0 165 327 186
187 2 2 0 0 58 333 191
188 2 2 0 0 58 333 309
189 2 2 0 0 191 334 192
190 2 2 0 0 334 191 333
191 2 2 0 0 338 39 194
192 2 2 0 0 339 39 194
193 2 2 0 0 139 340 195
194 2 2 0 0 340 111 195
195 2 2 0 0 146 341 195
196 2 2 0 0 342 143 196
197 2 2 0 0 342 94 204
198 2 2 0 0 83 346 199
199 2 2 0 0 346 143 199
200 2 2 0 0 18 351 211
201 2 2 0 0 18 351 150
202 2 2 0 0 211 352 212
203 2 2 0 0 352 211 351
204 2 2 0 0 353 24 214
205 2 2 0 0 354 201 202
206 2 2 0 0 201 354 218
207 2 2 0 0 202 355 354
208 2 2 0 0 202 356 203
209 2 2 0 0 356 94 203
210 2 2 0 0 97 365 226
211 2 2 0 0 225 365 318
212 2 2 0 0 367 155 366
213 2 2 0 0 369 118 368
214 2 2 0 0 158 373 231
215 2 2 0 0 375 158 231
216 2 2 0 0 158 375 374
217 2 2 0 0 375 86 374
218 2 2 0 0 161 376 239
219 2 2 0 0 92 377 234
220 2 2 0 0 379 159 236
221 2 2 0 0 112 380 378
222 2 2 0 0 380 235 378
223 2 2 0 0 383 184 239
224 2 2 0 0 184 383 368
225 2 2 0 0 187 385 329
226 2 2 0 0 391 252 253
227 2 2 0 0 394 89 279
228 2 2 0 0 254 395 255
229 2 2 0 0 128 395 394
230 2 2 0 0 395 254 394
231 2 2 0 0 397 254 255
232 2 2 0 0 48 398 258
233 2 2 0 0 258 399 259
234 2 2 0 0 399 258 398
235 2 2 0 0 259 400 260
236 2 2 0 0 87 400 399
237 2 2 0 0 400 259 399
238 2 2 0 0 401 56 259
239 2 2 0 0 401 56 280
240 2 2 0 0 402 259 260
241 2 2 0 0 259 402 401
242 2 2 0 0 402 108 401
243 2 2 0 0 144 405 145
244 2 2 0 0 405 144 213
245 2 2 0 0 406 144 145
246 2 2 0 0 153 408 407
247 2 2 0 0 408 116 407
248 2 2 0 0 409 99 164
249 2 2 0 0 99 409 301
250 2 2 0 0 412 49 172
251 2 2 0 0 412 130 411
252 2 2 0 0 130 413 281
253 2 2 0 0 413 108 281
254 2 2 0 0 415 52 42
255 2 2 0 0 51 415 59
256 2 2 0 0 415 52 59
257 2 2 0 0 42 416 105
258 2 2 0 0 42 416 415
259 2 2 0 0 416 51 415
260 2 2 0 0 51 417 416
261 2 2 0 0 417 105 416
262 2 2 0 0 105 418 178
263 2 2 0 0 418 106 178
264 2 2 0 0 106 418 417
265 2 2 0 0 418 105 417
266 2 2 0 0 57 419 186
267 2 2 0 0 419 165 186
268 2 2 0 0 101 421 194
269 2 2 0 0 137 421 286
270 2 2 0 0 111 422 195
271 2 2 0 0 422 146 195
272 2 2 0 0 422 111 213
273 2 2 0 0 423 111 205
274 2 2 0 0 145 426 206
275 2 2 0 0 146 427 214
276 2 2 0 0 427 146 358
277 2 2 0 0 213 428 214
278 2 2 0 0 428 24 214
279 2 2 0 0 213 428 405
280 2 2 0 0 84 429 223
281 2 2 0 0 84 429 275
282 2 2 0 0 154 430 224
283 2 2 0 0 430 116 224
284 2 2 0 0 154 430 408
285 2 2 0 0 430 116 408
286 2 2 0 0 226 431 227
287 2 2 0 0 155 431 361
288 2 2 0 0 119 436 232
289 2 2 0 0 437 92 234
290 2 2 0 0 121 439 404
291 2 2 0 0 121 440 239
292 2 2 0 0 440 161 239
293 2 2 0 0 440 121 238
294 2 2 0 0 164 441 245
295 2 2 0 0 441 124 245
296 2 2 0 0 124 441 246
297 2 2 0 0 441 164 246
298 2 2 0 0 442 242 243
299 2 2 0 0 242 442 303
300 2 2 0 0 243 443 442
301 2 2 0 0 93 444 245
302 2 2 0 0 444 244 245
303 2 2 0 0 185 446 256
304 2 2 0 0 446 122 256
305 2 2 0 0 122 446 299
306 2 2 0 0 446 185 299
307 2 2 0 0 87 447 261
308 2 2 0 0 176 448 261
309 2 2 0 0 448 87 261
310 2 2 0 0 87 448 414
311 2 2 0 0 448 176 414
312 2 2 0 0 172 449 262
313 2 2 0 0 449 108 413
314 2 2 0 0 450 172 262
315 2 2 0 0 172 450 313
316 2 2 0 0 450 171 313
317 2 2 0 0 451 173 267
318 2 2 0 0 173 451 268
319 2 2 0 0 57 453 186
320 2 2 0 0 454 23 274
321 2 2 0 0 454 23 197
322 2 2 0 0 274 455 454
323 2 2 0 0 455 96 454
324 2 2 0 0 175 458 318
325 2 2 0 0 51 459 278
326 2 2 0 0 51 459 417
327 2 2 0 0 459 106 417
328 2 2 0 0 278 460 279
329 2 2 0 0 106 460 459
330 2 2 0 0 460 278 459
331 2 2 0 0 108 461 281
332 2 2 0 0 461 280 281
333 2 2 0 0 280 461 401
334 2 2 0 0 461 108 401
335 2 2 0 0 38 462 288
336 2 2 0 0 38 462 284
337 2 2 0 0 462 100 284
338 2 2 0 0 288 463 289
339 2 2 0 0 100 463 462
340 2 2 0 0 463 288 462
341 2 2 0 0 289 464 290
342 2 2 0 0 464 100 290
343 2 2 0 0 100 464 463
344 2 2 0 0 464 289 463
345 2 2 0 0 30 465 273
346 2 2 0 0 466 30 289
347 2 2 0 0 466 30 465
348 2 2 0 0 467 289 290
349 2 2 0 0 289 467 466
350 2 2 0 0 467 136 466
351 2 2 0 0 139 468 293
352 2 2 0 0 468 91 293
353 2 2 0 0 468 139 195
354 2 2 0 0 469 139 293
355 2 2 0 0 469 123 291
356 2 2 0 0 25 470 292
357 2 2 0 0 25 470 243
358 2 2 0 0 292 471 293
359 2 2 0 0 123 471 470
360 2 2 0 0 471 292 470
361 2 2 0 0 207 472 294
362 2 2 0 0 474 152 295
363 2 2 0 0 297 478 298
364 2 2 0 0 478 297 476
365 2 2 0 0 479 86 299
366 2 2 0 0 135 480 335
367 2 2 0 0 481 230 300
368 2 2 0 0 481 135 372
369 2 2 0 0 482 41 301
370 2 2 0 0 41 482 302
371 2 2 0 0 99 483 301
372 2 2 0 0 484 134 302
373 2 2 0 0 485 34 42
374 2 2 0 0 33 485 26
375 2 2 0 0 485 34 26
376 2 2 0 0 42 486 105
377 2 2 0 0 42 486 485
378 2 2 0 0 486 33 485
379 2 2 0 0 33 487 486
380 2 2 0 0 487 105 486
381 2 2 0 0 33 488 303
382 2 2 0 0 33 488 487
383 2 2 0 0 488 134 487
384 2 2 0 0 303 489 304
385 2 2 0 0 134 489 488
386 2 2 0 0 489 303 488
387 2 2 0 0 490 303 304
388 2 2 0 0 490 303 442
389 2 2 0 0 133 491 312
390 2 2 0 0 133 492 312
391 2 2 0 0 312 493 313
392 2 2 0 0 493 171 313
393 2 2 0 0 493 312 491
394 2 2 0 0 57 494 315
395 2 2 0 0 495 88 404
396 2 2 0 0 316 496 317
397 2 2 0 0 497 176 261
398 2 2 0 0 499 116 322
399 2 2 0 0 116 499 223
400 2 2 0 0 499 181 223
401 2 2 0 0 182 500 407
402 2 2 0 0 501 96 271
403 2 2 0 0 183 502 324
404 2 2 0 0 502 96 324
405 2 2 0 0 502 96 501
406 2 2 0 0 96 503 324
407 2 2 0 0 503 275 324
408 2 2 0 0 503 96 455
409 2 2 0 0 118 504 368
410 2 2 0 0 504 184 368
411 2 2 0 0 276 505 325
412 2 2 0 0 505 88 325
413 2 2 0 0 506 276 325
414 2 2 0 0 276 506 456
415 2 2 0 0 64 507 168
416 2 2 0 0 64 507 249
417 2 2 0 0 168 508 169
418 2 2 0 0 126 508 507
419 2 2 0 0 508 168 507
420 2 2 0 0 169 509 326
421 2 2 0 0 126 509 508
422 2 2 0 0 509 169 508
423 2 2 0 0 127 510 326
424 2 2 0 0 510 169 326
425 2 2 0 0 169 510 253
426 2 2 0 0 129 511 328
427 2 2 0 0 511 188 328
428 2 2 0 0 185 512 374
429 2 2 0 0 192 513 330
430 2 2 0 0 513 192 334
431 2 2 0 0 514 192 330
432 2 2 0 0 192 514 332
433 2 2 0 0 514 129 332
434 2 2 0 0 188 515 331
435 2 2 0 0 515 50 331
436 2 2 0 0 188 515 328
437 2 2 0 0 516 190 191
438 2 2 0 0 190 516 278
439 2 2 0 0 517 191 192
440 2 2 0 0 191 517 516
441 2 2 0 0 517 89 516
442 2 2 0 0 89 518 332
443 2 2 0 0 518 192 332
444 2 2 0 0 192 518 517
445 2 2 0 0 518 89 517
446 2 2 0 0 519 193 336
447 2 2 0 0 519 135 335
448 2 2 0 0 32 521 336
449 2 2 0 0 521 282 336
450 2 2 0 0 32 521 520
451 2 2 0 0 523 136 522
452 2 2 0 0 525 137 338
453 2 2 0 0 137 525 524
454 2 2 0 0 525 337 524
455 2 2 0 0 176 526 339
456 2 2 0 0 526 176 497
457 2 2 0 0 527 111 340
458 2 2 0 0 527 111 423
459 2 2 0 0 139 528 340
460 2 2 0 0 528 139 498
461 2 2 0 0 529 195 341
462 2 2 0 0 195 529 468
463 2 2 0 0 529 91 468
464 2 2 0 0 196 530 342
465 2 2 0 0 530 94 342
466 2 2 0 0 180 533 345
467 2 2 0 0 533 196 345
468 2 2 0 0 180 534 531
469 2 2 0 0 534 343 531
470 2 2 0 0 535 206 426
471 2 2 0 0 83 536 346
472 2 2 0 0 536 294 346
473 2 2 0 0 83 536 472
474 2 2 0 0 536 294 472
475 2 2 0 0 538 205 348
476 2 2 0 0 538 92 537
477 2 2 0 0 92 539 437
478 2 2 0 0 347 540 406
479 2 2 0 0 540 144 406
480 2 2 0 0 110 543 350
481 2 2 0 0 543 349 350
482 2 2 0 0 214 544 353
483 2 2 0 0 544 214 427
484 2 2 0 0 24 547 353
485 2 2 0 0 321 547 424
486 2 2 0 0 547 24 424
487 2 2 0 0 548 216 357
488 2 2 0 0 549 218 354
489 2 2 0 0 218 549 219
490 2 2 0 0 550 354 355
491 2 2 0 0 354 550 549
492 2 2 0 0 355 551 357
493 2 2 0 0 355 551 550
494 2 2 0 0 551 82 550
495 2 2 0 0 95 552 352
496 2 2 0 0 552 212 352
497 2 2 0 0 553 150 351
498 2 2 0 0 151 554 217
499 2 2 0 0 555 95 359
500 2 2 0 0 555 217 554
501 2 2 0 0 556 95 359
502 2 2 0 0 95 556 552
503 2 2 0 0 556 358 552
504 2 2 0 0 358 557 427
505 2 2 0 0 150 558 220
506 2 2 0 0 558 150 553
507 2 2 0 0 220 559 360
508 2 2 0 0 559 220 558
509 2 2 0 0 219 560 220
510 2 2 0 0 560 219 549
511 2 2 0 0 561 220 360
512 2 2 0 0 561 220 560
513 2 2 0 0 562 151 217
514 2 2 0 0 563 151 562
515 2 2 0 0 153 564 221
516 2 2 0 0 564 153 407
517 2 2 0 0 221 565 361
518 2 2 0 0 565 85 361
519 2 2 0 0 85 565 564
520 2 2 0 0 565 221 564
521 2 2 0 0 155 566 361
522 2 2 0 0 566 221 361
523 2 2 0 0 221 566 477
524 2 2 0 0 567 115 362
525 2 2 0 0 349 568 475
526 2 2 0 0 568 31 475
527 2 2 0 0 115 569 362
528 2 2 0 0 349 569 350
529 2 2 0 0 570 154 222
530 2 2 0 0 31 570 473
531 2 2 0 0 570 154 473
532 2 2 0 0 571 31 363
533 2 2 0 0 222 571 570
534 2 2 0 0 571 31 570
535 2 2 0 0 572 117 222
536 2 2 0 0 572 183 324
537 2 2 0 0 222 573 572
538 2 2 0 0 573 183 572
539 2 2 0 0 574 225 492
540 2 2 0 0 575 155 367
541 2 2 0 0 155 575 431
542 2 2 0 0 575 227 431
543 2 2 0 0 366 577 367
544 2 2 0 0 578 228 369
545 2 2 0 0 228 578 432
546 2 2 0 0 578 157 432
547 2 2 0 0 580 157 370
548 2 2 0 0 580 296 579
549 2 2 0 0 581 120 373
550 2 2 0 0 582 230 371
551 2 2 0 0 135 583 372
552 2 2 0 0 282 583 336
553 2 2 0 0 230 584 300
554 2 2 0 0 231 585 375
555 2 2 0 0 585 86 375
556 2 2 0 0 231 585 584
557 2 2 0 0 585 86 584
558 2 2 0 0 235 587 377
559 2 2 0 0 587 159 377
560 2 2 0 0 159 587 236
561 2 2 0 0 235 588 378
562 2 2 0 0 588 179 378
563 2 2 0 0 236 589 379
564 2 2 0 0 589 160 379
565 2 2 0 0 298 590 379
566 2 2 0 0 590 159 379
567 2 2 0 0 590 298 478
568 2 2 0 0 112 591 380
569 2 2 0 0 237 592 381
570 2 2 0 0 592 103 381
571 2 2 0 0 592 103 439
572 2 2 0 0 593 177 381
573 2 2 0 0 594 237 238
574 2 2 0 0 50 594 331
575 2 2 0 0 594 237 331
576 2 2 0 0 595 50 382
577 2 2 0 0 238 595 594
578 2 2 0 0 595 50 594
579 2 2 0 0 161 596 382
580 2 2 0 0 596 161 436
581 2 2 0 0 239 597 383
582 2 2 0 0 597 239 376
583 2 2 0 0 187 598 385
584 2 2 0 0 598 240 385
585 2 2 0 0 599 50 382
586 2 2 0 0 119 600 385
587 2 2 0 0 600 329 385
588 2 2 0 0 329 600 512
589 2 2 0 0 251 601 386
590 2 2 0 0 251 601 387
591 2 2 0 0 602 63 307
592 2 2 0 0 602 63 265
593 2 2 0 0 603 307 308
594 2 2 0 0 307 603 602
595 2 2 0 0 603 131 602
596 2 2 0 0 308 604 603
597 2 2 0 0 604 131 603
598 2 2 0 0 265 605 602
599 2 2 0 0 605 131 602
600 2 2 0 0 606 266 387
601 2 2 0 0 606 131 605
602 2 2 0 0 127 607 388
603 2 2 0 0 607 252 388
604 2 2 0 0 252 607 253
605 2 2 0 0 103 609 388
606 2 2 0 0 610 309 389
607 2 2 0 0 610 309 310
608 2 2 0 0 177 611 420
609 2 2 0 0 390 612 391
610 2 2 0 0 612 252 391
611 2 2 0 0 612 390 593
612 2 2 0 0 389 613 610
613 2 2 0 0 614 390 391
614 2 2 0 0 390 614 613
615 2 2 0 0 614 102 613
616 2 2 0 0 615 106 277
617 2 2 0 0 616 277 392
618 2 2 0 0 277 616 615
619 2 2 0 0 617 128 393
620 2 2 0 0 128 617 395
621 2 2 0 0 617 255 395
622 2 2 0 0 618 41 301
623 2 2 0 0 41 619 392
624 2 2 0 0 41 619 618
625 2 2 0 0 619 170 618
626 2 2 0 0 392 620 393
627 2 2 0 0 620 170 393
628 2 2 0 0 170 620 619
629 2 2 0 0 620 392 619
630 2 2 0 0 254 621 394
631 2 2 0 0 621 89 394
632 2 2 0 0 89 621 332
633 2 2 0 0 621 254 332
634 2 2 0 0 279 622 394
635 2 2 0 0 622 128 394
636 2 2 0 0 622 279 615
637 2 2 0 0 623 187 396
638 2 2 0 0 623 187 329
639 2 2 0 0 624 396 397
640 2 2 0 0 396 624 623
641 2 2 0 0 174 625 403
642 2 2 0 0 625 268 403
643 2 2 0 0 625 174 452
644 2 2 0 0 626 124 193
645 2 2 0 0 626 124 291
646 2 2 0 0 101 627 194
647 2 2 0 0 176 627 414
648 2 2 0 0 627 101 414
649 2 2 0 0 143 628 196
650 2 2 0 0 113 628 294
651 2 2 0 0 629 145 206
652 2 2 0 0 629 145 405
653 2 2 0 0 110 630 208
654 2 2 0 0 630 207 208
655 2 2 0 0 630 110 350
656 2 2 0 0 144 631 213
657 2 2 0 0 631 111 213
658 2 2 0 0 111 631 205
659 2 2 0 0 117 632 224
660 2 2 0 0 632 154 224
661 2 2 0 0 154 632 222
662 2 2 0 0 632 117 222
663 2 2 0 0 223 633 224
664 2 2 0 0 633 117 224
665 2 2 0 0 117 633 429
666 2 2 0 0 633 223 429
667 2 2 0 0 634 97 227
668 2 2 0 0 156 634 456
669 2 2 0 0 634 97 456
670 2 2 0 0 635 156 456
671 2 2 0 0 636 119 232
672 2 2 0 0 636 158 374
673 2 2 0 0 88 637 404
674 2 2 0 0 637 121 404
675 2 2 0 0 184 638 239
676 2 2 0 0 638 121 239
677 2 2 0 0 121 638 637
678 2 2 0 0 638 184 637
679 2 2 0 0 123 639 244
680 2 2 0 0 124 639 291
681 2 2 0 0 639 123 291
682 2 2 0 0 244 640 245
683 2 2 0 0 640 124 245
684 2 2 0 0 124 640 639
685 2 2 0 0 640 244 639
686 2 2 0 0 69 641 248
687 2 2 0 0 641 69 306
688 2 2 0 0 248 642 249
689 2 2 0 0 125 642 641
690 2 2 0 0 642 248 641
691 2 2 0 0 643 249 250
692 2 2 0 0 125 643 642
693 2 2 0 0 643 249 642
694 2 2 0 0 260 644 262
695 2 2 0 0 171 644 447
696 2 2 0 0 644 260 447
697 2 2 0 0 264 645 265
698 2 2 0 0 90 645 280
699 2 2 0 0 645 264 280
700 2 2 0 0 90 646 645
701 2 2 0 0 646 265 645
702 2 2 0 0 266 647 267
703 2 2 0 0 647 90 267
704 2 2 0 0 90 647 646
705 2 2 0 0 647 266 646
706 2 2 0 0 197 648 271
707 2 2 0 0 197 648 198
708 2 2 0 0 648 83 198
709 2 2 0 0 96 649 271
710 2 2 0 0 649 197 271
711 2 2 0 0 197 649 454
712 2 2 0 0 649 96 454
713 2 2 0 0 89 650 279
714 2 2 0 0 650 278 279
715 2 2 0 0 89 650 516
716 2 2 0 0 650 278 516
717 2 2 0 0 100 651 286
718 2 2 0 0 651 137 286
719 2 2 0 0 100 651 290
720 2 2 0 0 210 652 292
721 2 2 0 0 652 210 211
722 2 2 0 0 91 653 293
723 2 2 0 0 653 292 293
724 2 2 0 0 91 653 652
725 2 2 0 0 653 292 652
726 2 2 0 0 113 654 294
727 2 2 0 0 654 207 294
728 2 2 0 0 207 654 208
729 2 2 0 0 655 152 295
730 2 2 0 0 655 153 221
731 2 2 0 0 122 656 299
732 2 2 0 0 162 656 483
733 2 2 0 0 656 122 483
734 2 2 0 0 185 657 299
735 2 2 0 0 657 86 299
736 2 2 0 0 86 657 374
737 2 2 0 0 657 185 374
738 2 2 0 0 49 658 318
739 2 2 0 0 658 225 318
740 2 2 0 0 49 659 313
741 2 2 0 0 659 312 313
742 2 2 0 0 49 659 658
743 2 2 0 0 659 312 658
744 2 2 0 0 130 660 411
745 2 2 0 0 660 109 411
746 2 2 0 0 173 661 314
747 2 2 0 0 661 130 314
748 2 2 0 0 130 661 660
749 2 2 0 0 661 173 660
750 2 2 0 0 251 662 315
751 2 2 0 0 132 662 387
752 2 2 0 0 662 251 387
753 2 2 0 0 57 663 315
754 2 2 0 0 663 251 315
755 2 2 0 0 57 663 419
756 2 2 0 0 663 251 419
757 2 2 0 0 175 664 411
758 2 2 0 0 664 109 411
759 2 2 0 0 182 665 319
760 2 2 0 0 39 666 322
761 2 2 0 0 182 667 322
762 2 2 0 0 667 116 322
763 2 2 0 0 116 667 407
764 2 2 0 0 667 182 407
765 2 2 0 0 249 668 250
766 2 2 0 0 126 668 507
767 2 2 0 0 668 249 507
768 2 2 0 0 250 669 327
769 2 2 0 0 669 126 327
770 2 2 0 0 126 669 668
771 2 2 0 0 669 250 668
772 2 2 0 0 165 670 327
773 2 2 0 0 670 250 327
774 2 2 0 0 250 670 445
775 2 2 0 0 670 165 445
776 2 2 0 0 107 671 420
777 2 2 0 0 671 188 420
778 2 2 0 0 99 672 335
779 2 2 0 0 99 672 246
780 2 2 0 0 672 193 246
781 2 2 0 0 193 673 336
782 2 2 0 0 673 32 336
783 2 2 0 0 193 673 626
784 2 2 0 0 673 32 626
785 2 2 0 0 194 674 338
786 2 2 0 0 674 137 338
787 2 2 0 0 137 674 421
788 2 2 0 0 674 194 421
789 2 2 0 0 39 675 338
790 2 2 0 0 39 675 666
791 2 2 0 0 675 337 666
792 2 2 0 0 194 676 339
793 2 2 0 0 676 176 339
794 2 2 0 0 176 676 627
795 2 2 0 0 676 194 627
796 2 2 0 0 212 677 341
797 2 2 0 0 677 146 341
798 2 2 0 0 146 677 358
799 2 2 0 0 678 211 212
800 2 2 0 0 211 678 652
801 2 2 0 0 678 91 652
802 2 2 0 0 679 212 341
803 2 2 0 0 212 679 678
804 2 2 0 0 679 91 678
805 2 2 0 0 142 680 204
806 2 2 0 0 143 680 199
807 2 2 0 0 680 142 199
808 2 2 0 0 204 681 342
809 2 2 0 0 681 143 342
810 2 2 0 0 143 681 680
811 2 2 0 0 681 204 680
812 2 2 0 0 294 682 346
813 2 2 0 0 682 143 346
814 2 2 0 0 143 682 628
815 2 2 0 0 682 294 628
816 2 2 0 0 205 683 348
817 2 2 0 0 144 683 631
818 2 2 0 0 683 205 631
819 2 2 0 0 684 202 355
820 2 2 0 0 202 684 356
821 2 2 0 0 684 215 356
822 2 2 0 0 215 685 357
823 2 2 0 0 685 355 357
824 2 2 0 0 355 685 684
825 2 2 0 0 685 215 684
826 2 2 0 0 686 362 363
827 2 2 0 0 362 686 567
828 2 2 0 0 686 183 567
829 2 2 0 0 226 687 364
830 2 2 0 0 225 687 365
831 2 2 0 0 687 226 365
832 2 2 0 0 85 688 364
833 2 2 0 0 688 226 364
834 2 2 0 0 688 85 361
835 2 2 0 0 689 85 364
836 2 2 0 0 85 689 500
837 2 2 0 0 689 323 500
838 2 2 0 0 227 690 634
839 2 2 0 0 690 156 634
840 2 2 0 0 228 691 369
841 2 2 0 0 691 118 369
842 2 2 0 0 118 691 635
843 2 2 0 0 691 228 635
844 2 2 0 0 230 692 371
845 2 2 0 0 112 692 372
846 2 2 0 0 159 693 377
847 2 2 0 0 693 234 377
848 2 2 0 0 234 693 476
849 2 2 0 0 92 694 377
850 2 2 0 0 694 235 377
851 2 2 0 0 694 92 537
852 2 2 0 0 160 695 379
853 2 2 0 0 695 298 379
854 2 2 0 0 298 695 433
855 2 2 0 0 695 160 433
856 2 2 0 0 177 696 381
857 2 2 0 0 696 237 381
858 2 2 0 0 237 696 331
859 2 2 0 0 696 177 331
860 2 2 0 0 697 127 388
861 2 2 0 0 127 697 453
862 2 2 0 0 697 269 453
863 2 2 0 0 698 169 253
864 2 2 0 0 169 698 311
865 2 2 0 0 698 102 311
866 2 2 0 0 253 699 391
867 2 2 0 0 253 699 698
868 2 2 0 0 699 102 698
869 2 2 0 0 700 178 277
870 2 2 0 0 41 700 302
871 2 2 0 0 700 178 302
872 2 2 0 0 277 701 392
873 2 2 0 0 701 41 392
874 2 2 0 0 277 701 700
875 2 2 0 0 701 41 700
876 2 2 0 0 128 702 393
877 2 2 0 0 702 392 393
878 2 2 0 0 392 702 616
879 2 2 0 0 702 128 616
880 2 2 0 0 170 703 256
881 2 2 0 0 703 104 256
882 2 2 0 0 255 704 397
883 2 2 0 0 104 704 703
884 2 2 0 0 704 255 703
885 2 2 0 0 129 705 396
886 2 2 0 0 254 705 332
887 2 2 0 0 705 129 332
888 2 2 0 0 396 706 397
889 2 2 0 0 706 254 397
890 2 2 0 0 254 706 705
891 2 2 0 0 706 396 705
892 2 2 0 0 268 707 403
893 2 2 0 0 707 132 403
894 2 2 0 0 132 707 451
895 2 2 0 0 707 268 451
896 2 2 0 0 132 708 403
897 2 2 0 0 708 315 403
898 2 2 0 0 132 708 662
899 2 2 0 0 708 315 662
900 2 2 0 0 153 709 408
901 2 2 0 0 709 154 408
902 2 2 0 0 154 709 473
903 2 2 0 0 709 153 473
904 2 2 0 0 164 710 409
905 2 2 0 0 710 163 409
906 2 2 0 0 163 710 410
907 2 2 0 0 710 164 410
908 2 2 0 0 163 711 409
909 2 2 0 0 711 301 409
910 2 2 0 0 301 711 482
911 2 2 0 0 711 163 482
912 2 2 0 0 164 712 410
913 2 2 0 0 712 93 410
914 2 2 0 0 93 712 245
915 2 2 0 0 712 164 245
916 2 2 0 0 304 713 410
917 2 2 0 0 713 163 410
918 2 2 0 0 163 713 484
919 2 2 0 0 713 304 484
920 2 2 0 0 93 714 410
921 2 2 0 0 714 304 410
922 2 2 0 0 304 714 490
923 2 2 0 0 714 93 490
924 2 2 0 0 715 175 411
925 2 2 0 0 49 715 318
926 2 2 0 0 715 175 318
927 2 2 0 0 411 716 412
928 2 2 0 0 716 49 412
929 2 2 0 0 411 716 715
930 2 2 0 0 716 49 715
931 2 2 0 0 130 717 413
932 2 2 0 0 172 717 412
933 2 2 0 0 717 130 412
934 2 2 0 0 398 718 414
935 2 2 0 0 718 87 414
936 2 2 0 0 398 718 399
937 2 2 0 0 718 87 399
938 2 2 0 0 719 48 398
939 2 2 0 0 719 48 285
940 2 2 0 0 101 720 414
941 2 2 0 0 720 398 414
942 2 2 0 0 398 720 719
943 2 2 0 0 720 101 719
944 2 2 0 0 251 721 419
945 2 2 0 0 721 165 419
946 2 2 0 0 165 721 386
947 2 2 0 0 721 251 386
948 2 2 0 0 188 722 420
949 2 2 0 0 722 177 420
950 2 2 0 0 177 722 331
951 2 2 0 0 722 188 331
952 2 2 0 0 723 285 286
953 2 2 0 0 285 723 719
954 2 2 0 0 723 101 719
955 2 2 0 0 101 724 421
956 2 2 0 0 724 286 421
957 2 2 0 0 286 724 723
958 2 2 0 0 724 101 723
959 2 2 0 0 213 725 422
960 2 2 0 0 725 146 422
961 2 2 0 0 146 725 214
962 2 2 0 0 725 213 214
963 2 2 0 0 206 726 424
964 2 2 0 0 726 24 424
965 2 2 0 0 206 726 629
966 2 2 0 0 726 24 629
967 2 2 0 0 180 727 424
968 2 2 0 0 727 206 424
969 2 2 0 0 727 180 345
970 2 2 0 0 180 728 424
971 2 2 0 0 728 321 424
972 2 2 0 0 321 728 531
973 2 2 0 0 728 180 531
974 2 2 0 0 271 729 425
975 2 2 0 0 83 729 648
976 2 2 0 0 729 271 648
977 2 2 0 0 730 110 208
978 2 2 0 0 145 730 406
979 2 2 0 0 730 110 406
980 2 2 0 0 145 731 426
981 2 2 0 0 731 208 426
982 2 2 0 0 208 731 730
983 2 2 0 0 731 145 730
984 2 2 0 0 24 732 428
985 2 2 0 0 732 405 428
986 2 2 0 0 405 732 629
987 2 2 0 0 732 24 629
988 2 2 0 0 226 733 431
989 2 2 0 0 733 361 431
990 2 2 0 0 361 733 688
991 2 2 0 0 733 226 688
992 2 2 0 0 229 734 432
993 2 2 0 0 734 157 432
994 2 2 0 0 157 734 370
995 2 2 0 0 734 229 370
996 2 2 0 0 40 735 432
997 2 2 0 0 735 229 432
998 2 2 0 0 40 735 433
999 2 2 0 0 735 229 433
1000 2 2 0 0 229 736 433
1001 2 2 0 0 736 160 433
1002 2 2 0 0 160 736 434
1003 2 2 0 0 736 229 434
1004 2 2 0 0 737 297 298
1005 2 2 0 0 737 297 366
1006 2 2 0 0 40 738 433
1007 2 2 0 0 738 298 433
1008 2 2 0 0 298 738 737
1009 2 2 0 0 738 40 737
1010 2 2 0 0 229 739 434
1011 2 2 0 0 739 120 434
1012 2 2 0 0 229 739 370
1013 2 2 0 0 120 740 434
1014 2 2 0 0 740 371 434
1015 2 2 0 0 371 740 582
1016 2 2 0 0 740 120 582
1017 2 2 0 0 158 741 435
1018 2 2 0 0 232 741 636
1019 2 2 0 0 741 158 636
1020 2 2 0 0 742 296 435
1021 2 2 0 0 296 742 579
1022 2 2 0 0 742 98 579
1023 2 2 0 0 234 743 437
1024 2 2 0 0 743 233 437
1025 2 2 0 0 233 743 474
1026 2 2 0 0 743 234 474
1027 2 2 0 0 744 233 437
1028 2 2 0 0 233 744 542
1029 2 2 0 0 744 347 542
1030 2 2 0 0 103 745 439
1031 2 2 0 0 745 404 439
1032 2 2 0 0 404 745 608
1033 2 2 0 0 238 746 440
1034 2 2 0 0 746 161 440
1035 2 2 0 0 161 746 382
1036 2 2 0 0 747 123 244
1037 2 2 0 0 123 747 470
1038 2 2 0 0 747 243 470
1039 2 2 0 0 243 748 443
1040 2 2 0 0 244 748 747
1041 2 2 0 0 748 243 747
1042 2 2 0 0 443 749 444
1043 2 2 0 0 749 244 444
1044 2 2 0 0 244 749 748
1045 2 2 0 0 749 443 748
1046 2 2 0 0 750 442 443
1047 2 2 0 0 442 750 490
1048 2 2 0 0 750 93 490
1049 2 2 0 0 93 751 444
1050 2 2 0 0 751 443 444
1051 2 2 0 0 443 751 750
1052 2 2 0 0 751 93 750
1053 2 2 0 0 125 752 445
1054 2 2 0 0 752 250 445
1055 2 2 0 0 250 752 643
1056 2 2 0 0 752 125 643
1057 2 2 0 0 753 306 307
1058 2 2 0 0 306 753 641
1059 2 2 0 0 753 125 641
1060 2 2 0 0 307 754 308
1061 2 2 0 0 307 754 753
1062 2 2 0 0 754 125 753
1063 2 2 0 0 308 755 445
1064 2 2 0 0 755 125 445
1065 2 2 0 0 125 755 754
1066 2 2 0 0 755 308 754
1067 2 2 0 0 260 756 447
1068 2 2 0 0 756 87 447
1069 2 2 0 0 87 756 400
1070 2 2 0 0 756 260 400
1071 2 2 0 0 757 260 262
1072 2 2 0 0 260 757 402
1073 2 2 0 0 757 108 402
1074 2 2 0 0 108 758 449
1075 2 2 0 0 758 262 449
1076 2 2 0 0 262 758 757
1077 2 2 0 0 758 108 757
1078 2 2 0 0 413 759 449
1079 2 2 0 0 759 172 449
1080 2 2 0 0 172 759 717
1081 2 2 0 0 759 413 717
1082 2 2 0 0 262 760 450
1083 2 2 0 0 760 171 450
1084 2 2 0 0 171 760 644
1085 2 2 0 0 760 262 644
1086 2 2 0 0 761 266 267
1087 2 2 0 0 266 761 387
1088 2 2 0 0 761 132 387
1089 2 2 0 0 267 762 451
1090 2 2 0 0 762 132 451
1091 2 2 0 0 267 762 761
1092 2 2 0 0 762 132 761
1093 2 2 0 0 763 173 268
1094 2 2 0 0 173 763 660
1095 2 2 0 0 763 109 660
1096 2 2 0 0 109 764 452
1097 2 2 0 0 268 764 763
1098 2 2 0 0 764 109 763
1099 2 2 0 0 765 138 270
1100 2 2 0 0 317 766 452
1101 2 2 0 0 766 174 452
1102 2 2 0 0 174 766 765
1103 2 2 0 0 766 317 765
1104 2 2 0 0 767 316 317
1105 2 2 0 0 316 767 664
1106 2 2 0 0 767 109 664
1107 2 2 0 0 109 768 452
1108 2 2 0 0 768 317 452
1109 2 2 0 0 317 768 767
1110 2 2 0 0 768 109 767
1111 2 2 0 0 269 769 453
1112 2 2 0 0 769 57 453
1113 2 2 0 0 269 769 270
1114 2 2 0 0 127 770 453
1115 2 2 0 0 770 186 453
1116 2 2 0 0 186 770 326
1117 2 2 0 0 770 127 326
1118 2 2 0 0 97 771 456
1119 2 2 0 0 771 276 456
1120 2 2 0 0 276 771 458
1121 2 2 0 0 771 97 458
1122 2 2 0 0 772 175 457
1123 2 2 0 0 175 772 458
1124 2 2 0 0 772 276 458
1125 2 2 0 0 316 773 457
1126 2 2 0 0 773 175 457
1127 2 2 0 0 175 773 664
1128 2 2 0 0 773 316 664
1129 2 2 0 0 97 774 458
1130 2 2 0 0 774 318 458
1131 2 2 0 0 97 774 365
1132 2 2 0 0 774 318 365
1133 2 2 0 0 290 775 467
1134 2 2 0 0 775 136 467
1135 2 2 0 0 136 775 524
1136 2 2 0 0 775 290 524
1137 2 2 0 0 291 776 469
1138 2 2 0 0 776 139 469
1139 2 2 0 0 139 776 498
1140 2 2 0 0 776 291 498
1141 2 2 0 0 123 777 471
1142 2 2 0 0 777 293 471
1143 2 2 0 0 293 777 469
1144 2 2 0 0 777 123 469
1145 2 2 0 0 425 778 472
1146 2 2 0 0 778 83 472
1147 2 2 0 0 83 778 729
1148 2 2 0 0 778 425 729
1149 2 2 0 0 295 779 473
1150 2 2 0 0 779 31 473
1151 2 2 0 0 295 779 475
1152 2 2 0 0 779 31 475
1153 2 2 0 0 153 780 473
1154 2 2 0 0 780 295 473
1155 2 2 0 0 295 780 655
1156 2 2 0 0 780 153 655
1157 2 2 0 0 295 781 474
1158 2 2 0 0 781 233 474
1159 2 2 0 0 233 781 475
1160 2 2 0 0 781 295 475
1161 2 2 0 0 233 782 475
1162 2 2 0 0 782 349 475
1163 2 2 0 0 782 233 542
1164 2 2 0 0 152 783 476
1165 2 2 0 0 783 234 476
1166 2 2 0 0 234 783 474
1167 2 2 0 0 783 152 474
1168 2 2 0 0 297 784 477
1169 2 2 0 0 784 152 477
1170 2 2 0 0 297 784 476
1171 2 2 0 0 784 152 476
1172 2 2 0 0 785 297 477
1173 2 2 0 0 297 785 366
1174 2 2 0 0 785 155 366
1175 2 2 0 0 152 786 477
1176 2 2 0 0 786 221 477
1177 2 2 0 0 221 786 655
1178 2 2 0 0 786 152 655
1179 2 2 0 0 299 787 479
1180 2 2 0 0 787 162 479
1181 2 2 0 0 162 787 656
1182 2 2 0 0 787 299 656
1183 2 2 0 0 300 788 479
1184 2 2 0 0 788 86 479
1185 2 2 0 0 86 788 584
1186 2 2 0 0 788 300 584
1187 2 2 0 0 300 789 480
1188 2 2 0 0 789 162 480
1189 2 2 0 0 162 789 479
1190 2 2 0 0 789 300 479
1191 2 2 0 0 135 790 480
1192 2 2 0 0 790 300 480
1193 2 2 0 0 300 790 481
1194 2 2 0 0 790 135 481
1195 2 2 0 0 791 99 335
1196 2 2 0 0 99 791 483
1197 2 2 0 0 791 162 483
1198 2 2 0 0 162 792 480
1199 2 2 0 0 792 335 480
1200 2 2 0 0 335 792 791
1201 2 2 0 0 792 162 791
1202 2 2 0 0 372 793 481
1203 2 2 0 0 793 230 481
1204 2 2 0 0 230 793 692
1205 2 2 0 0 793 372 692
1206 2 2 0 0 302 794 484
1207 2 2 0 0 794 163 484
1208 2 2 0 0 163 794 482
1209 2 2 0 0 794 302 482
1210 2 2 0 0 304 795 484
1211 2 2 0 0 795 134 484
1212 2 2 0 0 134 795 489
1213 2 2 0 0 795 304 489
1214 2 2 0 0 134 796 487
1215 2 2 0 0 796 105 487
1216 2 2 0 0 105 796 178
1217 2 2 0 0 796 134 178
1218 2 2 0 0 261 797 491
1219 2 2 0 0 171 797 447
1220 2 2 0 0 797 261 447
1221 2 2 0 0 133 798 491
1222 2 2 0 0 798 261 491
1223 2 2 0 0 261 798 497
1224 2 2 0 0 798 133 497
1225 2 2 0 0 225 799 492
1226 2 2 0 0 799 312 492
1227 2 2 0 0 312 799 658
1228 2 2 0 0 799 225 658
1229 2 2 0 0 491 800 493
1230 2 2 0 0 800 171 493
1231 2 2 0 0 171 800 797
1232 2 2 0 0 800 491 797
1233 2 2 0 0 174 801 494
1234 2 2 0 0 801 315 494
1235 2 2 0 0 315 801 403
1236 2 2 0 0 801 174 403
1237 2 2 0 0 270 802 494
1238 2 2 0 0 802 57 494
1239 2 2 0 0 57 802 769
1240 2 2 0 0 802 270 769
1241 2 2 0 0 174 803 494
1242 2 2 0 0 803 270 494
1243 2 2 0 0 270 803 765
1244 2 2 0 0 803 174 765
1245 2 2 0 0 138 804 496
1246 2 2 0 0 804 317 496
1247 2 2 0 0 317 804 765
1248 2 2 0 0 804 138 765
1249 2 2 0 0 404 805 495
1250 2 2 0 0 138 805 608
1251 2 2 0 0 805 404 608
1252 2 2 0 0 495 806 496
1253 2 2 0 0 806 138 496
1254 2 2 0 0 138 806 805
1255 2 2 0 0 806 495 805
1256 2 2 0 0 807 88 495
1257 2 2 0 0 807 316 457
1258 2 2 0 0 316 808 496
1259 2 2 0 0 808 495 496
1260 2 2 0 0 495 808 807
1261 2 2 0 0 808 316 807
1262 2 2 0 0 291 809 498
1263 2 2 0 0 809 32 498
1264 2 2 0 0 291 809 626
1265 2 2 0 0 809 32 626
1266 2 2 0 0 322 810 499
1267 2 2 0 0 810 181 499
1268 2 2 0 0 181 810 666
1269 2 2 0 0 810 322 666
1270 2 2 0 0 323 811 500
1271 2 2 0 0 811 182 500
1272 2 2 0 0 182 811 665
1273 2 2 0 0 811 323 665
1274 2 2 0 0 273 812 274
1275 2 2 0 0 812 273 465
1276 2 2 0 0 813 84 275
1277 2 2 0 0 84 813 812
1278 2 2 0 0 813 274 812
1279 2 2 0 0 274 814 455
1280 2 2 0 0 275 814 813
1281 2 2 0 0 814 274 813
1282 2 2 0 0 455 815 503
1283 2 2 0 0 815 275 503
1284 2 2 0 0 275 815 814
1285 2 2 0 0 815 455 814
1286 2 2 0 0 88 816 325
1287 2 2 0 0 184 816 637
1288 2 2 0 0 816 88 637
1289 2 2 0 0 325 817 504
1290 2 2 0 0 817 184 504
1291 2 2 0 0 184 817 816
1292 2 2 0 0 817 325 816
1293 2 2 0 0 457 818 505
1294 2 2 0 0 818 88 505
1295 2 2 0 0 457 818 807
1296 2 2 0 0 818 88 807
1297 2 2 0 0 276 819 505
1298 2 2 0 0 819 457 505
1299 2 2 0 0 457 819 772
1300 2 2 0 0 819 276 772
1301 2 2 0 0 325 820 506
1302 2 2 0 0 820 118 506
1303 2 2 0 0 118 820 504
1304 2 2 0 0 820 325 504
1305 2 2 0 0 118 821 506
1306 2 2 0 0 821 456 506
1307 2 2 0 0 456 821 635
1308 2 2 0 0 821 118 635
1309 2 2 0 0 822 186 326
1310 2 2 0 0 126 822 327
1311 2 2 0 0 822 186 327
1312 2 2 0 0 126 823 509
1313 2 2 0 0 823 326 509
1314 2 2 0 0 326 823 822
1315 2 2 0 0 823 126 822
1316 2 2 0 0 127 824 510
1317 2 2 0 0 824 253 510
1318 2 2 0 0 127 824 607
1319 2 2 0 0 824 253 607
1320 2 2 0 0 330 825 511
1321 2 2 0 0 825 188 511
1322 2 2 0 0 188 825 671
1323 2 2 0 0 825 330 671
1324 2 2 0 0 129 826 511
1325 2 2 0 0 826 330 511
1326 2 2 0 0 330 826 514
1327 2 2 0 0 826 129 514
1328 2 2 0 0 104 827 256
1329 2 2 0 0 827 185 256
1330 2 2 0 0 185 828 512
1331 2 2 0 0 828 329 512
1332 2 2 0 0 329 828 827
1333 2 2 0 0 828 185 827
1334 2 2 0 0 107 829 513
1335 2 2 0 0 829 330 513
1336 2 2 0 0 330 829 671
1337 2 2 0 0 829 107 671
1338 2 2 0 0 830 309 333
1339 2 2 0 0 309 830 389
1340 2 2 0 0 333 831 334
1341 2 2 0 0 333 831 830
1342 2 2 0 0 831 107 830
1343 2 2 0 0 334 832 513
1344 2 2 0 0 832 107 513
1345 2 2 0 0 107 832 831
1346 2 2 0 0 832 334 831
1347 2 2 0 0 50 833 515
1348 2 2 0 0 833 328 515
1349 2 2 0 0 833 328 384
1350 2 2 0 0 336 834 519
1351 2 2 0 0 834 135 519
1352 2 2 0 0 135 834 583
1353 2 2 0 0 834 336 583
1354 2 2 0 0 335 835 519
1355 2 2 0 0 835 193 519
1356 2 2 0 0 193 835 672
1357 2 2 0 0 835 335 672
1358 2 2 0 0 836 179 520
1359 2 2 0 0 179 836 378
1360 2 2 0 0 836 282 378
1361 2 2 0 0 320 837 520
1362 2 2 0 0 837 179 520
1363 2 2 0 0 179 837 423
1364 2 2 0 0 282 838 521
1365 2 2 0 0 838 520 521
1366 2 2 0 0 520 838 836
1367 2 2 0 0 838 282 836
1368 2 2 0 0 465 839 522
1369 2 2 0 0 839 84 522
1370 2 2 0 0 465 839 812
1371 2 2 0 0 839 84 812
1372 2 2 0 0 136 840 522
1373 2 2 0 0 840 465 522
1374 2 2 0 0 465 840 466
1375 2 2 0 0 840 136 466
1376 2 2 0 0 337 841 523
1377 2 2 0 0 841 136 523
1378 2 2 0 0 337 841 524
1379 2 2 0 0 841 136 524
1380 2 2 0 0 181 842 523
1381 2 2 0 0 842 337 523
1382 2 2 0 0 337 842 666
1383 2 2 0 0 842 181 666
1384 2 2 0 0 84 843 522
1385 2 2 0 0 181 843 223
1386 2 2 0 0 843 84 223
1387 2 2 0 0 522 844 523
1388 2 2 0 0 844 181 523
1389 2 2 0 0 181 844 843
1390 2 2 0 0 844 522 843
1391 2 2 0 0 290 845 524
1392 2 2 0 0 845 137 524
1393 2 2 0 0 137 845 651
1394 2 2 0 0 845 290 651
1395 2 2 0 0 338 846 525
1396 2 2 0 0 846 337 525
1397 2 2 0 0 337 846 675
1398 2 2 0 0 846 338 675
1399 2 2 0 0 847 182 319
1400 2 2 0 0 39 847 322
1401 2 2 0 0 847 182 322
1402 2 2 0 0 848 39 339
1403 2 2 0 0 319 848 847
1404 2 2 0 0 848 39 847
1405 2 2 0 0 319 849 526
1406 2 2 0 0 849 339 526
1407 2 2 0 0 339 849 848
1408 2 2 0 0 849 319 848
1409 2 2 0 0 133 850 497
1410 2 2 0 0 133 850 665
1411 2 2 0 0 850 319 665
1412 2 2 0 0 497 851 526
1413 2 2 0 0 851 319 526
1414 2 2 0 0 319 851 850
1415 2 2 0 0 851 497 850
1416 2 2 0 0 423 852 527
1417 2 2 0 0 852 320 527
1418 2 2 0 0 320 852 837
1419 2 2 0 0 852 423 837
1420 2 2 0 0 320 853 528
1421 2 2 0 0 853 340 528
1422 2 2 0 0 340 853 527
1423 2 2 0 0 853 320 527
1424 2 2 0 0 32 854 498
1425 2 2 0 0 32 854 520
1426 2 2 0 0 854 320 520
1427 2 2 0 0 498 855 528
1428 2 2 0 0 855 320 528
1429 2 2 0 0 320 855 854
1430 2 2 0 0 855 498 854
1431 2 2 0 0 341 856 529
1432 2 2 0 0 856 91 529
1433 2 2 0 0 341 856 679
1434 2 2 0 0 856 91 679
1435 2 2 0 0 215 857 356
1436 2 2 0 0 857 94 356
1437 2 2 0 0 343 858 857
1438 2 2 0 0 858 94 857
1439 2 2 0 0 344 859 530
1440 2 2 0 0 859 94 530
1441 2 2 0 0 344 859 858
1442 2 2 0 0 859 94 858
1443 2 2 0 0 196 860 530
1444 2 2 0 0 860 344 530
1445 2 2 0 0 344 860 533
1446 2 2 0 0 860 196 533
1447 2 2 0 0 114 861 531
1448 2 2 0 0 861 321 531
1449 2 2 0 0 861 114 545
1450 2 2 0 0 343 862 532
1451 2 2 0 0 862 215 532
1452 2 2 0 0 215 862 857
1453 2 2 0 0 862 343 857
1454 2 2 0 0 114 863 532
1455 2 2 0 0 863 343 532
1456 2 2 0 0 343 863 531
1457 2 2 0 0 863 114 531
1458 2 2 0 0 216 864 532
1459 2 2 0 0 864 114 532
1460 2 2 0 0 114 864 562
1461 2 2 0 0 215 865 532
1462 2 2 0 0 865 216 532
1463 2 2 0 0 216 865 357
1464 2 2 0 0 865 215 357
1465 2 2 0 0 180 866 533
1466 2 2 0 0 866 344 533
1467 2 2 0 0 180 866 534
1468 2 2 0 0 866 344 534
1469 2 2 0 0 344 867 534
1470 2 2 0 0 867 343 534
1471 2 2 0 0 343 867 858
1472 2 2 0 0 867 344 858
1473 2 2 0 0 196 868 345
1474 2 2 0 0 113 868 628
1475 2 2 0 0 868 196 628
1476 2 2 0 0 345 869 535
1477 2 2 0 0 869 113 535
1478 2 2 0 0 113 869 868
1479 2 2 0 0 869 345 868
1480 2 2 0 0 206 870 535
1481 2 2 0 0 870 345 535
1482 2 2 0 0 345 870 727
1483 2 2 0 0 870 206 727
1484 2 2 0 0 208 871 426
1485 2 2 0 0 113 871 654
1486 2 2 0 0 871 208 654
1487 2 2 0 0 426 872 535
1488 2 2 0 0 872 113 535
1489 2 2 0 0 113 872 871
1490 2 2 0 0 872 426 871
1491 2 2 0 0 205 873 423
1492 2 2 0 0 873 179 423
1493 2 2 0 0 537 874 538
1494 2 2 0 0 874 205 538
1495 2 2 0 0 205 874 873
1496 2 2 0 0 874 537 873
1497 2 2 0 0 92 875 539
1498 2 2 0 0 875 348 539
1499 2 2 0 0 348 875 538
1500 2 2 0 0 875 92 538
1501 2 2 0 0 347 876 539
1502 2 2 0 0 876 437 539
1503 2 2 0 0 437 876 744
1504 2 2 0 0 876 347 744
1505 2 2 0 0 348 877 540
1506 2 2 0 0 877 144 540
1507 2 2 0 0 144 877 683
1508 2 2 0 0 877 348 683
1509 2 2 0 0 347 878 540
1510 2 2 0 0 878 348 540
1511 2 2 0 0 348 878 539
1512 2 2 0 0 878 347 539
1513 2 2 0 0 350 879 541
1514 2 2 0 0 879 115 541
1515 2 2 0 0 115 879 569
1516 2 2 0 0 879 350 569
1517 2 2 0 0 207 880 541
1518 2 2 0 0 880 350 541
1519 2 2 0 0 350 880 630
1520 2 2 0 0 880 207 630
1521 2 2 0 0 425 881 541
1522 2 2 0 0 881 207 541
1523 2 2 0 0 207 881 472
1524 2 2 0 0 881 425 472
1525 2 2 0 0 882 271 425
1526 2 2 0 0 271 882 501
1527 2 2 0 0 115 883 541
1528 2 2 0 0 883 425 541
1529 2 2 0 0 425 883 882
1530 2 2 0 0 883 115 882
1531 2 2 0 0 347 884 542
1532 2 2 0 0 110 884 406
1533 2 2 0 0 884 347 406
1534 2 2 0 0 542 885 543
1535 2 2 0 0 885 110 543
1536 2 2 0 0 110 885 884
1537 2 2 0 0 885 542 884
1538 2 2 0 0 349 886 543
1539 2 2 0 0 886 542 543
1540 2 2 0 0 542 886 782
1541 2 2 0 0 886 349 782
1542 2 2 0 0 353 887 546
1543 2 2 0 0 887 321 546
1544 2 2 0 0 321 887 547
1545 2 2 0 0 887 353 547
1546 2 2 0 0 147 888 546
1547 2 2 0 0 888 353 546
1548 2 2 0 0 147 888 544
1549 2 2 0 0 888 353 544
1550 2 2 0 0 217 889 545
1551 2 2 0 0 545 890 546
1552 2 2 0 0 890 147 546
1553 2 2 0 0 147 890 889
1554 2 2 0 0 890 545 889
1555 2 2 0 0 321 891 546
1556 2 2 0 0 891 545 546
1557 2 2 0 0 545 891 861
1558 2 2 0 0 891 321 861
1559 2 2 0 0 357 892 548
1560 2 2 0 0 892 82 548
1561 2 2 0 0 82 892 551
1562 2 2 0 0 892 357 551
1563 2 2 0 0 82 893 548
1564 2 2 0 0 893 360 548
1565 2 2 0 0 360 893 561
1566 2 2 0 0 893 82 561
1567 2 2 0 0 358 894 552
1568 2 2 0 0 894 212 552
1569 2 2 0 0 212 894 677
1570 2 2 0 0 894 358 677
1571 2 2 0 0 351 895 553
1572 2 2 0 0 351 895 352
1573 2 2 0 0 895 95 352
1574 2 2 0 0 553 896 554
1575 2 2 0 0 95 896 895
1576 2 2 0 0 896 553 895
1577 2 2 0 0 151 897 554
1578 2 2 0 0 897 553 554
1579 2 2 0 0 553 897 558
1580 2 2 0 0 359 898 555
1581 2 2 0 0 898 217 555
1582 2 2 0 0 217 898 889
1583 2 2 0 0 898 359 889
1584 2 2 0 0 554 899 555
1585 2 2 0 0 899 95 555
1586 2 2 0 0 95 899 896
1587 2 2 0 0 899 554 896
1588 2 2 0 0 359 900 556
1589 2 2 0 0 900 358 556
1590 2 2 0 0 358 900 557
1591 2 2 0 0 900 359 557
1592 2 2 0 0 359 901 557
1593 2 2 0 0 901 147 557
1594 2 2 0 0 359 901 889
1595 2 2 0 0 901 147 889
1596 2 2 0 0 147 902 557
1597 2 2 0 0 902 427 557
1598 2 2 0 0 427 902 544
1599 2 2 0 0 902 147 544
1600 2 2 0 0 558 903 559
1601 2 2 0 0 903 151 559
1602 2 2 0 0 151 903 897
1603 2 2 0 0 903 558 897
1604 2 2 0 0 549 904 560
1605 2 2 0 0 82 904 550
1606 2 2 0 0 904 549 550
1607 2 2 0 0 560 905 561
1608 2 2 0 0 905 82 561
1609 2 2 0 0 82 905 904
1610 2 2 0 0 905 560 904
1611 2 2 0 0 217 906 562
1612 2 2 0 0 906 114 562
1613 2 2 0 0 114 906 545
1614 2 2 0 0 906 217 545
1615 2 2 0 0 360 907 563
1616 2 2 0 0 907 151 563
1617 2 2 0 0 151 907 559
1618 2 2 0 0 907 360 559
1619 2 2 0 0 216 908 563
1620 2 2 0 0 908 360 563
1621 2 2 0 0 360 908 548
1622 2 2 0 0 908 216 548
1623 2 2 0 0 562 909 563
1624 2 2 0 0 909 216 563
1625 2 2 0 0 216 909 864
1626 2 2 0 0 909 562 864
1627 2 2 0 0 407 910 564
1628 2 2 0 0 910 85 564
1629 2 2 0 0 85 910 500
1630 2 2 0 0 910 407 500
1631 2 2 0 0 155 911 566
1632 2 2 0 0 911 477 566
1633 2 2 0 0 477 911 785
1634 2 2 0 0 911 155 785
1635 2 2 0 0 501 912 567
1636 2 2 0 0 912 115 567
1637 2 2 0 0 115 912 882
1638 2 2 0 0 912 501 882
1639 2 2 0 0 183 913 567
1640 2 2 0 0 913 501 567
1641 2 2 0 0 501 913 502
1642 2 2 0 0 913 183 502
1643 2 2 0 0 362 914 568
1644 2 2 0 0 914 349 568
1645 2 2 0 0 349 914 569
1646 2 2 0 0 914 362 569
1647 2 2 0 0 31 915 568
1648 2 2 0 0 915 362 568
1649 2 2 0 0 362 915 363
1650 2 2 0 0 915 31 363
1651 2 2 0 0 275 916 324
1652 2 2 0 0 117 916 429
1653 2 2 0 0 916 275 429
1654 2 2 0 0 324 917 572
1655 2 2 0 0 917 117 572
1656 2 2 0 0 117 917 916
1657 2 2 0 0 917 324 916
1658 2 2 0 0 363 918 573
1659 2 2 0 0 918 183 573
1660 2 2 0 0 363 918 686
1661 2 2 0 0 918 183 686
1662 2 2 0 0 222 919 573
1663 2 2 0 0 919 363 573
1664 2 2 0 0 363 919 571
1665 2 2 0 0 919 222 571
1666 2 2 0 0 364 920 574
1667 2 2 0 0 920 225 574
1668 2 2 0 0 225 920 687
1669 2 2 0 0 920 364 687
1670 2 2 0 0 323 921 574
1671 2 2 0 0 921 364 574
1672 2 2 0 0 364 921 689
1673 2 2 0 0 921 323 689
1674 2 2 0 0 133 922 492
1675 2 2 0 0 323 922 665
1676 2 2 0 0 922 133 665
1677 2 2 0 0 492 923 574
1678 2 2 0 0 923 323 574
1679 2 2 0 0 323 923 922
1680 2 2 0 0 923 492 922
1681 2 2 0 0 367 924 575
1682 2 2 0 0 924 227 575
1683 2 2 0 0 227 924 690
1684 2 2 0 0 924 367 690
1685 2 2 0 0 228 925 576
1686 2 2 0 0 925 40 576
1687 2 2 0 0 40 925 432
1688 2 2 0 0 925 228 432
1689 2 2 0 0 926 228 576
1690 2 2 0 0 228 926 635
1691 2 2 0 0 926 156 635
1692 2 2 0 0 156 927 577
1693 2 2 0 0 927 367 577
1694 2 2 0 0 367 927 690
1695 2 2 0 0 927 156 690
1696 2 2 0 0 576 928 577
1697 2 2 0 0 928 156 577
1698 2 2 0 0 576 928 926
1699 2 2 0 0 928 156 926
1700 2 2 0 0 929 40 576
1701 2 2 0 0 366 929 737
1702 2 2 0 0 929 40 737
1703 2 2 0 0 366 930 577
1704 2 2 0 0 930 576 577
1705 2 2 0 0 576 930 929
1706 2 2 0 0 930 366 929
1707 2 2 0 0 368 931 369
1708 2 2 0 0 931 368 579
1709 2 2 0 0 369 932 578
1710 2 2 0 0 932 157 578
1711 2 2 0 0 157 932 931
1712 2 2 0 0 932 369 931
1713 2 2 0 0 579 933 580
1714 2 2 0 0 933 157 580
1715 2 2 0 0 579 933 931
1716 2 2 0 0 933 157 931
1717 2 2 0 0 370 934 581
1718 2 2 0 0 934 120 581
1719 2 2 0 0 120 934 739
1720 2 2 0 0 934 370 739
1721 2 2 0 0 296 935 581
1722 2 2 0 0 935 370 581
1723 2 2 0 0 370 935 580
1724 2 2 0 0 935 296 580
1725 2 2 0 0 158 936 373
1726 2 2 0 0 296 936 435
1727 2 2 0 0 936 158 435
1728 2 2 0 0 373 937 581
1729 2 2 0 0 937 296 581
1730 2 2 0 0 296 937 936
1731 2 2 0 0 937 373 936
1732 2 2 0 0 120 938 582
1733 2 2 0 0 938 231 582
1734 2 2 0 0 120 938 373
1735 2 2 0 0 938 231 373
1736 2 2 0 0 939 112 372
1737 2 2 0 0 282 939 378
1738 2 2 0 0 939 112 378
1739 2 2 0 0 282 940 583
1740 2 2 0 0 940 372 583
1741 2 2 0 0 372 940 939
1742 2 2 0 0 940 282 939
1743 2 2 0 0 230 941 584
1744 2 2 0 0 941 231 584
1745 2 2 0 0 231 941 582
1746 2 2 0 0 941 230 582
1747 2 2 0 0 376 942 586
1748 2 2 0 0 942 98 586
1749 2 2 0 0 376 942 597
1750 2 2 0 0 942 98 597
1751 2 2 0 0 943 161 376
1752 2 2 0 0 161 943 436
1753 2 2 0 0 943 232 436
1754 2 2 0 0 232 944 586
1755 2 2 0 0 944 376 586
1756 2 2 0 0 376 944 943
1757 2 2 0 0 944 232 943
1758 2 2 0 0 435 945 586
1759 2 2 0 0 945 232 586
1760 2 2 0 0 232 945 741
1761 2 2 0 0 945 435 741
1762 2 2 0 0 98 946 586
1763 2 2 0 0 946 435 586
1764 2 2 0 0 435 946 742
1765 2 2 0 0 946 98 742
1766 2 2 0 0 537 947 588
1767 2 2 0 0 947 179 588
1768 2 2 0 0 537 947 873
1769 2 2 0 0 947 179 873
1770 2 2 0 0 235 948 588
1771 2 2 0 0 948 537 588
1772 2 2 0 0 537 948 694
1773 2 2 0 0 948 235 694
1774 2 2 0 0 949 371 438
1775 2 2 0 0 371 949 434
1776 2 2 0 0 949 160 434
1777 2 2 0 0 438 950 589
1778 2 2 0 0 950 160 589
1779 2 2 0 0 438 950 949
1780 2 2 0 0 950 160 949
1781 2 2 0 0 236 951 589
1782 2 2 0 0 951 438 589
1783 2 2 0 0 438 951 591
1784 2 2 0 0 951 236 591
1785 2 2 0 0 476 952 478
1786 2 2 0 0 159 952 693
1787 2 2 0 0 952 476 693
1788 2 2 0 0 478 953 590
1789 2 2 0 0 953 159 590
1790 2 2 0 0 159 953 952
1791 2 2 0 0 953 478 952
1792 2 2 0 0 954 235 380
1793 2 2 0 0 235 954 587
1794 2 2 0 0 954 236 587
1795 2 2 0 0 236 955 591
1796 2 2 0 0 955 380 591
1797 2 2 0 0 380 955 954
1798 2 2 0 0 955 236 954
1799 2 2 0 0 371 956 438
1800 2 2 0 0 112 956 692
1801 2 2 0 0 956 371 692
1802 2 2 0 0 112 957 591
1803 2 2 0 0 957 438 591
1804 2 2 0 0 112 957 956
1805 2 2 0 0 957 438 956
1806 2 2 0 0 121 958 439
1807 2 2 0 0 237 958 238
1808 2 2 0 0 958 121 238
1809 2 2 0 0 439 959 592
1810 2 2 0 0 959 237 592
1811 2 2 0 0 237 959 958
1812 2 2 0 0 959 439 958
1813 2 2 0 0 390 960 593
1814 2 2 0 0 960 177 593
1815 2 2 0 0 177 960 611
1816 2 2 0 0 960 390 611
1817 2 2 0 0 382 961 595
1818 2 2 0 0 961 238 595
1819 2 2 0 0 238 961 746
1820 2 2 0 0 961 382 746
1821 2 2 0 0 240 962 596
1822 2 2 0 0 962 382 596
1823 2 2 0 0 382 962 599
1824 2 2 0 0 962 240 599
1825 2 2 0 0 119 963 436
1826 2 2 0 0 240 963 385
1827 2 2 0 0 963 119 385
1828 2 2 0 0 436 964 596
1829 2 2 0 0 964 240 596
1830 2 2 0 0 240 964 963
1831 2 2 0 0 964 436 963
1832 2 2 0 0 965 368 383
1833 2 2 0 0 368 965 579
1834 2 2 0 0 965 98 579
1835 2 2 0 0 98 966 597
1836 2 2 0 0 966 383 597
1837 2 2 0 0 383 966 965
1838 2 2 0 0 966 98 965
1839 2 2 0 0 384 967 598
1840 2 2 0 0 967 240 598
1841 2 2 0 0 240 967 599
1842 2 2 0 0 967 384 599
1843 2 2 0 0 129 968 328
1844 2 2 0 0 187 968 396
1845 2 2 0 0 968 129 396
1846 2 2 0 0 328 969 384
1847 2 2 0 0 187 969 968
1848 2 2 0 0 969 328 968
1849 2 2 0 0 187 970 598
1850 2 2 0 0 970 384 598
1851 2 2 0 0 187 970 969
1852 2 2 0 0 970 384 969
1853 2 2 0 0 384 971 599
1854 2 2 0 0 971 50 599
1855 2 2 0 0 384 971 833
1856 2 2 0 0 971 50 833
1857 2 2 0 0 972 374 512
1858 2 2 0 0 374 972 636
1859 2 2 0 0 972 119 636
1860 2 2 0 0 119 973 600
1861 2 2 0 0 973 512 600
1862 2 2 0 0 512 973 972
1863 2 2 0 0 973 119 972
1864 2 2 0 0 131 974 601
1865 2 2 0 0 974 386 601
1866 2 2 0 0 386 974 604
1867 2 2 0 0 974 131 604
1868 2 2 0 0 131 975 601
1869 2 2 0 0 975 387 601
1870 2 2 0 0 387 975 606
1871 2 2 0 0 975 131 606
1872 2 2 0 0 976 165 386
1873 2 2 0 0 165 976 445
1874 2 2 0 0 976 308 445
1875 2 2 0 0 308 977 604
1876 2 2 0 0 977 386 604
1877 2 2 0 0 386 977 976
1878 2 2 0 0 977 308 976
1879 2 2 0 0 265 978 605
1880 2 2 0 0 266 978 646
1881 2 2 0 0 978 265 646
1882 2 2 0 0 605 979 606
1883 2 2 0 0 979 266 606
1884 2 2 0 0 266 979 978
1885 2 2 0 0 979 605 978
1886 2 2 0 0 269 980 609
1887 2 2 0 0 980 388 609
1888 2 2 0 0 388 980 697
1889 2 2 0 0 980 269 697
1890 2 2 0 0 608 981 609
1891 2 2 0 0 981 103 609
1892 2 2 0 0 103 981 745
1893 2 2 0 0 981 608 745
1894 2 2 0 0 982 138 608
1895 2 2 0 0 138 982 270
1896 2 2 0 0 982 269 270
1897 2 2 0 0 269 983 609
1898 2 2 0 0 983 608 609
1899 2 2 0 0 608 983 982
1900 2 2 0 0 983 269 982
1901 2 2 0 0 390 984 611
1902 2 2 0 0 984 389 611
1903 2 2 0 0 389 984 613
1904 2 2 0 0 984 390 613
1905 2 2 0 0 985 107 420
1906 2 2 0 0 107 985 830
1907 2 2 0 0 985 389 830
1908 2 2 0 0 389 986 611
1909 2 2 0 0 986 420 611
1910 2 2 0 0 420 986 985
1911 2 2 0 0 986 389 985
1912 2 2 0 0 103 987 381
1913 2 2 0 0 252 987 388
1914 2 2 0 0 987 103 388
1915 2 2 0 0 381 988 593
1916 2 2 0 0 252 988 987
1917 2 2 0 0 988 381 987
1918 2 2 0 0 593 989 612
1919 2 2 0 0 989 252 612
1920 2 2 0 0 252 989 988
1921 2 2 0 0 989 593 988
1922 2 2 0 0 310 990 610
1923 2 2 0 0 102 990 311
1924 2 2 0 0 990 310 311
1925 2 2 0 0 102 991 613
1926 2 2 0 0 991 610 613
1927 2 2 0 0 102 991 990
1928 2 2 0 0 991 610 990
1929 2 2 0 0 391 992 614
1930 2 2 0 0 992 102 614
1931 2 2 0 0 102 992 699
1932 2 2 0 0 992 391 699
1933 2 2 0 0 279 993 615
1934 2 2 0 0 993 106 615
1935 2 2 0 0 106 993 460
1936 2 2 0 0 993 279 460
1937 2 2 0 0 128 994 616
1938 2 2 0 0 994 615 616
1939 2 2 0 0 615 994 622
1940 2 2 0 0 994 128 622
1941 2 2 0 0 170 995 393
1942 2 2 0 0 255 995 703
1943 2 2 0 0 995 170 703
1944 2 2 0 0 393 996 617
1945 2 2 0 0 996 255 617
1946 2 2 0 0 255 996 995
1947 2 2 0 0 996 393 995
1948 2 2 0 0 170 997 618
1949 2 2 0 0 997 122 618
1950 2 2 0 0 122 997 256
1951 2 2 0 0 997 170 256
1952 2 2 0 0 301 998 618
1953 2 2 0 0 998 122 618
1954 2 2 0 0 122 998 483
1955 2 2 0 0 998 301 483
1956 2 2 0 0 397 999 624
1957 2 2 0 0 999 104 624
1958 2 2 0 0 104 999 704
1959 2 2 0 0 999 397 704
1960 2 2 0 0 329 1000 623
1961 2 2 0 0 104 1000 827
1962 2 2 0 0 1000 329 827
1963 2 2 0 0 104 1001 624
1964 2 2 0 0 1001 623 624
1965 2 2 0 0 104 1001 1000
1966 2 2 0 0 1001 623 1000
1967 2 2 0 0 452 1002 625
1968 2 2 0 0 1002 268 625
1969 2 2 0 0 268 1002 764
1970 2 2 0 0 1002 452 764
$EndElements
