$MeshFormat
2.2 0 8
$EndMeshFormat
$Nodes
174
1 0 0 0
2 0 0.125 0
3 0.125 0 0
4 0.125 0.125 0
5 0.25 0 0
6 0 0.25 0
7 0.25 0.125 0
8 0.125 0.25 0
9 0.375 0 0
10 0 0.375 0
11 0.375 0.125 0
12 0.25 0.25 0
13 0.125 0.375 0
14 0.5 0 0
15 0 0.5 0
16 0.5 0.125 0
17 0.375 0.25 0
18 0.25 0.375 0
19 0.125 0.5 0
20 0.625 0 0
21 0 0.625 0
22 0.625 0.125 0
23 0.5 0.25 0
24 0.375 0.375 0
25 0.25 0.5 0
26 0.125 0.625 0
27 0.75 0 0
28 0 0.75 0
29 0.75 0.125 0
30 0.625 0.25 0
31 0.5 0.375 0
32 0.375 0.5 0
33 0.25 0.625 0
34 0.125 0.75 0
35 0.875 0 0
36 0 0.875 0
37 0.875 0.125 0
38 0.75 0.25 0
39 0.625 0.375 0
40 0.5 0.5 0
41 0.375 0.625 0
42 0.25 0.75 0
43 0.125 0.875 0
44 1 0 0
45 0 1 0
46 1 0.125 0
47 0.875 0.25 0
48 0.75 0.375 0
49 0.625 0.5 0
50 0.5 0.625 0
51 0.375 0.75 0
52 0.25 0.875 0
53 0.125 1 0
54 1 0.25 0
55 0.875 0.375 0
56 0.75 0.5 0
57 0.625 0.625 0
58 0.5 0.75 0
59 0.375 0.875 0
60 0.25 1 0
61 1 0.375 0
62 0.875 0.5 0
63 0.75 0.625 0
64 0.625 0.75 0
65 0.5 0.875 0
66 0.375 1 0
67 1 0.5 0
68 0.875 0.625 0
69 0.75 0.75 0
70 0.625 0.875 0
71 0.5 1 0
72 1 0.625 0
73 0.875 0.75 0
74 0.75 0.875 0
75 0.625 1 0
76 1 0.75 0
77 0.875 0.875 0
78 0.75 1 0
79 1 0.875 0
80 0.875 1 0
81 1 1 0
82 0.3125 0.3125 0
83 0.4375 0.3125 0
84 0.5625 0.3125 0
85 0.5625 0.4375 0
86 0.4375 0.5625 0
87 0.6875 0.4375 0
88 0.5625 0.5625 0
89 0.4375 0.6875 0
90 0.6875 0.5625 0
91 0.3125 0.4375 0
92 0.4375 0.4375 0
93 0.3125 0.5625 0
94 0.375 0.3125 0
95 0.3125 0.375 0
96 0.5 0.3125 0
97 0.5625 0.5 0
98 0.5 0.5625 0
99 0.375 0.5625 0
100 0.6875 0.3125 0
101 0.6875 0.375 0
102 0.5625 0.6875 0
103 0.5625 0.625 0
104 0.4375 0.625 0
105 0.3125 0.6875 0
106 0.375 0.6875 0
107 0.5 0.6875 0
108 0.6875 0.5 0
109 0.625 0.5625 0
110 0.4375 0.375 0
111 0.375 0.4375 0
112 0.4375 0.5 0
113 0.40625 0.34375 0
114 0.34375 0.34375 0
115 0.46875 0.34375 0
116 0.5625 0.375 0
117 0.53125 0.34375 0
118 0.53125 0.53125 0
119 0.46875 0.59375 0
120 0.46875 0.53125 0
121 0.53125 0.59375 0
122 0.40625 0.59375 0
123 0.3125 0.5 0
124 0.34375 0.53125 0
125 0.6875 0.6875 0
126 0.625 0.6875 0
127 0.59375 0.65625 0
128 0.40625 0.65625 0
129 0.46875 0.65625 0
130 0.65625 0.53125 0
131 0.6875 0.625 0
132 0.65625 0.59375 0
133 0.625 0.4375 0
134 0.3125 0.625 0
135 0.40625 0.53125 0
136 0.625 0.3125 0
137 0.65625 0.34375 0
138 0.59375 0.59375 0
139 0.34375 0.46875 0
140 0.4375 0.1875 0
141 0.4375 0.25 0
142 0.40625 0.28125 0
143 0.40625 0.3125 0
144 0.40625 0.40625 0
145 0.40625 0.375 0
146 0.34375 0.40625 0
147 0.34375 0.375 0
148 0.1875 0.3125 0
149 0.25 0.3125 0
150 0.28125 0.34375 0
151 0.3125 0.34375 0
152 0.5 0.4375 0
153 0.53125 0.40625 0
154 0.53125 0.375 0
155 0.53125 0.46875 0
156 0.53125 0.5 0
157 0.5 0.53125 0
158 0.46875 0.5625 0
159 0.46875 0.46875 0
160 0.46875 0.5 0
161 0.5 0.59375 0
162 0.40625 0.5625 0
163 0.34375 0.59375 0
164 0.34375 0.5625 0
165 0.65625 0.65625 0
166 0.5625 0.8125 0
167 0.5625 0.75 0
168 0.59375 0.71875 0
169 0.59375 0.6875 0
170 0.40625 0.625 0
171 0.65625 0.46875 0
172 0.65625 0.5 0
173 0.65625 0.5625 0
174 0.625 0.59375 0
$EndNodes
$Elements
314
1 2 2 0 0 1 2 3
2 2 2 0 0 2 3 4
3 2 2 0 0 3 4 5
4 2 2 0 0 2 4 6
5 2 2 0 0 4 5 7
6 2 2 0 0 4 6 8
7 2 2 0 0 5 7 9
8 2 2 0 0 4 7 8
9 2 2 0 0 6 8 10
10 2 2 0 0 7 9 11
11 2 2 0 0 7 8 12
12 2 2 0 0 8 10 13
13 2 2 0 0 9 11 14
14 2 2 0 0 7 11 12
15 2 2 0 0 10 13 15
16 2 2 0 0 11 14 16
17 2 2 0 0 11 12 17
18 2 2 0 0 13 15 19
19 2 2 0 0 14 16 20
20 2 2 0 0 13 18 19
21 2 2 0 0 15 19 21
22 2 2 0 0 16 20 22
23 2 2 0 0 18 19 25
24 2 2 0 0 19 21 26
25 2 2 0 0 20 22 27
26 2 2 0 0 16 22 23
27 2 2 0 0 19 25 26
28 2 2 0 0 21 26 28
29 2 2 0 0 22 27 29
30 2 2 0 0 22 23 30
31 2 2 0 0 25 26 33
32 2 2 0 0 26 28 34
33 2 2 0 0 27 29 35
34 2 2 0 0 22 29 30
35 2 2 0 0 26 33 34
36 2 2 0 0 28 34 36
37 2 2 0 0 29 35 37
38 2 2 0 0 29 30 38
39 2 2 0 0 33 34 42
40 2 2 0 0 34 36 43
41 2 2 0 0 35 37 44
42 2 2 0 0 29 37 38
43 2 2 0 0 34 42 43
44 2 2 0 0 36 43 45
45 2 2 0 0 37 44 46
46 2 2 0 0 37 38 47
47 2 2 0 0 42 43 52
48 2 2 0 0 43 45 53
49 2 2 0 0 37 46 47
50 2 2 0 0 38 47 48
51 2 2 0 0 42 51 52
52 2 2 0 0 43 52 53
53 2 2 0 0 46 47 54
54 2 2 0 0 47 48 55
55 2 2 0 0 51 52 59
56 2 2 0 0 52 53 60
57 2 2 0 0 47 54 55
58 2 2 0 0 48 55 56
59 2 2 0 0 51 58 59
60 2 2 0 0 52 59 60
61 2 2 0 0 54 55 61
62 2 2 0 0 55 56 62
63 2 2 0 0 58 59 65
64 2 2 0 0 59 60 66
65 2 2 0 0 55 61 62
66 2 2 0 0 56 62 63
67 2 2 0 0 59 65 66
68 2 2 0 0 61 62 67
69 2 2 0 0 62 63 68
70 2 2 0 0 65 66 71
71 2 2 0 0 62 67 68
72 2 2 0 0 63 68 69
73 2 2 0 0 64 69 70
74 2 2 0 0 65 70 71
75 2 2 0 0 67 68 72
76 2 2 0 0 68 69 73
77 2 2 0 0 69 70 74
78 2 2 0 0 70 71 75
79 2 2 0 0 68 72 73
80 2 2 0 0 69 73 74
81 2 2 0 0 70 74 75
82 2 2 0 0 72 73 76
83 2 2 0 0 73 74 77
84 2 2 0 0 74 75 78
85 2 2 0 0 73 76 77
86 2 2 0 0 74 77 78
87 2 2 0 0 76 77 79
88 2 2 0 0 77 78 80
89 2 2 0 0 77 79 80
90 2 2 0 0 79 80 81
91 2 2 0 0 17 82 12
92 2 2 0 0 30 84 23
93 2 2 0 0 48 87 56
94 2 2 0 0 89 51 58
95 2 2 0 0 56 90 63
96 2 2 0 0 91 25 18
97 2 2 0 0 93 33 25
98 2 2 0 0 94 17 82
99 2 2 0 0 18 95 91
100 2 2 0 0 96 23 83
101 2 2 0 0 96 23 84
102 2 2 0 0 97 49 85
103 2 2 0 0 97 49 88
104 2 2 0 0 38 100 48
105 2 2 0 0 38 100 30
106 2 2 0 0 39 101 87
107 2 2 0 0 101 48 87
108 2 2 0 0 101 48 100
109 2 2 0 0 50 103 102
110 2 2 0 0 105 42 51
111 2 2 0 0 105 42 33
112 2 2 0 0 51 106 89
113 2 2 0 0 51 106 105
114 2 2 0 0 106 41 105
115 2 2 0 0 58 107 89
116 2 2 0 0 58 107 102
117 2 2 0 0 107 50 102
118 2 2 0 0 108 56 90
119 2 2 0 0 108 56 87
120 2 2 0 0 109 49 88
121 2 2 0 0 110 31 92
122 2 2 0 0 32 111 92
123 2 2 0 0 32 112 92
124 2 2 0 0 113 24 94
125 2 2 0 0 83 113 110
126 2 2 0 0 82 114 94
127 2 2 0 0 114 24 94
128 2 2 0 0 83 115 96
129 2 2 0 0 115 31 96
130 2 2 0 0 31 115 110
131 2 2 0 0 115 83 110
132 2 2 0 0 116 39 84
133 2 2 0 0 116 39 85
134 2 2 0 0 84 117 96
135 2 2 0 0 117 31 96
136 2 2 0 0 84 117 116
137 2 2 0 0 88 118 97
138 2 2 0 0 118 88 98
139 2 2 0 0 50 119 104
140 2 2 0 0 119 86 104
141 2 2 0 0 120 86 112
142 2 2 0 0 88 121 98
143 2 2 0 0 88 121 103
144 2 2 0 0 121 50 103
145 2 2 0 0 122 41 99
146 2 2 0 0 86 122 104
147 2 2 0 0 25 123 93
148 2 2 0 0 25 123 91
149 2 2 0 0 32 124 99
150 2 2 0 0 32 124 123
151 2 2 0 0 124 93 123
152 2 2 0 0 63 125 69
153 2 2 0 0 125 64 69
154 2 2 0 0 64 126 125
155 2 2 0 0 57 127 103
156 2 2 0 0 127 102 103
157 2 2 0 0 57 127 126
158 2 2 0 0 89 128 104
159 2 2 0 0 41 128 106
160 2 2 0 0 128 89 106
161 2 2 0 0 50 129 104
162 2 2 0 0 129 89 104
163 2 2 0 0 50 129 107
164 2 2 0 0 129 89 107
165 2 2 0 0 90 130 108
166 2 2 0 0 49 130 109
167 2 2 0 0 131 63 90
168 2 2 0 0 131 63 125
169 2 2 0 0 90 132 131
170 2 2 0 0 132 57 131
171 2 2 0 0 49 133 85
172 2 2 0 0 133 39 85
173 2 2 0 0 133 39 87
174 2 2 0 0 33 134 93
175 2 2 0 0 33 134 105
176 2 2 0 0 134 41 105
177 2 2 0 0 32 135 99
178 2 2 0 0 86 135 112
179 2 2 0 0 135 32 112
180 2 2 0 0 136 30 100
181 2 2 0 0 39 136 84
182 2 2 0 0 136 30 84
183 2 2 0 0 100 137 101
184 2 2 0 0 137 39 101
185 2 2 0 0 100 137 136
186 2 2 0 0 137 39 136
187 2 2 0 0 57 138 103
188 2 2 0 0 138 88 103
189 2 2 0 0 88 138 109
190 2 2 0 0 91 139 111
191 2 2 0 0 139 32 111
192 2 2 0 0 32 139 123
193 2 2 0 0 139 91 123
194 2 2 0 0 16 140 23
195 2 2 0 0 16 140 11
196 2 2 0 0 140 17 11
197 2 2 0 0 141 23 83
198 2 2 0 0 17 141 140
199 2 2 0 0 141 23 140
200 2 2 0 0 17 142 94
201 2 2 0 0 83 142 141
202 2 2 0 0 142 17 141
203 2 2 0 0 94 143 113
204 2 2 0 0 143 83 113
205 2 2 0 0 83 143 142
206 2 2 0 0 143 94 142
207 2 2 0 0 92 144 110
208 2 2 0 0 24 144 111
209 2 2 0 0 144 92 111
210 2 2 0 0 24 145 113
211 2 2 0 0 145 110 113
212 2 2 0 0 24 145 144
213 2 2 0 0 145 110 144
214 2 2 0 0 146 91 95
215 2 2 0 0 24 146 111
216 2 2 0 0 146 91 111
217 2 2 0 0 95 147 114
218 2 2 0 0 147 24 114
219 2 2 0 0 95 147 146
220 2 2 0 0 147 24 146
221 2 2 0 0 148 13 18
222 2 2 0 0 12 148 8
223 2 2 0 0 148 13 8
224 2 2 0 0 149 12 82
225 2 2 0 0 18 149 148
226 2 2 0 0 149 12 148
227 2 2 0 0 150 18 95
228 2 2 0 0 82 150 149
229 2 2 0 0 150 18 149
230 2 2 0 0 82 151 114
231 2 2 0 0 151 95 114
232 2 2 0 0 95 151 150
233 2 2 0 0 151 82 150
234 2 2 0 0 152 31 92
235 2 2 0 0 85 153 116
236 2 2 0 0 31 153 152
237 2 2 0 0 153 85 152
238 2 2 0 0 31 154 117
239 2 2 0 0 154 116 117
240 2 2 0 0 31 154 153
241 2 2 0 0 154 116 153
242 2 2 0 0 85 155 97
243 2 2 0 0 85 155 152
244 2 2 0 0 155 40 152
245 2 2 0 0 40 156 118
246 2 2 0 0 156 97 118
247 2 2 0 0 40 156 155
248 2 2 0 0 156 97 155
249 2 2 0 0 98 157 118
250 2 2 0 0 157 40 118
251 2 2 0 0 98 157 120
252 2 2 0 0 157 40 120
253 2 2 0 0 86 158 120
254 2 2 0 0 158 98 120
255 2 2 0 0 98 158 119
256 2 2 0 0 158 86 119
257 2 2 0 0 159 92 112
258 2 2 0 0 92 159 152
259 2 2 0 0 159 40 152
260 2 2 0 0 112 160 120
261 2 2 0 0 160 40 120
262 2 2 0 0 112 160 159
263 2 2 0 0 160 40 159
264 2 2 0 0 50 161 121
265 2 2 0 0 161 98 121
266 2 2 0 0 50 161 119
267 2 2 0 0 161 98 119
268 2 2 0 0 99 162 122
269 2 2 0 0 162 86 122
270 2 2 0 0 86 162 135
271 2 2 0 0 162 99 135
272 2 2 0 0 163 41 99
273 2 2 0 0 41 163 134
274 2 2 0 0 163 93 134
275 2 2 0 0 93 164 124
276 2 2 0 0 164 99 124
277 2 2 0 0 99 164 163
278 2 2 0 0 164 93 163
279 2 2 0 0 57 165 126
280 2 2 0 0 165 125 126
281 2 2 0 0 125 165 131
282 2 2 0 0 165 57 131
283 2 2 0 0 166 65 58
284 2 2 0 0 64 166 70
285 2 2 0 0 166 65 70
286 2 2 0 0 58 167 102
287 2 2 0 0 58 167 166
288 2 2 0 0 167 64 166
289 2 2 0 0 168 64 126
290 2 2 0 0 64 168 167
291 2 2 0 0 168 102 167
292 2 2 0 0 102 169 127
293 2 2 0 0 169 126 127
294 2 2 0 0 126 169 168
295 2 2 0 0 169 102 168
296 2 2 0 0 41 170 128
297 2 2 0 0 170 104 128
298 2 2 0 0 41 170 122
299 2 2 0 0 170 104 122
300 2 2 0 0 87 171 108
301 2 2 0 0 87 171 133
302 2 2 0 0 171 49 133
303 2 2 0 0 49 172 130
304 2 2 0 0 172 108 130
305 2 2 0 0 49 172 171
306 2 2 0 0 172 108 171
307 2 2 0 0 90 173 130
308 2 2 0 0 173 109 130
309 2 2 0 0 109 173 132
310 2 2 0 0 173 90 132
311 2 2 0 0 57 174 132
312 2 2 0 0 174 109 132
313 2 2 0 0 57 174 138
314 2 2 0 0 174 109 138
$EndElements
