$MeshFormat
2.2 0 8
$EndMeshFormat
$Nodes
403
1 0 0 0
2 0 0.125 0
3 0.125 0 0
4 0.125 0.125 0
5 0.25 0 0
6 0 0.25 0
7 0.25 0.125 0
8 0.125 0.25 0
9 0.375 0 0
10 0 0.375 0
11 0.375 0.125 0
12 0.25 0.25 0
13 0.125 0.375 0
14 0.5 0 0
15 0 0.5 0
16 0.5 0.125 0
17 0.375 0.25 0
18 0.25 0.375 0
19 0.125 0.5 0
20 0.625 0 0
21 0 0.625 0
22 0.625 0.125 0
23 0.5 0.25 0
24 0.375 0.375 0
25 0.25 0.5 0
26 0.125 0.625 0
27 0.75 0 0
28 0 0.75 0
29 0.75 0.125 0
30 0.625 0.25 0
31 0.5 0.375 0
32 0.375 0.5 0
33 0.25 0.625 0
34 0.125 0.75 0
35 0.875 0 0
36 0 0.875 0
37 0.875 0.125 0
38 0.75 0.25 0
39 0.625 0.375 0
40 0.5 0.5 0
41 0.375 0.625 0
42 0.25 0.75 0
43 0.125 0.875 0
44 1 0 0
45 0 1 0
46 1 0.125 0
47 0.875 0.25 0
48 0.75 0.375 0
49 0.625 0.5 0
50 0.5 0.625 0
51 0.375 0.75 0
52 0.25 0.875 0
53 0.125 1 0
54 1 0.25 0
55 0.875 0.375 0
56 0.75 0.5 0
57 0.625 0.625 0
58 0.5 0.75 0
59 0.375 0.875 0
60 0.25 1 0
61 1 0.375 0
62 0.875 0.5 0
63 0.75 0.625 0
64 0.625 0.75 0
65 0.5 0.875 0
66 0.375 1 0
67 1 0.5 0
68 0.875 0.625 0
69 0.75 0.75 0
70 0.625 0.875 0
71 0.5 1 0
72 1 0.625 0
73 0.875 0.75 0
74 0.75 0.875 0
75 0.625 1 0
76 1 0.75 0
77 0.875 0.875 0
78 0.75 1 0
79 1 0.875 0
80 0.875 1 0
81 1 1 0
82 0.3125 0.3125 0
83 0.4375 0.3125 0
84 0.5625 0.3125 0
85 0.5625 0.4375 0
86 0.4375 0.5625 0
87 0.6875 0.4375 0
88 0.5625 0.5625 0
89 0.4375 0.6875 0
90 0.6875 0.5625 0
91 0.3125 0.4375 0
92 0.4375 0.4375 0
93 0.3125 0.5625 0
94 0.375 0.3125 0
95 0.3125 0.375 0
96 0.5 0.3125 0
97 0.5625 0.5 0
98 0.5 0.5625 0
99 0.375 0.5625 0
100 0.6875 0.3125 0
101 0.6875 0.375 0
102 0.5625 0.6875 0
103 0.5625 0.625 0
104 0.4375 0.625 0
105 0.3125 0.6875 0
106 0.375 0.6875 0
107 0.5 0.6875 0
108 0.6875 0.5 0
109 0.625 0.5625 0
110 0.4375 0.375 0
111 0.375 0.4375 0
112 0.4375 0.5 0
113 0.40625 0.34375 0
114 0.34375 0.34375 0
115 0.46875 0.34375 0
116 0.5625 0.375 0
117 0.53125 0.34375 0
118 0.53125 0.53125 0
119 0.46875 0.59375 0
120 0.46875 0.53125 0
121 0.53125 0.59375 0
122 0.40625 0.59375 0
123 0.3125 0.5 0
124 0.34375 0.53125 0
125 0.6875 0.6875 0
126 0.625 0.6875 0
127 0.59375 0.65625 0
128 0.40625 0.65625 0
129 0.46875 0.65625 0
130 0.65625 0.53125 0
131 0.6875 0.625 0
132 0.65625 0.59375 0
133 0.625 0.4375 0
134 0.3125 0.625 0
135 0.40625 0.53125 0
136 0.625 0.3125 0
137 0.65625 0.34375 0
138 0.59375 0.59375 0
139 0.34375 0.46875 0
140 0.4375 0.1875 0
141 0.4375 0.25 0
142 0.40625 0.28125 0
143 0.40625 0.3125 0
144 0.40625 0.40625 0
145 0.40625 0.375 0
146 0.34375 0.40625 0
147 0.34375 0.375 0
148 0.1875 0.3125 0
149 0.25 0.3125 0
150 0.28125 0.34375 0
151 0.3125 0.34375 0
152 0.5 0.4375 0
153 0.53125 0.40625 0
154 0.53125 0.375 0
155 0.53125 0.46875 0
156 0.53125 0.5 0
157 0.5 0.53125 0
158 0.46875 0.5625 0
159 0.46875 0.46875 0
160 0.46875 0.5 0
161 0.5 0.59375 0
162 0.40625 0.5625 0
163 0.34375 0.59375 0
164 0.34375 0.5625 0
165 0.65625 0.65625 0
166 0.5625 0.8125 0
167 0.5625 0.75 0
168 0.59375 0.71875 0
169 0.59375 0.6875 0
170 0.40625 0.625 0
171 0.65625 0.46875 0
172 0.65625 0.5 0
173 0.65625 0.5625 0
174 0.625 0.59375 0
175 0.59375 0.53125 0
176 0.65625 0.40625 0
177 0.53125 0.65625 0
178 0.34375 0.65625 0
179 0.40625 0.46875 0
180 0.375 0.34375 0
181 0.59375 0.34375 0
182 0.59375 0.40625 0
183 0.5 0.34375 0
184 0.53125 0.5625 0
185 0.4375 0.59375 0
186 0.625 0.65625 0
187 0.46875 0.625 0
188 0.5 0.65625 0
189 0.4375 0.8125 0
190 0.4375 0.75 0
191 0.46875 0.71875 0
192 0.46875 0.6875 0
193 0.375 0.53125 0
194 0.65625 0.375 0
195 0.34375 0.4375 0
196 0.390625 0.328125 0
197 0.46875 0.28125 0
198 0.4375 0.28125 0
199 0.421875 0.296875 0
200 0.3125 0.1875 0
201 0.3125 0.25 0
202 0.34375 0.28125 0
203 0.375 0.28125 0
204 0.390625 0.296875 0
205 0.40625 0.4375 0
206 0.390625 0.359375 0
207 0.4375 0.34375 0
208 0.421875 0.359375 0
209 0.1875 0.4375 0
210 0.25 0.4375 0
211 0.28125 0.40625 0
212 0.3125 0.40625 0
213 0.375 0.40625 0
214 0.359375 0.390625 0
215 0.34375 0.3125 0
216 0.328125 0.328125 0
217 0.328125 0.359375 0
218 0.28125 0.28125 0
219 0.28125 0.3125 0
220 0.296875 0.328125 0
221 0.53125 0.4375 0
222 0.515625 0.359375 0
223 0.5625 0.34375 0
224 0.546875 0.359375 0
225 0.59375 0.46875 0
226 0.5625 0.46875 0
227 0.546875 0.484375 0
228 0.515625 0.515625 0
229 0.484375 0.515625 0
230 0.4375 0.53125 0
231 0.453125 0.546875 0
232 0.484375 0.578125 0
233 0.46875 0.40625 0
234 0.46875 0.4375 0
235 0.4375 0.46875 0
236 0.453125 0.484375 0
237 0.53125 0.625 0
238 0.515625 0.609375 0
239 0.515625 0.578125 0
240 0.484375 0.609375 0
241 0.1875 0.5625 0
242 0.25 0.5625 0
243 0.28125 0.53125 0
244 0.3125 0.53125 0
245 0.328125 0.546875 0
246 0.359375 0.546875 0
247 0.6875 0.8125 0
248 0.6875 0.75 0
249 0.65625 0.71875 0
250 0.65625 0.6875 0
251 0.65625 0.625 0
252 0.5625 0.65625 0
253 0.578125 0.671875 0
254 0.4375 0.65625 0
255 0.421875 0.640625 0
256 0.421875 0.609375 0
257 0.8125 0.4375 0
258 0.75 0.4375 0
259 0.71875 0.46875 0
260 0.6875 0.46875 0
261 0.65625 0.4375 0
262 0.671875 0.484375 0
263 0.8125 0.5625 0
264 0.75 0.5625 0
265 0.71875 0.59375 0
266 0.6875 0.59375 0
267 0.671875 0.578125 0
268 0.640625 0.578125 0
269 0.59375 0.625 0
270 0.609375 0.609375 0
271 0.46875 0.3125 0
272 0.5625 0.1875 0
273 0.5625 0.25 0
274 0.53125 0.28125 0
275 0.53125 0.3125 0
276 0.5625 0.53125 0
277 0.375 0.65625 0
278 0.40625 0.71875 0
279 0.40625 0.6875 0
280 0.71875 0.53125 0
281 0.6875 0.53125 0
282 0.40625 0.5 0
283 0.8125 0.3125 0
284 0.75 0.3125 0
285 0.71875 0.34375 0
286 0.6875 0.34375 0
287 0.6875 0.1875 0
288 0.6875 0.25 0
289 0.65625 0.28125 0
290 0.65625 0.3125 0
291 0.34375 0.5 0
292 0.28125 0.46875 0
293 0.3125 0.46875 0
294 0.421875 0.328125 0
295 0.5 0.40625 0
296 0.484375 0.546875 0
297 0.5 0.46875 0
298 0.484375 0.484375 0
299 0.421875 0.578125 0
300 0.421875 0.546875 0
301 0.375 0.59375 0
302 0.34375 0.625 0
303 0.28125 0.59375 0
304 0.3125 0.59375 0
305 0.8125 0.6875 0
306 0.75 0.6875 0
307 0.71875 0.65625 0
308 0.6875 0.65625 0
309 0.53125 0.71875 0
310 0.5625 0.71875 0
311 0.578125 0.703125 0
312 0.625 0.46875 0
313 0.640625 0.484375 0
314 0.671875 0.546875 0
315 0.640625 0.609375 0
316 0.59375 0.5625 0
317 0.609375 0.578125 0
318 0.59375 0.5 0
319 0.625 0.40625 0
320 0.375 0.46875 0
321 0.359375 0.359375 0
322 0.59375 0.375 0
323 0.59375 0.4375 0
324 0.515625 0.328125 0
325 0.546875 0.546875 0
326 0.609375 0.671875 0
327 0.640625 0.671875 0
328 0.484375 0.640625 0
329 0.453125 0.609375 0
330 0.484375 0.671875 0
331 0.515625 0.640625 0
332 0.453125 0.671875 0
333 0.5 0.71875 0
334 0.484375 0.703125 0
335 0.390625 0.546875 0
336 0.390625 0.515625 0
337 0.625 0.34375 0
338 0.640625 0.359375 0
339 0.640625 0.390625 0
340 0.359375 0.453125 0
341 0.328125 0.421875 0
342 0.390625 0.3125 0
343 0.359375 0.328125 0
344 0.375 0.328125 0
345 0.390625 0.34375 0
346 0.421875 0.3125 0
347 0.4375 0.40625 0
348 0.421875 0.421875 0
349 0.46875 0.375 0
350 0.453125 0.359375 0
351 0.28125 0.375 0
352 0.296875 0.390625 0
353 0.359375 0.375 0
354 0.3125 0.28125 0
355 0.328125 0.296875 0
356 0.359375 0.296875 0
357 0.328125 0.3125 0
358 0.328125 0.390625 0
359 0.328125 0.375 0
360 0.3125 0.328125 0
361 0.546875 0.453125 0
362 0.484375 0.359375 0
363 0.5 0.359375 0
364 0.578125 0.453125 0
365 0.578125 0.484375 0
366 0.515625 0.484375 0
367 0.53125 0.484375 0
368 0.515625 0.546875 0
369 0.515625 0.53125 0
370 0.484375 0.53125 0
371 0.453125 0.515625 0
372 0.421875 0.515625 0
373 0.46875 0.546875 0
374 0.453125 0.578125 0
375 0.453125 0.5625 0
376 0.5 0.578125 0
377 0.453125 0.453125 0
378 0.421875 0.484375 0
379 0.46875 0.484375 0
380 0.4375 0.484375 0
381 0.546875 0.640625 0
382 0.5 0.609375 0
383 0.515625 0.5625 0
384 0.484375 0.625 0
385 0.46875 0.609375 0
386 0.671875 0.640625 0
387 0.671875 0.609375 0
388 0.578125 0.640625 0
389 0.53125 0.6875 0
390 0.546875 0.671875 0
391 0.5625 0.671875 0
392 0.390625 0.640625 0
393 0.40625 0.640625 0
394 0.421875 0.671875 0
395 0.421875 0.65625 0
396 0.453125 0.640625 0
397 0.4375 0.640625 0
398 0.71875 0.40625 0
399 0.71875 0.4375 0
400 0.703125 0.453125 0
401 0.71875 0.5 0
402 0.703125 0.484375 0
403 0.640625 0.59375 0
$EndNodes
$Elements
772
1 2 2 0 0 1 2 3
2 2 2 0 0 2 3 4
3 2 2 0 0 3 4 5
4 2 2 0 0 2 4 6
5 2 2 0 0 4 5 7
6 2 2 0 0 4 6 8
7 2 2 0 0 5 7 9
8 2 2 0 0 4 7 8
9 2 2 0 0 6 8 10
10 2 2 0 0 7 9 11
11 2 2 0 0 7 8 12
12 2 2 0 0 8 10 13
13 2 2 0 0 9 11 14
14 2 2 0 0 10 13 15
15 2 2 0 0 11 14 16
16 2 2 0 0 13 15 19
17 2 2 0 0 14 16 20
18 2 2 0 0 15 19 21
19 2 2 0 0 16 20 22
20 2 2 0 0 19 21 26
21 2 2 0 0 20 22 27
22 2 2 0 0 21 26 28
23 2 2 0 0 22 27 29
24 2 2 0 0 26 28 34
25 2 2 0 0 27 29 35
26 2 2 0 0 26 33 34
27 2 2 0 0 28 34 36
28 2 2 0 0 29 35 37
29 2 2 0 0 33 34 42
30 2 2 0 0 34 36 43
31 2 2 0 0 35 37 44
32 2 2 0 0 29 37 38
33 2 2 0 0 34 42 43
34 2 2 0 0 36 43 45
35 2 2 0 0 37 44 46
36 2 2 0 0 37 38 47
37 2 2 0 0 42 43 52
38 2 2 0 0 43 45 53
39 2 2 0 0 37 46 47
40 2 2 0 0 42 51 52
41 2 2 0 0 43 52 53
42 2 2 0 0 46 47 54
43 2 2 0 0 51 52 59
44 2 2 0 0 52 53 60
45 2 2 0 0 47 54 55
46 2 2 0 0 52 59 60
47 2 2 0 0 54 55 61
48 2 2 0 0 59 60 66
49 2 2 0 0 55 61 62
50 2 2 0 0 59 65 66
51 2 2 0 0 61 62 67
52 2 2 0 0 65 66 71
53 2 2 0 0 62 67 68
54 2 2 0 0 65 70 71
55 2 2 0 0 67 68 72
56 2 2 0 0 70 71 75
57 2 2 0 0 68 72 73
58 2 2 0 0 69 73 74
59 2 2 0 0 70 74 75
60 2 2 0 0 72 73 76
61 2 2 0 0 73 74 77
62 2 2 0 0 74 75 78
63 2 2 0 0 73 76 77
64 2 2 0 0 74 77 78
65 2 2 0 0 76 77 79
66 2 2 0 0 77 78 80
67 2 2 0 0 77 79 80
68 2 2 0 0 79 80 81
69 2 2 0 0 105 42 51
70 2 2 0 0 105 42 33
71 2 2 0 0 51 106 105
72 2 2 0 0 88 121 103
73 2 2 0 0 49 130 109
74 2 2 0 0 33 134 105
75 2 2 0 0 136 30 84
76 2 2 0 0 138 88 103
77 2 2 0 0 16 140 23
78 2 2 0 0 16 140 11
79 2 2 0 0 140 17 11
80 2 2 0 0 17 141 140
81 2 2 0 0 141 23 140
82 2 2 0 0 142 17 141
83 2 2 0 0 24 145 144
84 2 2 0 0 145 110 144
85 2 2 0 0 148 13 18
86 2 2 0 0 12 148 8
87 2 2 0 0 148 13 8
88 2 2 0 0 18 149 148
89 2 2 0 0 149 12 148
90 2 2 0 0 150 18 149
91 2 2 0 0 95 151 150
92 2 2 0 0 85 153 116
93 2 2 0 0 31 154 153
94 2 2 0 0 154 116 153
95 2 2 0 0 156 97 118
96 2 2 0 0 99 162 122
97 2 2 0 0 99 164 163
98 2 2 0 0 164 93 163
99 2 2 0 0 166 65 58
100 2 2 0 0 64 166 70
101 2 2 0 0 166 65 70
102 2 2 0 0 58 167 166
103 2 2 0 0 167 64 166
104 2 2 0 0 168 64 126
105 2 2 0 0 64 168 167
106 2 2 0 0 126 169 168
107 2 2 0 0 41 170 122
108 2 2 0 0 49 172 130
109 2 2 0 0 172 108 130
110 2 2 0 0 173 109 130
111 2 2 0 0 49 175 109
112 2 2 0 0 87 176 101
113 2 2 0 0 178 105 106
114 2 2 0 0 178 105 134
115 2 2 0 0 84 181 136
116 2 2 0 0 182 85 116
117 2 2 0 0 183 96 115
118 2 2 0 0 184 88 121
119 2 2 0 0 186 57 127
120 2 2 0 0 186 57 165
121 2 2 0 0 107 188 177
122 2 2 0 0 189 59 51
123 2 2 0 0 58 189 65
124 2 2 0 0 189 59 65
125 2 2 0 0 51 190 189
126 2 2 0 0 190 58 189
127 2 2 0 0 58 191 190
128 2 2 0 0 191 89 190
129 2 2 0 0 192 89 191
130 2 2 0 0 193 32 124
131 2 2 0 0 194 101 137
132 2 2 0 0 194 101 176
133 2 2 0 0 195 91 139
134 2 2 0 0 195 111 146
135 2 2 0 0 113 196 143
136 2 2 0 0 23 197 141
137 2 2 0 0 23 197 96
138 2 2 0 0 141 198 142
139 2 2 0 0 83 198 197
140 2 2 0 0 198 141 197
141 2 2 0 0 142 199 143
142 2 2 0 0 83 199 198
143 2 2 0 0 199 142 198
144 2 2 0 0 11 200 17
145 2 2 0 0 11 200 7
146 2 2 0 0 200 12 7
147 2 2 0 0 12 201 200
148 2 2 0 0 201 17 200
149 2 2 0 0 17 202 201
150 2 2 0 0 203 17 142
151 2 2 0 0 203 17 202
152 2 2 0 0 204 142 143
153 2 2 0 0 142 204 203
154 2 2 0 0 204 94 203
155 2 2 0 0 205 111 144
156 2 2 0 0 111 205 179
157 2 2 0 0 205 92 179
158 2 2 0 0 113 206 145
159 2 2 0 0 206 24 145
160 2 2 0 0 206 24 180
161 2 2 0 0 83 207 115
162 2 2 0 0 110 208 145
163 2 2 0 0 208 113 145
164 2 2 0 0 113 208 207
165 2 2 0 0 208 110 207
166 2 2 0 0 209 19 25
167 2 2 0 0 18 209 13
168 2 2 0 0 209 19 13
169 2 2 0 0 25 210 209
170 2 2 0 0 210 18 209
171 2 2 0 0 18 211 210
172 2 2 0 0 211 91 210
173 2 2 0 0 212 91 211
174 2 2 0 0 111 213 146
175 2 2 0 0 111 213 144
176 2 2 0 0 213 24 144
177 2 2 0 0 214 146 147
178 2 2 0 0 24 214 213
179 2 2 0 0 214 146 213
180 2 2 0 0 114 216 151
181 2 2 0 0 216 114 215
182 2 2 0 0 95 217 151
183 2 2 0 0 217 114 151
184 2 2 0 0 114 217 147
185 2 2 0 0 12 218 149
186 2 2 0 0 218 12 201
187 2 2 0 0 149 219 150
188 2 2 0 0 82 219 218
189 2 2 0 0 219 149 218
190 2 2 0 0 220 150 151
191 2 2 0 0 82 220 219
192 2 2 0 0 220 150 219
193 2 2 0 0 85 221 153
194 2 2 0 0 221 152 153
195 2 2 0 0 152 221 155
196 2 2 0 0 117 222 154
197 2 2 0 0 222 31 154
198 2 2 0 0 117 222 183
199 2 2 0 0 223 84 117
200 2 2 0 0 84 223 181
201 2 2 0 0 223 116 181
202 2 2 0 0 116 224 154
203 2 2 0 0 224 117 154
204 2 2 0 0 117 224 223
205 2 2 0 0 224 116 223
206 2 2 0 0 97 227 156
207 2 2 0 0 155 227 226
208 2 2 0 0 227 97 226
209 2 2 0 0 40 228 157
210 2 2 0 0 118 228 156
211 2 2 0 0 228 40 156
212 2 2 0 0 40 229 157
213 2 2 0 0 40 229 160
214 2 2 0 0 229 120 160
215 2 2 0 0 120 231 230
216 2 2 0 0 231 86 230
217 2 2 0 0 119 232 158
218 2 2 0 0 232 98 158
219 2 2 0 0 232 119 161
220 2 2 0 0 152 234 159
221 2 2 0 0 92 234 233
222 2 2 0 0 234 152 233
223 2 2 0 0 235 92 179
224 2 2 0 0 236 112 160
225 2 2 0 0 236 159 235
226 2 2 0 0 237 103 121
227 2 2 0 0 121 238 161
228 2 2 0 0 121 238 237
229 2 2 0 0 238 50 237
230 2 2 0 0 239 121 161
231 2 2 0 0 121 239 184
232 2 2 0 0 119 240 161
233 2 2 0 0 241 26 33
234 2 2 0 0 25 241 19
235 2 2 0 0 241 26 19
236 2 2 0 0 33 242 241
237 2 2 0 0 242 25 241
238 2 2 0 0 243 25 123
239 2 2 0 0 25 243 242
240 2 2 0 0 243 93 242
241 2 2 0 0 244 123 124
242 2 2 0 0 123 244 243
243 2 2 0 0 244 93 243
244 2 2 0 0 124 245 164
245 2 2 0 0 245 93 164
246 2 2 0 0 124 245 244
247 2 2 0 0 245 93 244
248 2 2 0 0 99 246 164
249 2 2 0 0 246 124 164
250 2 2 0 0 124 246 193
251 2 2 0 0 246 99 193
252 2 2 0 0 247 70 64
253 2 2 0 0 69 247 74
254 2 2 0 0 247 70 74
255 2 2 0 0 248 69 125
256 2 2 0 0 64 248 247
257 2 2 0 0 248 69 247
258 2 2 0 0 249 64 126
259 2 2 0 0 125 249 248
260 2 2 0 0 249 64 248
261 2 2 0 0 125 250 165
262 2 2 0 0 126 250 249
263 2 2 0 0 250 125 249
264 2 2 0 0 57 251 165
265 2 2 0 0 127 253 169
266 2 2 0 0 253 102 169
267 2 2 0 0 127 253 252
268 2 2 0 0 104 255 170
269 2 2 0 0 104 256 170
270 2 2 0 0 256 122 170
271 2 2 0 0 122 256 185
272 2 2 0 0 256 104 185
273 2 2 0 0 55 257 48
274 2 2 0 0 55 257 62
275 2 2 0 0 257 56 62
276 2 2 0 0 56 258 257
277 2 2 0 0 258 48 257
278 2 2 0 0 259 56 258
279 2 2 0 0 260 87 171
280 2 2 0 0 133 261 171
281 2 2 0 0 261 87 171
282 2 2 0 0 87 261 176
283 2 2 0 0 261 133 176
284 2 2 0 0 108 262 172
285 2 2 0 0 262 171 172
286 2 2 0 0 171 262 260
287 2 2 0 0 262 108 260
288 2 2 0 0 62 263 56
289 2 2 0 0 62 263 68
290 2 2 0 0 263 63 68
291 2 2 0 0 63 264 263
292 2 2 0 0 264 56 263
293 2 2 0 0 63 265 131
294 2 2 0 0 90 265 264
295 2 2 0 0 265 63 264
296 2 2 0 0 90 266 265
297 2 2 0 0 266 131 265
298 2 2 0 0 90 267 173
299 2 2 0 0 267 132 173
300 2 2 0 0 90 267 266
301 2 2 0 0 267 132 266
302 2 2 0 0 109 268 174
303 2 2 0 0 132 268 173
304 2 2 0 0 268 109 173
305 2 2 0 0 103 269 138
306 2 2 0 0 269 57 127
307 2 2 0 0 138 270 174
308 2 2 0 0 270 57 174
309 2 2 0 0 57 270 269
310 2 2 0 0 270 138 269
311 2 2 0 0 96 271 115
312 2 2 0 0 271 83 115
313 2 2 0 0 83 271 197
314 2 2 0 0 271 96 197
315 2 2 0 0 22 272 30
316 2 2 0 0 22 272 16
317 2 2 0 0 272 23 16
318 2 2 0 0 273 30 84
319 2 2 0 0 23 273 272
320 2 2 0 0 273 30 272
321 2 2 0 0 23 274 96
322 2 2 0 0 84 274 273
323 2 2 0 0 274 23 273
324 2 2 0 0 275 84 117
325 2 2 0 0 84 275 274
326 2 2 0 0 275 96 274
327 2 2 0 0 97 276 118
328 2 2 0 0 88 276 175
329 2 2 0 0 276 97 175
330 2 2 0 0 106 277 128
331 2 2 0 0 106 277 178
332 2 2 0 0 277 41 178
333 2 2 0 0 278 51 106
334 2 2 0 0 89 278 190
335 2 2 0 0 278 51 190
336 2 2 0 0 279 106 128
337 2 2 0 0 106 279 278
338 2 2 0 0 279 89 278
339 2 2 0 0 56 280 264
340 2 2 0 0 280 90 264
341 2 2 0 0 108 281 130
342 2 2 0 0 90 281 280
343 2 2 0 0 281 108 280
344 2 2 0 0 32 282 179
345 2 2 0 0 47 283 38
346 2 2 0 0 47 283 55
347 2 2 0 0 283 48 55
348 2 2 0 0 284 38 100
349 2 2 0 0 48 284 283
350 2 2 0 0 284 38 283
351 2 2 0 0 48 285 101
352 2 2 0 0 100 285 284
353 2 2 0 0 285 48 284
354 2 2 0 0 101 286 137
355 2 2 0 0 286 100 137
356 2 2 0 0 100 286 285
357 2 2 0 0 286 101 285
358 2 2 0 0 29 287 38
359 2 2 0 0 29 287 22
360 2 2 0 0 287 30 22
361 2 2 0 0 288 38 100
362 2 2 0 0 30 288 287
363 2 2 0 0 288 38 287
364 2 2 0 0 30 289 136
365 2 2 0 0 100 289 288
366 2 2 0 0 289 30 288
367 2 2 0 0 136 290 137
368 2 2 0 0 290 100 137
369 2 2 0 0 100 290 289
370 2 2 0 0 290 136 289
371 2 2 0 0 123 291 139
372 2 2 0 0 291 32 139
373 2 2 0 0 123 291 124
374 2 2 0 0 291 32 124
375 2 2 0 0 292 25 123
376 2 2 0 0 91 292 210
377 2 2 0 0 292 25 210
378 2 2 0 0 91 293 139
379 2 2 0 0 293 123 139
380 2 2 0 0 123 293 292
381 2 2 0 0 293 91 292
382 2 2 0 0 294 113 143
383 2 2 0 0 83 294 207
384 2 2 0 0 294 113 207
385 2 2 0 0 152 295 153
386 2 2 0 0 295 31 153
387 2 2 0 0 152 295 233
388 2 2 0 0 295 31 233
389 2 2 0 0 296 98 157
390 2 2 0 0 98 296 158
391 2 2 0 0 297 152 159
392 2 2 0 0 297 152 155
393 2 2 0 0 40 298 160
394 2 2 0 0 159 298 297
395 2 2 0 0 298 40 297
396 2 2 0 0 86 299 162
397 2 2 0 0 299 122 162
398 2 2 0 0 86 299 185
399 2 2 0 0 299 122 185
400 2 2 0 0 135 300 162
401 2 2 0 0 300 86 162
402 2 2 0 0 86 300 230
403 2 2 0 0 300 135 230
404 2 2 0 0 41 301 163
405 2 2 0 0 301 99 163
406 2 2 0 0 41 301 122
407 2 2 0 0 301 99 122
408 2 2 0 0 134 302 163
409 2 2 0 0 302 41 163
410 2 2 0 0 134 302 178
411 2 2 0 0 302 41 178
412 2 2 0 0 303 33 134
413 2 2 0 0 93 303 242
414 2 2 0 0 303 33 242
415 2 2 0 0 93 304 163
416 2 2 0 0 304 134 163
417 2 2 0 0 134 304 303
418 2 2 0 0 304 93 303
419 2 2 0 0 68 305 63
420 2 2 0 0 68 305 73
421 2 2 0 0 305 69 73
422 2 2 0 0 69 306 125
423 2 2 0 0 69 306 305
424 2 2 0 0 306 63 305
425 2 2 0 0 63 307 131
426 2 2 0 0 63 307 306
427 2 2 0 0 307 125 306
428 2 2 0 0 308 125 165
429 2 2 0 0 125 308 307
430 2 2 0 0 308 131 307
431 2 2 0 0 309 58 167
432 2 2 0 0 310 167 168
433 2 2 0 0 167 310 309
434 2 2 0 0 310 102 309
435 2 2 0 0 102 311 169
436 2 2 0 0 311 168 169
437 2 2 0 0 168 311 310
438 2 2 0 0 311 102 310
439 2 2 0 0 312 133 171
440 2 2 0 0 49 312 225
441 2 2 0 0 312 133 225
442 2 2 0 0 171 313 172
443 2 2 0 0 313 49 172
444 2 2 0 0 171 313 312
445 2 2 0 0 313 49 312
446 2 2 0 0 130 314 173
447 2 2 0 0 314 90 173
448 2 2 0 0 90 314 281
449 2 2 0 0 314 130 281
450 2 2 0 0 315 57 174
451 2 2 0 0 132 315 251
452 2 2 0 0 315 57 251
453 2 2 0 0 316 88 138
454 2 2 0 0 88 316 175
455 2 2 0 0 316 109 175
456 2 2 0 0 109 317 174
457 2 2 0 0 317 138 174
458 2 2 0 0 138 317 316
459 2 2 0 0 317 109 316
460 2 2 0 0 97 318 175
461 2 2 0 0 318 49 175
462 2 2 0 0 318 49 225
463 2 2 0 0 133 319 176
464 2 2 0 0 133 319 182
465 2 2 0 0 319 39 182
466 2 2 0 0 32 320 179
467 2 2 0 0 320 111 179
468 2 2 0 0 32 320 139
469 2 2 0 0 114 321 180
470 2 2 0 0 321 24 180
471 2 2 0 0 321 114 147
472 2 2 0 0 116 322 181
473 2 2 0 0 322 39 181
474 2 2 0 0 116 322 182
475 2 2 0 0 322 39 182
476 2 2 0 0 85 323 182
477 2 2 0 0 323 133 182
478 2 2 0 0 133 323 225
479 2 2 0 0 96 324 183
480 2 2 0 0 324 117 183
481 2 2 0 0 117 324 275
482 2 2 0 0 324 96 275
483 2 2 0 0 118 325 184
484 2 2 0 0 325 88 184
485 2 2 0 0 88 325 276
486 2 2 0 0 325 118 276
487 2 2 0 0 127 326 186
488 2 2 0 0 326 126 186
489 2 2 0 0 126 326 169
490 2 2 0 0 326 127 169
491 2 2 0 0 165 327 186
492 2 2 0 0 327 126 186
493 2 2 0 0 126 327 250
494 2 2 0 0 327 165 250
495 2 2 0 0 328 129 187
496 2 2 0 0 50 328 188
497 2 2 0 0 328 129 188
498 2 2 0 0 329 104 187
499 2 2 0 0 104 329 185
500 2 2 0 0 329 119 185
501 2 2 0 0 129 330 188
502 2 2 0 0 330 107 188
503 2 2 0 0 107 330 192
504 2 2 0 0 330 129 192
505 2 2 0 0 50 331 188
506 2 2 0 0 331 177 188
507 2 2 0 0 177 331 237
508 2 2 0 0 331 50 237
509 2 2 0 0 129 332 192
510 2 2 0 0 332 89 192
511 2 2 0 0 129 332 254
512 2 2 0 0 332 89 254
513 2 2 0 0 58 333 191
514 2 2 0 0 58 333 309
515 2 2 0 0 333 107 309
516 2 2 0 0 191 334 192
517 2 2 0 0 334 107 192
518 2 2 0 0 107 334 333
519 2 2 0 0 334 191 333
520 2 2 0 0 135 335 193
521 2 2 0 0 335 99 193
522 2 2 0 0 99 335 162
523 2 2 0 0 335 135 162
524 2 2 0 0 32 336 193
525 2 2 0 0 336 135 193
526 2 2 0 0 135 336 282
527 2 2 0 0 336 32 282
528 2 2 0 0 337 136 137
529 2 2 0 0 39 337 181
530 2 2 0 0 337 136 181
531 2 2 0 0 137 338 194
532 2 2 0 0 338 39 194
533 2 2 0 0 137 338 337
534 2 2 0 0 338 39 337
535 2 2 0 0 176 339 194
536 2 2 0 0 339 39 194
537 2 2 0 0 39 339 319
538 2 2 0 0 339 176 319
539 2 2 0 0 139 340 195
540 2 2 0 0 340 111 195
541 2 2 0 0 111 340 320
542 2 2 0 0 340 139 320
543 2 2 0 0 146 341 195
544 2 2 0 0 341 91 195
545 2 2 0 0 146 341 212
546 2 2 0 0 341 91 212
547 2 2 0 0 94 342 196
548 2 2 0 0 342 143 196
549 2 2 0 0 143 342 204
550 2 2 0 0 342 94 204
551 2 2 0 0 343 114 180
552 2 2 0 0 114 343 215
553 2 2 0 0 343 94 215
554 2 2 0 0 180 344 196
555 2 2 0 0 344 94 196
556 2 2 0 0 180 344 343
557 2 2 0 0 344 94 343
558 2 2 0 0 113 345 196
559 2 2 0 0 345 180 196
560 2 2 0 0 180 345 206
561 2 2 0 0 345 113 206
562 2 2 0 0 83 346 199
563 2 2 0 0 346 143 199
564 2 2 0 0 143 346 294
565 2 2 0 0 346 83 294
566 2 2 0 0 110 347 144
567 2 2 0 0 92 347 233
568 2 2 0 0 347 110 233
569 2 2 0 0 144 348 205
570 2 2 0 0 348 92 205
571 2 2 0 0 92 348 347
572 2 2 0 0 348 144 347
573 2 2 0 0 110 349 233
574 2 2 0 0 349 31 233
575 2 2 0 0 110 350 207
576 2 2 0 0 350 115 207
577 2 2 0 0 115 350 349
578 2 2 0 0 350 110 349
579 2 2 0 0 18 351 211
580 2 2 0 0 18 351 150
581 2 2 0 0 351 95 150
582 2 2 0 0 211 352 212
583 2 2 0 0 352 95 212
584 2 2 0 0 95 352 351
585 2 2 0 0 352 211 351
586 2 2 0 0 147 353 214
587 2 2 0 0 353 24 214
588 2 2 0 0 147 353 321
589 2 2 0 0 353 24 321
590 2 2 0 0 354 201 202
591 2 2 0 0 201 354 218
592 2 2 0 0 354 82 218
593 2 2 0 0 202 355 215
594 2 2 0 0 202 355 354
595 2 2 0 0 355 82 354
596 2 2 0 0 94 356 215
597 2 2 0 0 356 202 215
598 2 2 0 0 202 356 203
599 2 2 0 0 356 94 203
600 2 2 0 0 215 357 216
601 2 2 0 0 357 82 216
602 2 2 0 0 82 357 355
603 2 2 0 0 357 215 355
604 2 2 0 0 146 358 147
605 2 2 0 0 95 358 212
606 2 2 0 0 358 146 212
607 2 2 0 0 95 359 217
608 2 2 0 0 359 147 217
609 2 2 0 0 95 359 358
610 2 2 0 0 359 147 358
611 2 2 0 0 151 360 220
612 2 2 0 0 360 82 220
613 2 2 0 0 82 360 216
614 2 2 0 0 360 151 216
615 2 2 0 0 85 361 221
616 2 2 0 0 361 155 221
617 2 2 0 0 85 361 226
618 2 2 0 0 361 155 226
619 2 2 0 0 115 362 183
620 2 2 0 0 31 362 349
621 2 2 0 0 362 115 349
622 2 2 0 0 31 363 222
623 2 2 0 0 363 183 222
624 2 2 0 0 31 363 362
625 2 2 0 0 363 183 362
626 2 2 0 0 225 364 226
627 2 2 0 0 364 85 226
628 2 2 0 0 85 364 323
629 2 2 0 0 364 225 323
630 2 2 0 0 97 365 226
631 2 2 0 0 365 225 226
632 2 2 0 0 225 365 318
633 2 2 0 0 365 97 318
634 2 2 0 0 366 40 156
635 2 2 0 0 155 366 297
636 2 2 0 0 366 40 297
637 2 2 0 0 155 367 227
638 2 2 0 0 367 156 227
639 2 2 0 0 156 367 366
640 2 2 0 0 367 155 366
641 2 2 0 0 368 98 157
642 2 2 0 0 368 118 184
643 2 2 0 0 118 369 228
644 2 2 0 0 369 157 228
645 2 2 0 0 157 369 368
646 2 2 0 0 369 118 368
647 2 2 0 0 120 370 229
648 2 2 0 0 370 157 229
649 2 2 0 0 157 370 296
650 2 2 0 0 370 120 296
651 2 2 0 0 112 371 230
652 2 2 0 0 371 120 230
653 2 2 0 0 120 371 160
654 2 2 0 0 371 112 160
655 2 2 0 0 135 372 230
656 2 2 0 0 372 112 230
657 2 2 0 0 112 372 282
658 2 2 0 0 372 135 282
659 2 2 0 0 158 373 231
660 2 2 0 0 373 120 231
661 2 2 0 0 120 373 296
662 2 2 0 0 373 158 296
663 2 2 0 0 374 119 158
664 2 2 0 0 119 374 185
665 2 2 0 0 374 86 185
666 2 2 0 0 86 375 231
667 2 2 0 0 375 158 231
668 2 2 0 0 158 375 374
669 2 2 0 0 375 86 374
670 2 2 0 0 161 376 232
671 2 2 0 0 376 98 232
672 2 2 0 0 161 376 239
673 2 2 0 0 376 98 239
674 2 2 0 0 92 377 234
675 2 2 0 0 377 159 234
676 2 2 0 0 159 377 235
677 2 2 0 0 377 92 235
678 2 2 0 0 179 378 235
679 2 2 0 0 112 378 282
680 2 2 0 0 378 179 282
681 2 2 0 0 160 379 236
682 2 2 0 0 379 159 236
683 2 2 0 0 159 379 298
684 2 2 0 0 379 160 298
685 2 2 0 0 235 380 236
686 2 2 0 0 380 112 236
687 2 2 0 0 112 380 378
688 2 2 0 0 380 235 378
689 2 2 0 0 103 381 237
690 2 2 0 0 381 177 237
691 2 2 0 0 177 381 252
692 2 2 0 0 381 103 252
693 2 2 0 0 50 382 238
694 2 2 0 0 382 161 238
695 2 2 0 0 50 382 240
696 2 2 0 0 382 161 240
697 2 2 0 0 98 383 239
698 2 2 0 0 383 184 239
699 2 2 0 0 184 383 368
700 2 2 0 0 383 98 368
701 2 2 0 0 187 384 240
702 2 2 0 0 384 50 240
703 2 2 0 0 187 384 328
704 2 2 0 0 384 50 328
705 2 2 0 0 119 385 240
706 2 2 0 0 385 187 240
707 2 2 0 0 187 385 329
708 2 2 0 0 385 119 329
709 2 2 0 0 131 386 251
710 2 2 0 0 386 165 251
711 2 2 0 0 165 386 308
712 2 2 0 0 386 131 308
713 2 2 0 0 131 387 251
714 2 2 0 0 387 132 251
715 2 2 0 0 132 387 266
716 2 2 0 0 387 131 266
717 2 2 0 0 103 388 252
718 2 2 0 0 388 127 252
719 2 2 0 0 127 388 269
720 2 2 0 0 388 103 269
721 2 2 0 0 389 107 177
722 2 2 0 0 107 389 309
723 2 2 0 0 389 102 309
724 2 2 0 0 390 177 252
725 2 2 0 0 177 390 389
726 2 2 0 0 390 102 389
727 2 2 0 0 102 391 253
728 2 2 0 0 391 252 253
729 2 2 0 0 252 391 390
730 2 2 0 0 391 102 390
731 2 2 0 0 392 41 170
732 2 2 0 0 41 392 277
733 2 2 0 0 392 128 277
734 2 2 0 0 128 393 255
735 2 2 0 0 393 170 255
736 2 2 0 0 170 393 392
737 2 2 0 0 393 128 392
738 2 2 0 0 89 394 254
739 2 2 0 0 128 394 279
740 2 2 0 0 394 89 279
741 2 2 0 0 254 395 255
742 2 2 0 0 395 128 255
743 2 2 0 0 128 395 394
744 2 2 0 0 395 254 394
745 2 2 0 0 396 129 254
746 2 2 0 0 129 396 187
747 2 2 0 0 396 104 187
748 2 2 0 0 104 397 255
749 2 2 0 0 397 254 255
750 2 2 0 0 254 397 396
751 2 2 0 0 397 104 396
752 2 2 0 0 48 398 258
753 2 2 0 0 48 398 101
754 2 2 0 0 398 87 101
755 2 2 0 0 258 399 259
756 2 2 0 0 87 399 398
757 2 2 0 0 399 258 398
758 2 2 0 0 259 400 260
759 2 2 0 0 400 87 260
760 2 2 0 0 87 400 399
761 2 2 0 0 400 259 399
762 2 2 0 0 401 56 259
763 2 2 0 0 108 401 280
764 2 2 0 0 401 56 280
765 2 2 0 0 108 402 260
766 2 2 0 0 402 259 260
767 2 2 0 0 259 402 401
768 2 2 0 0 402 108 401
769 2 2 0 0 132 403 268
770 2 2 0 0 403 174 268
771 2 2 0 0 174 403 315
772 2 2 0 0 403 132 315
$EndElements
